<?xml version="1.0" encoding="UTF-8"?>

<svg xmlns="http://www.w3.org/2000/svg" version="1.1" id="Itabashi-don_logo_full" viewBox="0 0 713.35878 175.8678">
  <g id="g4272" transform="matrix(0.80313478,0,0,0.80313478,24.482772,10.870938)">
    <path id="path49" d="m 7.037728,62.89117 c -0.890012,-0.6477 -3.181954,-1.94615 -8.144237,-4.61397 -1.379498,-0.74164 -1.508192,-0.95687 -1.508192,-2.52231 0,-0.94131 0.180983,-1.82333 0.402184,-1.96004 0.221202,-0.13671 0.402185,-1.76556 0.402185,-3.61966 0,-1.85411 0.180982,-3.48296 0.402184,-3.61966 0.221201,-0.13672 0.402185,-1.77625 0.402185,-3.6434 0,-1.9951 0.165825,-3.39483 0.402184,-3.39483 0.720516,0 0.438001,-3.53143 -0.402184,-5.02731 -0.442403,-0.78766 -0.804369,-1.69808 -0.804369,-2.02315 0,-0.32508 -0.180983,-0.59105 -0.402185,-0.59105 -0.221201,0 -0.402184,-0.35129 -0.402184,-0.78063 0,-0.42935 -0.159374,-0.87914 -0.354163,-0.99953 -0.19479,-0.12038 -0.441167,-0.67401 -0.5475054,-1.23028 -0.1486894,-0.77782 -0.025935,-1.01141 0.5315194,-1.01141 0.398674,0 0.822268,-0.1576 0.941321,-0.35024 0.119051,-0.19263 0.763173,-0.45957 1.431381,-0.59321 0.924871,-0.18498 1.214923,-0.46159 1.214923,-1.15865 0,-0.68461 0.482061,-1.16672 1.910376,-1.91059 1.050708,-0.54721 2.000869,-1.09751 2.11147,-1.22288 0.1106,-0.12537 0.768385,-0.49577 1.461744,-0.8231 1.074327,-0.50719 4.168839,-3.94508 4.168839,-4.63143 0,-0.12448 0.258547,-0.48488 0.57455,-0.80088 0.855283,-0.85529 3.476754,-0.69549 5.490603,0.3347 3.072483,1.57173 3.023142,1.42972 1.15732,3.33086 -1.173786,1.19599 -1.620126,1.94334 -1.440382,2.41174 0.190077,0.49533 0.50364,0.59966 1.160479,0.38611 0.806401,-0.26216 2.383148,-0.51623 7.77966,-1.25354 1.58815,-0.21698 1.68255,-0.16661 2.470745,1.31847 0.470771,0.88699 1.051709,1.47682 1.36515,1.38603 0.300104,-0.0869 1.179083,-0.27032 1.953287,-0.40755 l 1.407648,-0.24951 0.121784,-2.60883 c 0.06697,-1.43485 0.293208,-2.78077 0.502726,-2.99091 0.209527,-0.21014 0.380951,-0.72173 0.380951,-1.13686 0,-0.7447 0.488162,-0.28054 2.815289,2.6769 2.182361,2.77347 2.957521,3.48581 3.357702,3.08562 0.232562,-0.23255 0.802901,-0.42283 1.267422,-0.42283 0.464521,0 1.041891,-0.19731 1.283046,-0.43845 0.474609,-0.47462 3.604701,-0.31138 8.369383,0.43646 1.548407,0.24304 3.889421,0.54165 5.202248,0.6636 2.463147,0.22878 4.249087,1.05295 4.249087,1.96084 0,0.28546 0.387663,1.30529 0.861476,2.2663 1.574717,3.19392 1.650125,3.47352 1.35624,5.02857 -0.160586,0.84971 -0.31806,3.17379 -0.349927,5.1646 l -0.05797,3.61966 1.407641,0.11285 c 2.502659,0.20064 3.217476,0.81086 3.217476,2.74667 0,0.94497 -0.18098,1.82998 -0.40218,1.9667 -0.221207,0.1367 -0.402187,1.0523 -0.402187,2.03466 0,2.00471 -0.432916,2.21606 -2.010922,0.98172 -1.527584,-1.19489 -2.80942,-1.00065 -4.644617,0.70382 -0.893129,0.82951 -2.385781,2.18689 -3.317004,3.01638 l -1.693124,1.5082 h -4.451845 -4.451837 l -3.490148,-3.41133 c -3.397063,-3.32036 -3.541859,-3.41153 -5.429245,-3.41857 -1.814439,-0.007 -3.088208,0.60887 -3.088208,1.49259 0,0.1929 -0.226224,0.83786 -0.502726,1.43324 -0.391358,0.84269 -0.787048,1.0832 -1.786099,1.08564 -0.70585,0.002 -1.395218,0.18412 -1.531924,0.40532 -0.136714,0.22121 -0.868731,0.40219 -1.626706,0.40219 -0.757976,0 -2.149913,0.17809 -3.093193,0.39577 -0.943281,0.21768 -2.245541,0.50084 -2.893912,0.62923 -0.726843,0.14394 -2.346054,1.36626 -4.222937,3.18784 l -3.044083,2.95439 -1.747966,-0.59542 c -2.02203,-0.68877 -2.877156,-0.49585 -2.877156,0.64911 0,1.06225 -0.9086,4.44608 -1.189422,4.42969 -0.120023,-0.007 -0.670681,-0.34202 -1.223685,-0.74446 z" style="fill:#3088d4;fill-opacity:1;stroke-width:0.40218455"/>
    <path id="path51" d="M 41.002211,98.3007 C 40.792072,98.11496 39.986694,97.72093 39.21249,97.4251 38.438286,97.12927 35.361577,95.72347 32.375358,94.30109 24.14217,90.37951 24.358351,90.4594 24.062873,91.2294 c -0.137833,0.35919 -0.08821,0.77054 0.11028,0.91411 0.198486,0.14358 0.617409,0.75876 0.930938,1.36706 0.313522,0.6083 0.720447,1.10601 0.904269,1.10601 0.183823,0 0.334225,0.18098 0.334225,0.40218 0,0.2212 -0.621246,0.40219 -1.380543,0.40219 -0.976131,0 -1.434793,-0.20618 -1.565735,-0.70383 -0.101856,-0.38709 -0.413047,-1.60873 -0.691535,-2.71474 -0.60438,-2.40028 -1.38916,-3.41857 -2.634645,-3.41857 -0.505665,0 -1.031245,-0.18098 -1.167955,-0.40219 -0.13671,-0.2212 -0.572043,-0.40218 -0.967407,-0.40218 -1.641463,0 -3.608965,-1.43787 -4.726653,-3.4543 -0.406694,-0.73372 -0.318569,-0.92698 0.695939,-1.52627 1.000285,-0.59088 1.095516,-0.79199 0.685737,-1.44815 -0.261724,-0.41909 -0.936863,-0.99915 -1.500308,-1.28902 -0.563445,-0.28987 -1.370039,-0.83887 -1.792431,-1.21999 -0.750656,-0.67731 -0.734774,-0.74296 0.703823,-2.90965 0.809495,-1.21919 1.471809,-2.38539 1.471809,-2.59156 0,-0.20617 0.141705,-0.43519 0.314901,-0.50891 0.173196,-0.0737 0.707544,-0.80852 1.187441,-1.63286 l 0.872538,-1.49878 -2.792277,-2.52306 c -2.339809,-2.11422 -2.79291,-2.73102 -2.796179,-3.80643 -0.0022,-0.70585 0.177083,-1.39521 0.398284,-1.53192 0.221202,-0.13671 0.402184,-0.59417 0.402184,-1.01658 0,-0.80373 0.445754,-0.78001 2.328055,0.12384 0.838331,0.40255 1.215667,0.14825 4.231339,-2.85176 1.821011,-1.81155 3.533377,-3.29373 3.805259,-3.29373 0.271881,0 0.49433,-0.18098 0.49433,-0.40218 0,-0.2212 0.904915,-0.40219 2.010923,-0.40219 1.106004,0 2.010918,-0.18098 2.010918,-0.40219 0,-0.2212 0.904922,-0.40218 2.01093,-0.40218 1.155991,0 2.010922,-0.18234 2.010922,-0.4289 0,-0.8181 2.199832,-0.20214 2.609019,0.73054 0.218357,0.4977 0.535079,0.90492 0.703828,0.90492 0.168749,0 0.306808,0.36196 0.306808,0.80436 0,0.4424 0.180988,0.80437 0.402188,0.80437 0.2212,0 0.402187,0.36197 0.402187,0.80437 0,0.44241 0.18098,0.80437 0.40218,0.80437 0.2212,0 0.402187,0.36197 0.402187,0.80437 0,0.4424 0.18098,0.80437 0.402188,0.80437 0.2212,0 0.40218,0.27904 0.40218,0.6201 0,1.02718 1.232362,1.97157 4.826218,3.69848 7.417536,3.56425 8.599103,4.01185 10.10393,3.82753 1.633538,-0.20009 1.616984,-0.23478 2.350903,4.92489 0.674868,4.74451 0.888025,5.21318 2.438575,5.3618 3.138755,0.30085 3.134495,1.55021 -0.01258,3.68735 -2.403346,1.63208 -2.733176,2.19701 -2.057838,3.52457 0.365916,0.71933 1.06304,2.35335 1.756389,4.11694 0.217417,0.553 0.579822,1.3592 0.805354,1.79156 0.28984,0.55564 0.27608,0.83076 -0.0469,0.93843 -0.251331,0.0838 -0.456972,0.47859 -0.456972,0.87735 0,0.83438 -1.366679,1.54763 -5.429491,2.83358 -1.548408,0.4901 -3.129559,1.05122 -3.513655,1.24693 -0.384104,0.19571 -1.052107,0.35584 -1.484458,0.35584 -0.432351,0 -0.897946,0.18098 -1.034652,0.40218 -0.136714,0.2212 -0.654148,0.40218 -1.149859,0.40218 -0.495704,0 -1.082271,0.18099 -1.303471,0.40219 -0.2212,0.2212 -0.574121,0.25021 -0.784261,0.0645 z" style="fill:#3088d4;fill-opacity:1;stroke-width:0.40218455"/>
    <path id="path53" d="m 57.310792,89.47896 c 0,-0.27595 -0.336326,-1.26893 -0.7474,-2.20663 -1.653581,-3.77197 -1.692575,-3.91692 -1.053804,-3.91692 0.327058,0 0.594658,-0.1504 0.594658,-0.33422 0,-0.18382 0.495169,-0.59104 1.100378,-0.90492 1.9066,-0.98882 2.519278,-1.71447 2.519278,-2.98379 0,-1.48286 -1.177976,-2.61421 -2.721965,-2.61421 -0.935507,0 -1.180372,-0.24459 -1.604139,-1.6024 -0.275061,-0.88132 -0.500107,-2.38348 -0.500107,-3.33813 0,-0.95465 -0.16808,-1.90766 -0.373513,-2.11781 -0.205434,-0.21014 -0.431658,-1.01551 -0.502726,-1.78972 -0.127183,-1.38544 -0.160938,-1.4095 -2.140151,-1.52562 -1.750569,-0.1027 -6.719672,-2.12059 -11.155161,-4.52997 -0.384104,-0.20865 -0.879736,-0.37936 -1.101406,-0.37936 -0.882004,0 -2.120227,-1.55198 -3.529635,-4.42403 -0.81413,-1.65901 -1.62216,-3.07671 -1.795623,-3.15045 -0.173462,-0.0737 -0.315384,-0.48094 -0.315384,-0.90491 0,-0.42397 -0.18098,-0.77085 -0.402188,-0.77085 -0.2212,0 -0.402179,-0.27148 -0.402179,-0.60328 0,-0.3318 0.180979,-0.60328 0.402179,-0.60328 0.221208,0 0.402188,-0.32577 0.402188,-0.72393 0,-1.0484 0.799207,-1.68918 2.10681,-1.68918 0.90356,0 1.889759,0.75464 4.73033,3.61967 l 3.588768,3.61966 4.942205,-0.0114 4.942205,-0.0114 2.010922,-1.81175 c 1.106007,-0.99646 2.644366,-2.39395 3.41857,-3.10554 1.17655,-1.08139 1.556211,-1.22861 2.312562,-0.89678 0.497702,0.21835 0.904914,0.53507 0.904914,0.70382 0,0.16875 0.361967,0.30681 0.804367,0.30681 0.832651,0 1.10987,0.97028 0.402187,1.40765 -0.2212,0.13671 -0.402187,0.77015 -0.402187,1.40764 0,0.6375 -0.18098,1.27094 -0.40218,1.40765 -0.2212,0.13671 -0.402187,0.78083 -0.402187,1.43139 0,0.65054 -0.192446,1.18281 -0.427661,1.18281 -0.240231,0 -0.37243,0.57289 -0.301641,1.3071 0.109697,1.13775 0.299029,1.33315 1.461342,1.50819 1.386268,0.20876 1.51881,0.37422 3.320309,4.14489 0.50791,1.06308 1.057944,2.01598 1.222305,2.11756 0.164361,0.10158 1.120285,-0.035 2.124288,-0.30355 2.076918,-0.55548 2.830673,-0.20505 1.525403,0.70921 -0.484364,0.33925 -0.880651,0.96853 -0.880651,1.39839 0,0.42986 -0.180987,0.78156 -0.402187,0.78156 -0.2212,0 -0.40218,0.80374 -0.40218,1.78609 0,0.98236 -0.180987,1.89796 -0.402187,2.03466 -0.2212,0.13672 -0.402188,0.95114 -0.402188,1.80984 0,0.8587 -0.180979,1.67312 -0.402179,1.80983 -0.221208,0.13671 -0.402188,0.64752 -0.402188,1.13512 0,0.60415 -1.793695,2.67684 -5.630585,6.50638 -3.096823,3.09089 -5.630586,5.39404 -5.630586,5.11808 z" style="fill:#3088d4;fill-opacity:1;stroke-width:0.40218455"/>
    <path id="path55" d="m 50.024787,153.62446 c -1.708668,-1.44893 -2.48718,-2.05426 -3.975157,-3.09088 -0.774204,-0.53936 -1.679118,-1.2693 -2.010922,-1.62209 -0.331804,-0.35278 -1.236718,-1.07935 -2.010922,-1.61458 -0.774211,-0.53523 -1.649543,-1.20806 -1.945196,-1.4952 -0.295644,-0.28712 -1.200558,-1.01598 -2.010922,-1.61968 -0.810355,-0.6037 -1.563871,-1.19384 -1.674467,-1.31141 -0.110604,-0.11757 -1.015518,-0.84091 -2.010922,-1.60742 -0.995411,-0.7665 -2.171803,-1.72735 -2.614202,-2.1352 -1.679604,-1.54845 -3.112017,-2.07036 -8.043691,-2.93073 -0.663604,-0.11577 -1.568519,-0.36681 -2.010922,-0.55787 -1.155601,-0.49905 -3.223352,-0.85021 -6.334407,-1.07575 l -2.714746,-0.19681 v -1.283 c 0,-0.83653 0.426405,-1.80031 1.225316,-2.76953 l 1.225314,-1.48652 -1.325861,-2.52641 c -0.729224,-1.38954 -1.420005,-2.61691 -1.535071,-2.72751 -0.115066,-0.1106 -0.809376,-1.40016 -1.542914,-2.8657 -1.035434,-2.06869 -1.242559,-2.83322 -0.926156,-3.41857 0.224151,-0.41467 0.505571,-1.07069 0.625376,-1.45778 0.158999,-0.51374 0.644093,-0.70383 1.79616,-0.70383 1.068221,0 1.657231,-0.2056 1.822453,-0.63617 0.504797,-1.31548 0.214737,-4.26513 -0.600329,-6.1048 -0.464448,-1.0483 -0.989272,-2.26796 -1.166276,-2.71037 -0.177004,-0.4424 -0.68545,-1.61879 -1.12988,-2.61419 -0.795563,-1.78186 -0.796186,-1.82267 -0.04028,-2.64012 0.44453,-0.48073 0.768392,-1.41202 0.769238,-2.21202 0.0012,-1.12313 -0.318718,-1.66282 -1.709284,-2.88363 l -1.710746,-1.50192 1.118631,-0.006 c 1.301756,-0.007 1.840899,-0.9697 1.156857,-2.06502 -0.256111,-0.4101 -0.465657,-1.16435 -0.465657,-1.67611 0,-0.51177 -0.21718,-1.14766 -0.482622,-1.41311 -0.375372,-0.37537 0.205561,-0.48262 2.6142,-0.48262 1.796424,0 3.096821,0.16888 3.096821,0.40218 0,0.2212 0.542949,0.40219 1.206554,0.40219 0.663604,0 1.206553,0.18098 1.206553,0.40218 0,0.2212 0.508119,0.40219 1.129154,0.40219 0.922883,0 1.253499,0.28183 1.809831,1.54278 0.374372,0.84854 0.680676,1.90663 0.680676,2.35132 0,0.44469 0.28473,1.37929 0.632733,2.07687 0.618611,1.24004 0.694917,1.26835 3.418566,1.26835 2.59096,0 2.785835,-0.0611 2.785835,-0.87325 0,-0.48028 -0.299523,-1.20422 -0.665607,-1.60873 -0.624486,-0.69005 -0.614127,-0.7355 0.167578,-0.7355 0.458254,0 0.893511,0.13574 0.967247,0.30164 0.193091,0.43446 3.52407,2.11147 4.193913,2.11147 0.310901,0 0.565266,0.18098 0.565266,0.40219 0,0.2212 0.361968,0.40218 0.804375,0.40218 0.4424,0 0.804367,0.18099 0.804367,0.40219 0,0.2212 0.254374,0.40217 0.565267,0.40217 0.310902,0 1.35155,0.38768 2.312562,0.86149 3.418244,1.68531 3.545809,1.72381 4.047874,1.22176 0.260967,-0.26098 0.88007,-0.4745 1.375781,-0.4745 0.495711,0 1.013145,-0.18098 1.149851,-0.40219 0.136714,-0.2212 0.679661,-0.40218 1.206555,-0.40218 0.526894,0 1.06984,-0.18099 1.206554,-0.40219 0.136707,-0.2212 0.679661,-0.40219 1.206555,-0.40219 0.526894,0 1.069841,-0.18097 1.206555,-0.40217 0.136706,-0.2212 0.690339,-0.40219 1.230291,-0.40219 0.539945,0 0.981724,-0.18098 0.981724,-0.40218 0,-0.22121 0.542947,-0.40219 1.206555,-0.40219 0.663599,0 1.206546,-0.18891 1.206546,-0.4198 0,-0.26375 1.078823,-0.37588 2.902116,-0.30164 l 2.902115,0.11817 1.540063,3.01638 c 0.84704,1.65901 1.712888,3.07671 1.924103,3.15044 0.211222,0.0737 0.384032,0.30814 0.384032,0.52089 0,0.21276 0.904922,1.72786 2.010929,3.3669 1.106008,1.63903 2.010922,3.16921 2.010922,3.4004 0,0.2312 0.18098,0.42035 0.40218,0.42035 0.221208,0 0.402187,0.71325 0.402187,1.585 0,0.87176 0.18098,1.69686 0.402188,1.83357 0.2212,0.13671 0.402179,1.23329 0.402179,2.43684 0,1.20355 0.180988,2.18828 0.402188,2.18828 0.2212,0 0.402187,0.45246 0.402187,1.00546 0,0.553 -0.180987,1.00546 -0.402187,1.00546 -0.2212,0 -0.402188,0.36443 -0.402188,0.80983 0,0.4454 -0.180979,1.16934 -0.402179,1.60874 l -0.804375,1.59782 c -0.2212,0.43941 -0.40218,1.16333 -0.40218,1.60874 0,0.4454 -0.180988,0.80982 -0.402187,0.80982 -0.2212,0 -0.402188,0.33981 -0.402188,0.75513 0,1.09578 -0.9808,1.78789 -1.878858,1.32581 -0.404433,-0.20809 -1.278284,-0.60156 -1.941891,-0.87438 -0.663608,-0.27282 -1.520817,-0.6559 -1.904921,-0.85129 -0.384104,-0.1954 -0.972295,-0.35527 -1.307101,-0.35527 -0.334798,0 -0.608728,-0.18098 -0.608728,-0.40218 0,-0.2212 -0.351289,-0.40218 -0.780638,-0.40218 -0.429349,0 -0.892484,-0.18098 -1.029198,-0.40219 -0.136706,-0.2212 -0.780829,-0.40218 -1.431377,-0.40218 -0.902709,0 -1.182818,0.18487 -1.182818,0.78063 0,0.42935 0.18098,0.89249 0.40218,1.0292 0.2212,0.13671 0.402187,0.77015 0.402187,1.40765 0,0.63749 0.18098,1.27093 0.402188,1.40764 0.2212,0.13671 0.402179,0.77015 0.402179,1.40764 0,0.6375 0.180988,1.27094 0.402188,1.40765 0.2212,0.13672 0.402179,0.65415 0.402179,1.14985 0,0.49572 0.221702,1.12299 0.492662,1.39396 0.388754,0.38875 0.388754,0.65903 0,1.28153 -0.27096,0.43388 -0.492662,1.14261 -0.492662,1.57496 0,0.43235 -0.180979,0.89794 -0.402179,1.03466 -0.2212,0.13671 -0.402188,0.6023 -0.402188,1.03465 0,0.43235 -0.22491,1.14623 -0.499796,1.58639 -0.369651,0.59191 -0.384717,0.98322 -0.05789,1.50274 0.362485,0.57616 1.151293,0.72326 4.388007,0.81835 4.233185,0.12436 4.977935,0.48196 5.004929,2.40319 0.0072,0.50071 0.234482,1.26536 0.505449,1.69924 0.388755,0.62251 0.388755,0.89278 0,1.28154 -0.270967,0.27096 -0.492661,1.09558 -0.492661,1.83249 0,1.85868 -0.935101,2.09243 -2.342678,0.58561 -1.902077,-2.03617 -3.830559,-2.89068 -6.523802,-2.89068 -2.091059,0 -2.692923,0.18979 -4.584466,1.44572 -2.7006,1.79309 -2.942344,2.34994 -1.412482,3.25366 0.654037,0.38634 1.189156,0.9349 1.189156,1.219 0,0.73249 -0.446134,0.62441 -1.655428,-0.40105 z" style="fill:#3088d4;fill-opacity:1;stroke-width:0.40218455"/>
    <path id="path57" d="m 66.561041,144.16571 c 0,-0.48664 -0.180987,-0.8848 -0.402187,-0.8848 -0.2212,0 -0.40218,-0.36197 -0.40218,-0.80437 0,-0.75425 -0.268125,-0.80437 -4.303377,-0.80437 -3.347072,0 -4.196126,-0.10725 -3.82075,-0.48262 0.265442,-0.26544 0.48262,-0.8882 0.48262,-1.38391 0,-0.49571 0.18098,-1.01314 0.40218,-1.14985 0.221208,-0.13671 0.402187,-0.67966 0.402187,-1.20655 0,-0.5269 0.18098,-1.06985 0.402188,-1.20656 0.500608,-0.3094 0.520579,-1.59294 0.03918,-2.51911 -0.199636,-0.3841 -0.579249,-1.51279 -0.843568,-2.50819 -0.264319,-0.99541 -0.643924,-2.1241 -0.843568,-2.5082 -0.390211,-0.75076 -0.495982,-2.31802 -0.15643,-2.31802 0.210553,0 0.897604,0.31398 2.502739,1.14376 0.4947,0.25574 1.173381,0.46498 1.508187,0.46498 0.334806,0 0.608736,0.18098 0.608736,0.40218 0,0.2212 0.27393,0.40219 0.608736,0.40219 0.590636,0 1.01762,0.16812 2.904918,1.14376 1.284328,0.66393 1.714744,0.57875 1.714744,-0.33939 0,-0.4424 0.148268,-0.80437 0.329478,-0.80437 0.181219,0 0.575897,-0.90492 0.877076,-2.01092 0.301179,-1.10601 0.695858,-2.01093 0.877076,-2.01093 0.181211,0 0.329479,-0.54295 0.329479,-1.20655 0,-0.66361 0.180979,-1.20655 0.402187,-1.20655 0.2212,0 0.40218,-0.35129 0.40218,-0.78064 0,-0.42935 0.180987,-0.89249 0.402187,-1.0292 0.2212,-0.13671 0.40218,-1.04162 0.40218,-2.01092 0,-0.9693 -0.18098,-1.87421 -0.40218,-2.01092 -0.2212,-0.13671 -0.402187,-1.22261 -0.402187,-2.41311 0,-1.1905 -0.18098,-2.2764 -0.40218,-2.4131 -0.221208,-0.13672 -0.402187,-0.8372 -0.402187,-1.55664 0,-0.75216 -0.341853,-1.67501 -0.804367,-2.17147 -0.442408,-0.47486 -0.804375,-1.14243 -0.804375,-1.48348 0,-0.34105 -0.159026,-0.62009 -0.353392,-0.62009 -0.194365,0 -0.578285,-0.54295 -0.853163,-1.20656 -0.274869,-0.6636 -0.65879,-1.20655 -0.853155,-1.20655 -0.194365,0 -0.353392,-0.23514 -0.353392,-0.52252 0,-0.3615 0.464752,-0.47775 1.508188,-0.37724 2.215662,0.21342 3.290471,0.84615 5.530038,3.25549 1.106008,1.18986 4.074303,4.31378 6.596216,6.94206 l 4.585287,4.77867 h 1.950212 c 2.062518,0 2.555688,0.60556 1.324968,1.62696 -1.316599,1.09268 -1.421143,1.87684 -0.639,4.79311 l 0.75906,2.83018 h -0.930229 c -0.511621,0 -1.042082,0.18098 -1.178789,0.40218 -0.136714,0.2212 -0.77015,0.40218 -1.407648,0.40218 -0.637497,0 -1.258576,0.16099 -1.380184,0.35775 -0.121601,0.19676 -0.810969,0.45965 -1.531925,0.58419 -4.399218,0.75995 -5.131585,1.06304 -5.131585,2.12369 0,0.31928 0.415987,0.55404 0.981731,0.55404 0.539945,0 1.093578,0.18098 1.230284,0.40218 0.136714,0.2212 0.599849,0.40218 1.029198,0.40218 0.429349,0 0.780638,0.0889 0.780638,0.19762 0,0.18587 -2.175538,3.17542 -3.444824,4.73374 -0.329749,0.40484 -0.577027,1.56966 -0.577027,2.71815 0,1.96602 -0.01967,1.99873 -0.904914,1.5036 -0.497702,-0.27838 -0.995404,-0.60471 -1.106008,-0.72519 -0.480152,-0.52304 -3.315141,-1.99296 -3.843738,-1.99296 -0.450331,0 -0.580293,0.63049 -0.580293,2.81529 0,2.66957 -0.04786,2.81529 -0.92502,2.81529 -0.508762,0 -1.142207,0.21718 -1.407648,0.48262 -0.375369,0.37537 -0.48262,0.286 -0.48262,-0.40219 z" style="fill:#3088d4;fill-opacity:1;stroke-width:0.40218455"/>
    <path id="path59" d="m 113.61663,157.90444 c 0,-0.92249 -0.26029,-1.66144 -0.70382,-1.99814 -0.84084,-0.63828 -7.56363,-0.77173 -7.94315,-0.15767 -0.13671,0.2212 -0.92562,0.40218 -1.75312,0.40218 -0.82752,0 -1.69874,0.19417 -1.93605,0.43148 -0.23732,0.23732 -1.04269,0.37306 -1.78972,0.30165 -1.10469,-0.10561 -1.38137,-0.31755 -1.48213,-1.13531 -0.0682,-0.553 -0.39335,-1.59366 -0.72269,-2.31256 -0.71537,-1.56153 -1.8413,-1.70376 -3.97964,-0.50273 -1.81864,1.02147 -2.6142,1.01981 -2.6142,-0.006 0,-0.4454 -0.16912,-1.12409 -0.37584,-1.50819 -0.20672,-0.3841 -0.61286,-1.28656 -0.90255,-2.00546 -0.30391,-0.75422 -0.81537,-1.3071 -1.20916,-1.3071 -0.37535,0 -0.79431,-0.18099 -0.93101,-0.40219 -0.13672,-0.2212 -1.454274,-0.40218 -2.927918,-0.40218 h -2.679347 l -2.32422,-2.29997 c -2.198725,-2.17579 -2.324228,-2.40588 -2.324228,-4.2614 0,-1.74796 0.844619,-3.72195 2.010922,-4.6998 0.13192,-0.11061 0.674867,-0.83453 1.206554,-1.60874 0.531688,-0.77421 1.156413,-1.53823 1.388267,-1.69783 0.740354,-0.50963 -0.370025,-1.70325 -1.8321,-1.96943 -0.833073,-0.15167 -1.022214,-0.26935 -0.484818,-0.30164 0.484651,-0.0291 0.993031,-0.23393 1.129745,-0.45513 0.136714,-0.2212 0.871327,-0.40218 1.632471,-0.40218 0.761153,0 1.383912,-0.18098 1.383912,-0.40219 0,-0.2212 0.597245,-0.40218 1.327207,-0.40218 0.72997,0 1.49915,-0.16566 1.709289,-0.36813 0.210144,-0.20247 0.834534,-0.42871 1.387534,-0.50274 1.10177,-0.14748 1.62393,-1.68792 0.83842,-2.47343 -0.23993,-0.23993 -0.43623,-0.94545 -0.43623,-1.56781 0,-0.62237 -0.21275,-1.47225 -0.47279,-1.88862 -0.37881,-0.60657 -0.34454,-0.88527 0.17237,-1.40219 0.87964,-0.87964 1.10478,-0.81291 1.10478,0.32742 0,1.98289 0.33576,2.24491 2.87661,2.24491 2.94865,0 3.55032,0.52155 6.07889,5.26932 l 1.79887,3.37765 2.16378,-0.11456 c 1.19008,-0.063 4.33557,-0.20631 6.98999,-0.31844 3.84766,-0.16253 4.92814,-0.33837 5.32895,-0.86722 0.41381,-0.54603 0.50272,-0.009 0.50272,3.03864 0,3.26313 0.33155,4.82913 1.2072,5.70199 0.11095,0.11061 0.47263,0.74404 0.80372,1.40765 0.33111,0.6636 0.69278,1.29705 0.80373,1.40764 0.11096,0.11061 0.44498,0.63311 0.74229,1.16111 0.2973,0.52801 0.8855,1.56867 1.3071,2.31257 0.42161,0.74389 1.1478,2.03123 1.61377,2.86074 0.46598,0.8295 1.02918,1.73211 1.25155,2.0058 0.52823,0.65009 0.107,1.7144 -0.6785,1.7144 -0.33875,0 -0.61591,0.18099 -0.61591,0.40219 0,0.2212 -0.63343,0.40218 -1.40764,0.40218 -0.77421,0 -1.40764,-0.18098 -1.40764,-0.40218 0,-0.2212 -0.45246,-0.40219 -1.00546,-0.40219 -0.99802,0 -1.00547,0.0268 -1.00547,3.61966 v 3.61966 h -1.40764 c -1.35092,0 -1.40765,-0.059 -1.40765,-1.46385 z" style="fill:#3088d4;fill-opacity:1;stroke-width:0.40218455"/>
    <path id="path61" d="m 137.84825,205.07258 c -0.4977,-0.2465 -0.90491,-0.58624 -0.90491,-0.75499 0,-0.16875 -0.27148,-0.30681 -0.60328,-0.30681 -0.33181,0 -0.60328,-0.18098 -0.60328,-0.40219 0,-0.2212 -0.19362,-0.40218 -0.43026,-0.40218 -0.23666,0 -1.21943,-0.54295 -2.18394,-1.20656 -0.96452,-0.6636 -1.86436,-1.20655 -1.99966,-1.20655 -0.13529,0 -0.63451,-0.36197 -1.10937,-0.80437 -0.47487,-0.44241 -1.10075,-0.80437 -1.39083,-0.80437 -0.2901,0 -0.52745,-0.1504 -0.52745,-0.33422 0,-0.18382 -0.4977,-0.59103 -1.106,-0.90491 -0.60831,-0.31389 -1.45685,-0.88742 -1.88567,-1.27452 -0.42881,-0.38711 -1.01701,-0.70382 -1.3071,-0.70382 -0.29009,0 -0.52744,-0.18099 -0.52744,-0.40219 0,-0.2212 -0.23735,-0.40219 -0.52744,-0.40219 -0.29009,0 -0.88751,-0.31671 -1.32758,-0.70382 -0.44008,-0.3871 -1.19813,-0.93005 -1.68457,-1.20655 -0.48645,-0.2765 -1.28244,-0.72896 -1.76888,-1.00546 -0.48644,-0.2765 -1.22566,-0.8019 -1.64271,-1.16755 -0.97988,-0.85912 -2.99433,-1.17511 -8.95321,-1.40438 l -4.84432,-0.18639 -1.28534,1.22834 c -0.70693,0.67559 -1.52237,1.22834 -1.81209,1.22834 -0.74278,0 -2.69114,-0.94501 -2.6949,-1.3071 -0.006,-0.63397 -2.30423,-0.26469 -3.12797,0.50273 -0.47486,0.4424 -1.03685,0.80437 -1.24887,0.80437 -0.21202,0 -0.44581,0.14227 -0.51955,0.31616 -0.35617,0.83999 -2.81004,2.09695 -4.09371,2.09695 -0.7823,0 -1.534221,0.18098 -1.670928,0.40218 -0.136714,0.2212 -1.293198,0.40218 -2.569977,0.40218 -2.126128,0 -2.369361,-0.093 -2.891461,-1.106 -0.313529,-0.6083 -0.660829,-1.1965 -0.771783,-1.3071 -0.110954,-0.1106 -0.421601,-0.59567 -0.690331,-1.07793 -0.422867,-0.75886 -0.274074,-1.29388 1.106007,-3.97685 0.877036,-1.70502 1.594608,-3.24084 1.594608,-3.41295 0,-0.1721 -0.542954,-0.55324 -1.206554,-0.84698 -0.663608,-0.29375 -1.206555,-0.67088 -1.206555,-0.83809 0,-0.1672 -0.361967,-0.304 -0.804367,-0.304 -0.442408,0 -0.805784,-0.13574 -0.807512,-0.30164 -0.0016,-0.1659 -0.408932,-0.49542 -0.904914,-0.73227 -3.67229,-1.75363 -8.374949,-4.37615 -8.84412,-4.93206 -0.311029,-0.36854 -1.436498,-2.66088 -2.501043,-5.09411 -1.064545,-2.43321 -2.606686,-5.87189 -3.426987,-7.6415 -0.8203,-1.76961 -1.744126,-3.80567 -2.052957,-4.52457 -0.308823,-0.71891 -0.788792,-1.30711 -1.0666,-1.30711 -0.2778,0 -0.505099,-0.18098 -0.505099,-0.40218 0,-0.2212 -0.542947,-0.40218 -1.206555,-0.40218 -0.663599,0 -1.206546,-0.16897 -1.206546,-0.37548 0,-0.2065 -0.479451,-0.43274 -1.065445,-0.50273 -1.203067,-0.1437 -2.292703,-1.51398 -1.448211,-1.82122 1.0614,-0.38614 0.139612,-1.90081 -1.335545,-2.19454 -0.641089,-0.12765 -0.497622,-0.34485 0.825628,-1.24993 2.982572,-2.04002 6.180436,-1.35433 9.769634,2.0948 1.166517,1.12099 2.253597,2.03818 2.415729,2.03818 0.388467,0 1.295005,-2.93513 1.295005,-4.19287 0,-0.54344 0.18098,-1.09992 0.40218,-1.23663 0.221208,-0.13671 0.402188,-0.76603 0.402188,-1.39849 0,-1.65686 0.384462,-2.42226 1.216691,-2.42226 1.718335,0 2.000785,-0.40671 2.000785,-2.88107 v -2.39281 l 1.299736,0.72656 c 0.714856,0.39961 1.530347,0.94093 1.812208,1.20294 0.281861,0.26202 0.828129,0.58362 1.213921,0.71468 0.385792,0.13105 1.96832,1.49872 3.516735,3.03925 l 2.815289,2.80096 2.286381,0.003 c 2.697502,0.004 4.282255,0.52289 4.599255,1.50563 0.67333,2.08748 1.90302,4.97289 2.19665,5.15437 0.18499,0.11432 0.66042,0.0344 1.05651,-0.17766 0.39611,-0.21204 1.48477,-0.66732 2.41925,-1.01175 1.60983,-0.59332 1.72073,-0.58574 2.11147,0.14437 0.22683,0.42382 0.4124,1.02616 0.4124,1.33852 0,0.31235 0.28474,1.13867 0.63274,1.83626 0.6273,1.25748 1.50303,1.64028 1.98147,0.86617 0.1367,-0.22121 0.95113,-0.40219 1.80982,-0.40219 0.8587,0 1.66131,-0.16187 1.78358,-0.3597 0.12227,-0.19784 0.99261,-0.47744 1.93411,-0.62134 6.60046,-1.00886 7.94566,-0.69184 7.94566,1.87254 v 1.55997 l 2.51366,-0.11974 2.51366,-0.11973 0.11657,-3.30387 0.11659,-3.30387 1.41538,0.67495 c 0.8658,0.41287 1.52327,0.52449 1.69325,0.28748 0.15282,-0.2131 0.83687,-0.69717 1.52011,-1.07571 1.43007,-0.79232 2.17632,-0.38177 2.17632,1.19731 0,1.31368 -0.66676,2.43817 -2.47697,4.17742 -0.84968,0.81637 -1.54487,1.76998 -1.54487,2.11912 0,0.34915 -0.23475,0.63481 -0.52166,0.63481 -0.28691,0 -1.22855,0.72393 -2.09255,1.60874 -1.5652,1.60292 -1.58213,1.60873 -4.683,1.60873 -1.71166,0 -3.22398,0.18099 -3.36068,0.40219 -0.13713,0.22188 -1.94017,0.40218 -4.02184,0.40218 -2.08169,0 -3.88473,0.1803 -4.02186,0.40219 -0.13683,0.22141 -1.92747,0.40219 -3.98378,0.40219 -3.72007,0 -6.58511,0.77661 -6.05131,1.6403 0.12598,0.20384 3.02361,0.37062 6.43918,0.37062 h 6.21012 v 1.35642 c 0,1.4032 0.27747,1.71912 5.21601,5.93869 l 1.7128,1.46344 1.513,-0.80759 1.513,-0.8076 1.71877,1.66801 c 1.70434,1.654 1.72502,1.6613 2.463,0.86917 0.40933,-0.43937 0.74424,-0.90984 0.74424,-1.04549 0,-0.13564 0.22624,-0.48498 0.50274,-0.7763 0.95373,-1.00484 1.91037,-2.23801 1.91037,-2.46258 0,-0.49807 1.08691,-1.26255 2.21908,-1.5608 0.65971,-0.17379 2.5776,-0.39693 4.26195,-0.49586 2.69759,-0.15843 3.09181,-0.0926 3.30878,0.55287 0.13548,0.40301 1.52109,2.72355 3.07914,5.15677 1.55805,2.43322 2.95571,4.6955 3.10589,5.02731 0.15019,0.3318 0.42161,0.78426 0.60317,1.00546 0.80369,0.97921 3.53122,5.4941 3.53122,5.84525 0,0.21373 0.18098,0.38861 0.40218,0.38861 0.2212,0 0.40218,0.23735 0.40218,0.52744 0,0.29009 0.31673,0.8875 0.70383,1.32757 1.09194,1.24137 1.7692,2.56902 1.3105,2.56902 -0.22307,0 -0.40558,0.36197 -0.40558,0.80437 0,0.4424 -0.18099,0.80437 -0.40219,0.80437 -0.2212,0 -0.40218,0.36196 -0.40218,0.80437 0,0.4424 -0.18099,0.80436 -0.40219,0.80436 -0.2212,0 -0.40219,0.36197 -0.40219,0.80437 0,0.44241 -0.18098,0.80438 -0.40218,0.80438 -0.2212,0 -0.40218,0.36196 -0.40218,0.80436 0,0.4424 -0.18098,0.80437 -0.40218,0.80437 -0.22121,0 -0.40219,0.36197 -0.40219,0.80437 0,0.44241 -0.18099,0.80437 -0.40219,0.80437 -0.2212,0 -0.40218,0.36196 -0.40218,0.80437 0,0.4424 -0.18098,0.80437 -0.40218,0.80437 -0.2212,0 -0.40219,0.36196 -0.40219,0.80436 0,0.88676 -0.17663,0.91691 -1.50819,0.25744 z" style="fill:#3088d4;fill-opacity:1;stroke-width:0.40218455"/>
    <path id="path63" d="m 116.37392,171.43401 c -2.66746,-2.49004 -2.37797,-2.80069 2.61791,-2.80932 l 3.56537,-0.006 -0.71822,1.10601 c -0.39502,0.60831 -1.09451,1.69196 -1.55444,2.40812 -0.45993,0.71617 -1.04331,1.30437 -1.29641,1.30711 -0.25311,0.002 -1.42949,-0.89986 -2.61421,-2.00577 z" style="fill:#3088d4;fill-opacity:1;stroke-width:0.40218455"/>
    <path id="path65" d="m 120.85596,163.7636 c 0,-1.56335 0.81285,-2.38438 2.36064,-2.38438 0.66634,0 1.32339,-0.18099 1.4601,-0.40219 0.13672,-0.2212 0.67967,-0.40219 1.20656,-0.40219 0.52689,0 1.06984,-0.18098 1.20655,-0.40218 0.44188,-0.71497 1.66804,-0.42709 2.14133,0.50273 0.25333,0.4977 0.74558,1.29507 1.09389,1.77192 0.58916,0.80656 0.57028,0.92571 -0.27079,1.70928 -0.79646,0.74202 -1.39778,0.84228 -5.05119,0.84228 h -4.14709 z" style="fill:#3088d4;fill-opacity:1;stroke-width:0.40218455"/>
    <path id="path67" d="m 108.85195,171.4872 c -1.04908,-0.90987 -1.10604,-1.59642 -0.16208,-1.95387 0.3871,-0.14658 0.94298,-0.50287 1.23528,-0.79174 0.7589,-0.75002 1.32114,-0.64968 1.56403,0.27913 0.11568,0.4424 0.37021,0.80437 0.56562,0.80437 0.52281,0 0.43239,1.37075 -0.12735,1.93048 -0.70882,0.70882 -2.0875,0.58852 -3.0755,-0.26837 z" style="fill:#3088d4;fill-opacity:1;stroke-width:0.40218455"/>
    <path id="path69" d="m 131.41732,144.63391 c -0.26356,-0.64645 -1.44902,-2.6918 -4.63036,-7.98905 -0.39854,-0.6636 -0.83126,-1.52327 -0.96161,-1.91037 -0.13035,-0.3871 -0.39687,-0.70382 -0.59227,-0.70382 -0.19541,0 -0.35528,-0.28441 -0.35528,-0.63201 0,-0.3476 -0.26379,-0.89579 -0.58619,-1.21819 -0.75045,-0.75045 -0.47352,-1.44489 0.90044,-2.25805 0.60136,-0.35592 1.5283,-1.02502 2.05985,-1.48691 1.08533,-0.94309 1.48157,-1.03185 1.86158,-0.41699 0.14372,0.23254 -0.20958,0.8592 -0.7851,1.39257 l -1.0464,0.96978 1.51266,2.42565 c 0.83195,1.33411 2.39414,3.79674 3.4715,5.47251 l 1.95886,3.04685 -0.71388,1.58311 c -0.95143,2.10989 -1.6891,2.7176 -2.0938,1.72492 z" style="fill:#3088d4;fill-opacity:1;stroke-width:0.40218455"/>
    <path id="path71" d="m 136.13896,136.09319 c 0,-0.19282 -0.89188,-1.71681 -1.98196,-3.38665 -1.64405,-2.51843 -1.87158,-3.07843 -1.33452,-3.28452 0.65695,-0.2521 2.46815,1.52304 2.49765,2.44793 0.008,0.24942 0.3048,0.69444 0.65964,0.98894 0.84089,0.69787 1.40488,2.21057 1.11035,2.97812 -0.24926,0.64953 -0.95116,0.83859 -0.95116,0.25618 z" style="fill:#3088d4;fill-opacity:1;stroke-width:0.40218455"/>
    <path id="path73" d="m 161.17495,135.9848 c -0.2765,-0.27845 -0.50273,-0.70546 -0.50273,-0.94893 0,-0.24346 -0.22623,-0.92979 -0.50273,-1.52516 -0.36656,-0.7893 -0.8023,-1.08336 -1.60873,-1.08565 -0.95514,-0.002 -1.10601,-0.16449 -1.10601,-1.18595 0,-0.65055 -0.18099,-1.29467 -0.40219,-1.43138 -0.2212,-0.13672 -0.40219,-0.96182 -0.40219,-1.83357 0,-1.30082 0.13997,-1.585 0.78064,-1.585 0.42935,0 0.89248,-0.18098 1.0292,-0.40219 0.13671,-0.2212 1.37033,-0.40218 2.74138,-0.40218 h 2.49281 l -0.14394,1.80983 c -0.0791,0.9954 -0.28848,1.80983 -0.46513,1.80983 -0.17665,0 -0.42197,0.76918 -0.54515,1.70929 -0.62067,4.73715 -0.8502,5.5897 -1.36523,5.07106 z" style="fill:#3088d4;fill-opacity:1;stroke-width:0.40218455"/>
    <path id="path75" d="m 138.46836,129.68006 c -0.30881,-0.37219 -1.0045,-1.35415 -1.54598,-2.18215 -1.04348,-1.59561 -2.15512,-1.91695 -3.57151,-1.0324 -0.60092,0.37528 -0.90346,0.36466 -1.40218,-0.0492 -0.34977,-0.29028 -0.63594,-0.6805 -0.63594,-0.86715 0,-0.34093 -2.84414,-4.97124 -3.61148,-5.87958 -0.2257,-0.26716 -0.41036,-0.64025 -0.41036,-0.82907 0,-0.18883 -0.31672,-0.70339 -0.70383,-1.14347 -1.60952,-1.82978 -1.71055,-2.37804 -0.59077,-3.20611 1.14807,-0.84899 3.39165,-2.64986 3.7077,-2.97609 0.1106,-0.11416 1.25809,-1.09519 2.54997,-2.18006 2.30949,-1.93943 2.34458,-2.00012 2.09253,-3.61966 -0.23885,-1.53471 -0.66674,-5.22444 -1.25681,-10.8377 -0.15727,-1.49605 -0.0865,-2.51436 0.19438,-2.79519 0.24298,-0.24297 0.44178,-0.76204 0.44178,-1.15347 0,-0.39144 0.36196,-1.35615 0.80437,-2.14381 0.4424,-0.78766 0.80436,-1.75238 0.80436,-2.14382 0,-0.39143 0.19639,-0.90808 0.43642,-1.14811 0.31375,-0.31376 0.25433,-0.78849 -0.21143,-1.68917 l -0.64783,-1.25276 h 1.39424 c 0.76683,0 1.50609,0.18098 1.64281,0.40218 0.1367,0.2212 1.50476,0.40218 3.04012,0.40218 1.59291,0 2.79155,0.17269 2.79155,0.40219 0,0.2212 0.54295,0.40218 1.20655,0.40218 0.93843,0 1.20656,-0.17875 1.20656,-0.80437 0,-0.4424 0.15835,-0.80436 0.35191,-0.80436 0.19355,0 0.45507,-0.49771 0.58116,-1.10601 0.27223,-1.31337 1.77409,-2.11147 3.97332,-2.11147 h 1.52856 v -2.79156 c 0,-1.53536 -0.18098,-2.9034 -0.40219,-3.04012 -0.2212,-0.1367 -0.40218,-1.30765 -0.40218,-2.6021 V 68.5463 l 2.51366,0.92234 c 5.65708,2.07576 6.68342,2.59329 10.05221,5.06877 l 3.51672,2.58419 -0.19139,4.62511 c -0.10526,2.54382 -0.3014,8.87823 -0.43587,14.07646 -0.23735,9.17528 -0.27184,9.48071 -1.18117,10.45681 -1.03932,1.11565 -1.28255,2.82325 -1.64697,11.5628 l -0.20544,4.92676 h -1.38466 -1.38466 v -4.02185 -4.02184 h -1.98718 c -1.09296,0 -2.09905,0.18098 -2.23576,0.40218 -0.13671,0.22121 -1.14279,0.40219 -2.23575,0.40219 -1.09295,0 -1.98718,0.18098 -1.98718,0.40219 0,0.2212 -0.89424,0.40217 -1.98719,0.40217 -1.09295,0 -2.09904,0.18099 -2.23575,0.40219 -0.13671,0.2212 -0.92574,0.40219 -1.75339,0.40219 -2.29358,0 -3.66922,0.79081 -3.67296,2.11147 -0.003,0.99528 -0.14406,1.10601 -1.41079,1.10601 -0.7742,0 -1.40765,0.18098 -1.40765,0.40218 0,0.2212 -0.27147,0.40218 -0.60327,0.40218 -0.69101,0 -0.86074,2.20652 -0.20109,2.6142 0.2212,0.13671 0.40218,0.88322 0.40218,1.65891 0,0.7757 0.18512,1.75625 0.41138,2.17902 0.29263,0.54679 0.26611,1.00127 -0.0919,1.57453 -0.70231,1.12458 -1.35499,1.2844 -2.01193,0.49264 z" style="fill:#3088d4;fill-opacity:1;stroke-width:0.40218455"/>
    <path id="path77" d="m 121.35868,111.68732 c -2.04036,-2.10082 -2.55039,-2.99428 -1.70928,-2.99428 0.2212,0 0.40218,-0.42398 0.40218,-0.94217 0,-0.62323 -0.60734,-1.44974 -1.79408,-2.44153 -1.60599,-1.34216 -1.76909,-1.63343 -1.55556,-2.77804 0.13119,-0.70327 0.39558,-1.45061 0.58754,-1.66075 0.60649,-0.66397 0.37902,-2.08029 -0.45538,-2.8354 -1.12107,-1.01457 -1.00495,-2.04163 0.40033,-3.54093 0.66258,-0.7069 1.20553,-1.42267 1.20655,-1.59059 8e-4,-0.16791 0.54481,-0.87343 1.20842,-1.56783 0.6636,-0.6944 1.20656,-1.46723 1.20656,-1.71739 0,-0.25016 0.36195,-0.71573 0.80436,-1.0346 0.82334,-0.59342 1.12662,-2.41311 0.40218,-2.41311 -0.2212,0 -0.40218,-0.54295 -0.40218,-1.20655 0,-0.6636 -0.18099,-1.20655 -0.40219,-1.20655 -0.22119,0 -0.40217,-0.19391 -0.40217,-0.43092 0,-0.52019 1.00894,-1.58001 1.50417,-1.58001 0.19529,0 0.70592,-0.32164 1.13473,-0.71475 0.42881,-0.39311 1.4131,-1.15357 2.18731,-1.68991 0.7742,-0.53633 1.49813,-1.07436 1.60874,-1.19562 0.69142,-0.75805 2.07961,-1.19603 2.71474,-0.85651 0.38711,0.20692 1.02054,0.47425 1.40765,0.59406 0.46359,0.14348 0.70382,0.62586 0.70382,1.41327 0,0.65749 0.18099,1.30729 0.40219,1.444 0.2212,0.13671 0.40218,0.59435 0.40218,1.01697 0,0.42262 0.35887,1.40734 0.7975,2.18827 0.43862,0.78094 0.65232,1.41988 0.47489,1.41988 -0.17744,0 -0.56903,0.90492 -0.87021,2.01093 -0.30118,1.106 -0.65634,2.01092 -0.78927,2.01092 -0.6388,0 -1.27889,3.73938 -1.04557,6.10824 0.13753,1.3963 0.34831,3.9866 0.46839,5.7562 0.12009,1.76962 0.38618,3.38941 0.5913,3.59956 0.97614,0.99998 0.17141,2.1387 -3.68637,5.21637 -0.53239,0.42472 -1.76263,1.46537 -2.73387,2.31255 -0.97126,0.84719 -1.96666,1.52682 -2.21202,1.5103 -0.24536,-0.0166 -1.39627,-1.00836 -2.55758,-2.20408 z" style="fill:#3088d4;fill-opacity:1;stroke-width:0.40218455"/>
    <path id="path79" d="m 99.46996,127.65051 c -0.6716,-1.40767 -1.85653,-3.26275 -2.63316,-4.12239 -1.33598,-1.47877 -1.53959,-1.56299 -3.77838,-1.56299 -2.24068,0 -2.36631,-0.0522 -2.36631,-0.98173 0,-0.53995 0.18099,-1.09357 0.40219,-1.23029 0.2212,-0.1367 0.40218,-0.62045 0.40218,-1.07498 0,-0.85128 1.57477,-4.04894 2.11147,-4.28748 0.1659,-0.0737 0.30164,-1.90075 0.30164,-4.06005 0,-4.42005 -0.43357,-5.25722 -2.72268,-5.25722 -0.68843,0 -1.36355,-0.18099 -1.50026,-0.40219 -0.13671,-0.2212 -0.62514,-0.40219 -1.0854,-0.40219 -1.04464,0 -1.9014,-1.08679 -1.91819,-2.43321 -0.007,-0.56406 -0.208633,-1.22141 -0.447996,-1.46078 -0.443618,-0.44361 0.03528,-1.65324 1.124936,-2.84167 0.26875,-0.29311 0.80547,-1.06929 1.19271,-1.72484 0.38725,-0.65555 0.84606,-1.19192 1.01956,-1.19192 0.17351,0 0.31547,-0.36196 0.31547,-0.80437 0,-0.4424 0.18099,-0.80437 0.40219,-0.80437 0.2212,0 0.40218,-0.36196 0.40218,-0.80436 0,-0.44241 0.18099,-0.80438 0.40219,-0.80438 0.2212,0 0.40218,-0.36196 0.40218,-0.80437 0,-0.44686 0.26813,-0.80436 0.60328,-0.80436 0.3318,0 0.60328,-0.18099 0.60328,-0.40219 0,-0.2212 0.72392,-0.40218 1.60873,-0.40218 0.88481,0 1.60874,-0.18099 1.60874,-0.40219 0,-1.12122 1.88548,-0.1057 4.48034,2.41311 1.59516,1.54841 3.1249,2.81529 3.3994,2.81529 0.27451,0 0.55943,0.14628 0.63317,0.32505 0.0737,0.17878 0.98109,0.90271 2.01635,1.60874 1.38816,0.9467 2.33089,1.28369 3.59111,1.28369 2.054,0 4.346,0.74207 5.21773,1.68932 0.65696,0.71387 0.60422,2.94401 -0.0796,3.36665 -0.1957,0.12094 -0.35582,0.74005 -0.35582,1.37579 0,0.87811 0.42499,1.50414 1.76839,2.60495 2.07765,1.70248 2.16332,3.02882 0.19564,3.02882 -0.87978,0 -1.15966,0.1884 -1.15966,0.78063 0,0.42935 -0.18098,0.89249 -0.40218,1.0292 -0.2212,0.13672 -0.40219,1.85605 -0.40219,3.82076 0,1.9647 0.18099,3.68404 0.40219,3.82075 0.2212,0.13671 0.40218,0.41887 0.40218,0.62702 0,0.50563 -1.49477,0.48602 -1.80983,-0.0237 -0.1367,-0.2212 -0.64509,-0.40078 -1.12974,-0.39905 -1.00819,0.004 -1.88664,1.53758 -1.88664,3.29452 0,1.0361 0.12249,1.12637 1.5283,1.12637 0.84057,0 1.74548,0.21718 2.01092,0.48262 0.63141,0.63141 0.61927,3.3099 -0.0201,4.43405 -1.02019,1.7937 -1.19518,1.83995 -7.50184,1.98278 l -6.12756,0.13878 z" style="fill:#3088d4;fill-opacity:1;stroke-width:0.40218455"/>
    <path id="path81" d="m 88.88228,116.73673 c -0.13671,-0.2212 -1.11645,-0.40219 -2.17719,-0.40219 -1.87214,0 -2.000047,-0.0795 -4.366414,-2.71474 -3.78471,-4.21471 -11.075446,-11.50725 -12.062544,-12.06554 -0.488887,-0.2765 -1.488583,-0.50273 -2.221555,-0.50273 -0.732964,0 -1.504596,-0.16565 -1.714735,-0.36812 -0.210148,-0.20247 -0.830995,-0.42871 -1.379675,-0.50274 -0.77258,-0.10424 -1.257023,-0.67892 -2.14766,-2.5477 -1.60781,-3.37361 -2.092772,-3.82076 -4.143778,-3.82076 -2.675828,0 -2.808146,0.1836 7.590672,-10.53223 2.098075,-2.16203 2.312562,-2.2899 2.312562,-1.37864 0,0.55243 0.18098,1.11627 0.402188,1.25298 0.2212,0.13671 0.402179,0.74242 0.402179,1.34603 0,0.60929 0.491969,1.68427 1.106008,2.41669 1.082692,1.2914 1.122968,1.30357 1.910375,0.57715 0.442407,-0.40814 1.437811,-1.18103 2.212015,-1.71752 0.774212,-0.5365 1.681061,-1.25551 2.015222,-1.59781 1.007212,-1.03172 2.329148,-1.62781 3.609909,-1.62781 0.666602,0 1.212009,0.18097 1.212009,0.40217 0,0.2212 0.284664,0.40219 0.632577,0.40219 0.34792,0 1.683322,1.12142 2.967562,2.49205 l 2.334983,2.49204 -0.67917,2.03254 c -0.793994,2.37618 -0.683056,3.34232 0.40373,3.51598 0.70117,0.11204 0.60824,0.37241 -0.87937,2.46388 -1.865281,2.62245 -1.962969,3.27143 -0.956616,6.35487 0.86963,2.66452 1.143926,3.02422 2.523646,3.30944 0.60119,0.12428 1.817,0.37279 2.70181,0.55225 l 1.60874,0.32629 0.11688,3.31659 c 0.11064,3.13936 0.0505,3.41307 -1.12533,5.12208 -1.25316,1.82142 -1.75399,2.13957 -2.20903,1.40331 z" style="fill:#3088d4;fill-opacity:1;stroke-width:0.40218455"/>
    <path id="path83" d="m 88.13469,91.33087 c 0.13788,-0.73667 0.40774,-1.51134 0.59968,-1.72149 0.81301,-0.89005 0.19352,-2.08675 -2.379839,-4.59725 -3.430124,-3.34634 -4.010799,-3.66764 -6.628251,-3.66764 -1.667308,0 -2.254346,0.17434 -2.708443,0.80437 -0.318864,0.4424 -0.784436,0.80436 -1.034597,0.80436 -0.250161,0 -0.985394,0.49771 -1.633857,1.10601 -2.322468,2.17867 -2.474263,2.2546 -3.152005,1.57686 -0.337975,-0.33797 -0.614493,-1.26085 -0.614493,-2.05086 0,-0.79 -0.18098,-1.43637 -0.40218,-1.43637 -0.221208,0 -0.402187,-0.99541 -0.402187,-2.21202 0,-1.21661 0.180979,-2.21201 0.402187,-2.21201 0.2212,0 0.40218,-0.80374 0.40218,-1.78609 0,-0.98236 0.180987,-1.89796 0.402187,-2.03466 0.2212,-0.13672 0.40218,-0.95114 0.40218,-1.80984 0,-0.8587 0.180987,-1.67312 0.402187,-1.80983 0.2212,-0.13671 0.402188,-0.58287 0.402188,-0.99147 0,-0.43073 0.844985,-1.34997 2.010921,-2.18761 3.067051,-2.20345 2.764231,-2.73492 -1.508195,-2.64704 -4.63757,0.0954 -4.524577,0.11563 -4.524577,-0.80992 0,-0.4424 -0.18098,-0.80437 -0.40218,-0.80437 -0.2212,0 -0.402187,-0.42778 -0.402187,-0.95062 0,-1.11307 -1.804852,-3.07122 -2.830777,-3.07122 -0.657835,0 -0.668608,-0.13807 -0.146246,-1.87376 0.310153,-1.03056 0.563913,-2.34083 0.563913,-2.91172 V 52.9987 l 1.005461,1.08434 c 0.553004,0.59639 1.005684,1.22799 1.005955,1.40354 2.7e-4,0.17555 0.444056,0.83495 0.986182,1.46531 0.923547,1.07387 1.120023,1.1294 3.116436,0.88066 1.171916,-0.146 3.968421,-0.35634 6.214469,-0.46741 l 4.083707,-0.20195 0.215865,2.13659 c 0.118726,1.17511 0.335467,2.80289 0.481656,3.61727 l 0.265792,1.4807 3.478323,0.1929 c 5.247305,0.291 6.309495,0.59111 9.838165,2.77966 3.01296,1.86869 3.33787,1.98114 4.50498,1.55911 1.66855,-0.60336 4.02091,-0.57841 4.51606,0.0479 0.85396,1.08013 0.8324,2.75282 -0.0471,3.65249 -0.47033,0.48114 -1.66958,1.86559 -2.66499,3.07656 -0.9954,1.21097 -2.48852,2.92872 -3.31802,3.81721 -1.45579,1.55932 -1.50819,1.71686 -1.50819,4.53347 0,2.82562 -0.0311,2.91803 -0.98173,2.91803 -0.53994,0 -1.09358,0.18098 -1.23028,0.40218 -0.13672,0.2212 -0.82608,0.40794 -1.53194,0.41497 -1.63087,0.0162 -2.35955,0.58206 -3.60481,2.79906 -1.26072,2.24455 -1.9864,2.57108 -1.64362,0.73958 z" style="fill:#3088d4;fill-opacity:1;stroke-width:0.40218455"/>
    <path id="path85" d="m 117.43739,72.57285 c -1.10601,-0.0686 -2.18286,-0.2948 -2.39301,-0.50274 -0.21014,-0.20792 -1.30508,-0.37805 -2.43321,-0.37805 -1.12813,0 -2.22308,-0.16808 -2.43322,-0.37351 -0.21014,-0.20543 -0.99727,-0.43166 -1.74916,-0.50273 -1.4005,-0.13238 -1.63045,-0.37849 -2.46924,-2.64287 -0.48004,-1.29588 -0.50728,-1.30711 -3.17026,-1.30711 -1.47733,0 -2.88695,0.20089 -3.13247,0.44642 -0.3271,0.3271 -0.91295,0.13569 -2.19191,-0.71612 -0.96002,-0.63939 -2.27877,-1.42848 -2.93055,-1.75351 -1.53096,-0.76348 -3.84225,-3.06251 -3.84225,-3.82187 0,-0.32443 0.33416,-0.58987 0.74258,-0.58987 0.40842,0 1.31333,-0.28473 2.01092,-0.63273 1.18946,-0.59338 1.26835,-0.76848 1.26835,-2.81529 v -2.18256 h 1.98718 c 1.09296,0 2.09904,0.18098 2.23576,0.40218 0.40153,0.64971 2.50116,0.47249 2.77225,-0.23398 0.13427,-0.3499 0.24413,-1.21644 0.24413,-1.92566 0,-0.98522 0.45077,-1.76863 1.91037,-3.32008 1.86447,-1.98179 1.92899,-2.01284 2.68457,-1.29182 0.42581,0.40633 1.014,0.73878 1.3071,0.73878 0.2931,0 0.53291,0.18098 0.53291,0.40218 0,0.69054 1.00164,0.44012 1.60874,-0.40218 0.59343,-0.82334 2.4131,-1.12663 2.4131,-0.40219 0,0.2212 0.51032,0.40219 1.13403,0.40219 0.70929,0 1.46246,0.37772 2.01092,1.00852 0.7516,0.86441 0.8769,1.49176 0.8769,4.39051 0,2.20934 0.16187,3.43595 0.46682,3.5376 0.2938,0.0979 0.43907,1.00474 0.39195,2.44663 -0.0439,1.34577 0.0953,2.29101 0.33756,2.29101 0.22683,0 0.41241,0.51514 0.41241,1.14476 0,1.85427 1.11249,3.68145 2.24147,3.68145 0.76665,0 0.976,0.21058 0.976,0.98173 0,0.53995 -0.18097,1.09358 -0.40217,1.23029 -0.22121,0.13671 -0.40219,0.56525 -0.40219,0.95233 0,1.3524 -0.89757,1.86965 -3.01638,1.73829 z" style="fill:#3088d4;fill-opacity:1;stroke-width:0.40218455"/>
    <path id="path87" d="m 83.45279,61.71789 c 0,-0.61937 -0.170127,-1.29806 -0.378053,-1.5082 -0.207933,-0.21014 -0.434158,-1.28699 -0.502734,-2.39299 l -0.124674,-2.01093 h -4.424031 c -2.433215,0 -5.331931,0.14691 -6.441593,0.32647 l -2.017571,0.32646 -1.694606,-2.45576 c -1.647497,-2.38748 -1.687653,-2.52236 -1.444253,-4.85104 0.137693,-1.31741 0.382933,-2.39528 0.544969,-2.39528 0.162044,0 0.403207,-0.54296 0.535932,-1.20656 0.169927,-0.84964 0.475199,-1.20655 1.031993,-1.20655 0.434883,0 0.902549,-0.18098 1.039255,-0.40219 0.136714,-0.2212 0.599849,-0.40218 1.029198,-0.40218 0.429349,0 0.78063,-0.18098 0.78063,-0.40218 0,-0.2212 0.361967,-0.40218 0.804375,-0.40218 0.4424,0 0.804367,-0.18099 0.804367,-0.40219 0,-0.2212 0.742026,-0.40219 1.648954,-0.40219 1.339041,0 1.905964,0.25701 3.016383,1.36743 0.752091,0.75208 1.367651,1.52126 1.367921,1.70929 7.25e-4,0.51683 1.844817,2.55387 2.311958,2.55387 0.224966,0 0.509471,-0.31673 0.632234,-0.70382 0.298407,-0.94096 1.60449,-3.08318 1.98208,-3.251 0.165898,-0.0737 0.301633,-0.48094 0.301633,-0.90491 0,-0.42397 0.180987,-0.77086 0.402187,-0.77086 0.2212,0 0.402188,-0.36197 0.402188,-0.80437 0,-0.72701 0.268117,-0.80436 2.788178,-0.80436 2.33798,0 2.82553,0.1176 3.01937,0.72836 0.12715,0.40059 0.84763,1.32585 1.60109,2.05613 1.3352,1.29413 2.24379,1.37841 2.24379,0.20815 0,-0.31874 0.18098,-0.57953 0.40218,-0.57953 0.22121,0 0.40219,-0.36197 0.40219,-0.80438 0,-0.44687 0.26812,-0.80437 0.60327,-0.80437 0.3318,0 0.60328,-0.18098 0.60328,-0.40218 0,-0.2212 0.27148,-0.40218 0.60327,-0.40218 0.33516,0 0.60328,0.35749 0.60328,0.80436 0,0.4424 0.18098,0.80437 0.40218,0.80437 0.22121,0 0.40219,0.36197 0.40219,0.80438 0,0.58468 0.26813,0.80436 0.98173,0.80436 0.53995,0 1.09357,-0.18098 1.23029,-0.40218 0.1367,-0.2212 0.87735,-0.40218 1.64588,-0.40218 1.05366,0 1.73461,0.33729 2.76875,1.37143 0.7543,0.7543 1.92465,1.69823 2.60079,2.09764 0.67615,0.3994 1.22936,0.95865 1.22936,1.24276 0,0.75316 -0.71361,0.63246 -1.70139,-0.28781 -1.38793,-1.29305 -2.36695,-0.98604 -4.8467,1.51986 -1.9282,1.94854 -2.29997,2.5545 -2.29997,3.74885 v 1.42464 l -2.71475,-0.33749 c -4.18062,-0.51971 -4.52457,-0.34387 -4.52457,2.31307 v 2.21864 l -1.81837,0.77944 c -2.05551,0.8811 -2.50882,1.62049 -1.86279,3.03838 L 89.8705,62.844 h -3.20886 -3.20885 z" style="fill:#3088d4;fill-opacity:1;stroke-width:0.40218455"/>
    <path id="path89" d="m 80.738048,44.85156 c -0.276502,-0.0951 -0.502958,-0.38404 -0.50322,-0.64211 -7.97e-4,-0.61272 -1.575099,-2.34369 -2.71315,-2.98287 -1.387335,-0.77919 -4.691264,-0.62188 -6.335512,0.30164 -0.787661,0.4424 -1.698085,0.80437 -2.023161,0.80437 -0.325075,0 -0.591042,0.18098 -0.591042,0.40219 0,0.2212 -0.271477,0.40218 -0.603273,0.40218 -0.383897,0 -0.603281,-0.38609 -0.603281,-1.06167 0,-1.36074 -1.023688,-2.12686 -2.863536,-2.14302 -1.425358,-0.0125 -1.460171,-0.0508 -1.660461,-1.82779 -0.122158,-1.0838 0.03384,-2.50152 0.387194,-3.51911 0.840239,-2.41966 0.481601,-4.81685 -1.293461,-8.64556 -1.772809,-3.82387 -2.708595,-4.52082 -6.070047,-4.52082 -1.169576,0 -2.238349,-0.18098 -2.375055,-0.40218 -0.136714,-0.22121 -1.313098,-0.40219 -2.614203,-0.40219 -1.301097,0 -2.477489,-0.18098 -2.614195,-0.40219 -0.306761,-0.49634 -6.504293,-0.53855 -6.808482,-0.0463 -0.24899,0.40288 -2.641849,0.83667 -2.644716,0.47945 -7.96e-4,-0.12759 -0.543974,-0.81037 -1.206555,-1.51727 -0.66258,-0.70691 -1.204691,-1.38716 -1.204691,-1.51167 0,-0.20934 -1.507224,-2.01863 -2.736194,-3.28458 -0.434246,-0.44731 0.16949,-1.22877 3.519117,-4.55506 2.223809,-2.20831 4.043287,-4.29289 4.043287,-4.6324 0,-0.33951 0.180988,-0.61729 0.402188,-0.61729 0.2212,0 0.402187,-0.36197 0.402187,-0.80437 0,-0.44241 0.18098,-0.80437 0.40218,-0.80437 0.2212,0 0.402187,-0.36196 0.402187,-0.80437 0,-0.69584 0.268125,-0.80437 1.987185,-0.80437 1.092956,0 2.099038,-0.18098 2.235752,-0.40218 0.136707,-0.2212 0.679661,-0.40218 1.206555,-0.40218 0.526894,0 1.069841,-0.18099 1.206555,-0.40219 0.136706,-0.2212 0.65414,-0.40219 1.149851,-0.40219 0.495711,0 1.094007,-0.19272 1.329548,-0.42827 0.281129,-0.28112 2.001502,-0.34825 5.007198,-0.19539 2.518418,0.12808 7.022205,0.33073 10.008424,0.45033 2.986227,0.11961 5.601425,0.38852 5.811573,0.59758 0.210139,0.20907 0.798331,0.38013 1.307093,0.38013 0.554127,0 0.925029,0.24188 0.925029,0.60327 0,0.3318 -0.18098,0.60328 -0.402188,0.60328 -0.2212,0 -0.40218,0.35128 -0.40218,0.78063 0,0.42935 -0.180987,0.89248 -0.402187,1.0292 -0.2212,0.1367 -0.40218,0.59985 -0.40218,1.0292 0,0.42935 -0.180987,0.78063 -0.402187,0.78063 -0.2212,0 -0.402188,0.35129 -0.402188,0.78063 0,0.42935 -0.180979,0.89249 -0.402179,1.0292 -0.221208,0.13671 -0.402188,0.62387 -0.402188,1.08257 0,0.86733 1.022533,1.94091 2.915836,3.06142 0.608306,0.36001 1.106008,0.79652 1.106008,0.97003 0,0.45947 1.517193,0.38678 1.809835,-0.0867 0.136707,-0.2212 0.69034,-0.40219 1.230284,-0.40219 0.756288,0 0.981732,0.21242 0.981732,0.92503 0,0.50876 0.163429,1.09696 0.363185,1.3071 0.199756,0.21014 0.462713,1.1965 0.584354,2.1919 0.273571,2.23881 0.918347,5.89734 1.275847,7.23932 0.147313,0.55301 1.262502,1.80878 2.478182,2.7906 2.572368,2.07752 3.530978,3.28176 5.462268,6.86183 0.90558,1.67872 1.29766,2.83009 1.09565,3.21748 -0.17302,0.3318 -0.51102,1.10098 -0.75111,1.70929 -0.41331,1.0472 -0.57452,1.10601 -3.03196,1.10601 -2.376929,0 -2.660136,0.0931 -3.364019,1.106 -0.422724,0.60831 -1.022175,1.6942 -1.332121,2.41311 -0.309938,0.7189 -0.687059,1.3071 -0.83805,1.3071 -0.150984,0 -0.33303,0.2437 -0.404553,0.54156 -0.07151,0.29786 -0.356257,0.46375 -0.632759,0.36867 z" style="fill:#ff9800;fill-opacity:1;stroke-width:0.40218455"/>
    <path id="path91" d="m 113.04546,47.61294 c -0.11905,-0.19264 -0.71793,-0.45417 -1.33084,-0.5812 -0.61291,-0.12702 -2.37662,-1.40994 -3.91937,-2.85092 -2.79768,-2.61313 -2.81178,-2.62027 -5.41273,-2.73683 -2.40881,-0.10794 -2.62559,-0.19357 -2.84163,-1.12232 -0.19507,-0.83871 -0.50237,-1.02538 -1.85278,-1.1255 -1.31285,-0.0973 -1.82308,0.0841 -2.69872,0.95975 -0.59389,0.59389 -1.08064,1.28135 -1.08166,1.52769 -8e-4,0.24634 -0.54397,-0.13049 -1.20656,-0.83741 -1.16636,-1.24439 -1.53733,-2.13328 -0.89031,-2.13328 0.17291,0 0.55261,-0.80682 0.84378,-1.79294 0.4875,-1.65107 0.46263,-1.88672 -0.31438,-2.97792 -0.46408,-0.65174 -0.84378,-1.38327 -0.84378,-1.62563 0,-0.24235 -0.13829,-0.44064 -0.30731,-0.44064 -0.16902,0 -0.6353,-0.75708 -1.03618,-1.6824 -0.64971,-1.49969 -5.608279,-6.73494 -6.39856,-6.7556 -0.165898,-0.004 -0.30164,-0.46034 -0.30164,-1.01334 0,-0.553 -0.18098,-1.00546 -0.40218,-1.00546 -0.221208,0 -0.402187,-0.89424 -0.402187,-1.98719 0,-1.09295 -0.18098,-2.09903 -0.402188,-2.23575 -0.2212,-0.1367 -0.40218,-1.14279 -0.40218,-2.23575 0,-1.09295 -0.180987,-1.98718 -0.402187,-1.98718 -0.2212,0 -0.402188,-0.54295 -0.402188,-1.20656 v -1.20655 h -2.627604 c -2.466731,0 -2.713786,-0.0862 -4.035253,-1.40764 -0.774203,-0.77422 -1.220625,-1.40765 -0.992051,-1.40765 0.228574,0 0.415589,-0.36197 0.415589,-0.80437 0,-0.44241 0.180988,-0.80437 0.402187,-0.80437 0.2212,0 0.40218,-0.36196 0.40218,-0.80437 0,-0.4424 0.180988,-0.80437 0.402188,-0.80437 0.221199,0 0.402187,-0.35129 0.402187,-0.78064 0,-0.42934 0.18098,-0.89248 0.40218,-1.02919 0.2212,-0.13671 0.402187,-0.58476 0.402187,-0.99568 0,-1.08734 0.85552,-1.19986 1.829257,-0.24058 0.465652,0.45874 1.449621,1.28653 2.186582,1.83954 0.73697,0.553 1.569828,1.23169 1.850797,1.50819 0.317288,0.31223 1.655715,0.50273 3.53224,0.50273 1.661754,0 3.133224,0.18099 3.269934,0.40219 0.13671,0.2212 0.73617,0.40218 1.33215,0.40218 0.68278,0 1.50478,0.44627 2.22236,1.20655 1.10859,1.17455 1.23924,1.20655 4.92546,1.20655 h 3.78666 v 2.59047 c 0,1.42475 -0.18099,2.70232 -0.40219,2.83903 -0.2212,0.13671 -0.40218,0.86064 -0.40218,1.60874 0,0.74809 -0.18098,1.47203 -0.40218,1.60873 -0.68271,0.42194 -0.45585,2.84315 0.3333,3.55733 0.40453,0.36609 0.87429,0.66561 1.04393,0.66561 0.16963,0 0.78882,0.34078 1.37597,0.75728 2.41808,1.7153 4.19096,2.51403 4.62246,2.08254 0.23469,-0.23469 0.92279,-0.42671 1.52909,-0.42671 0.60632,0 1.21424,-0.18098 1.35095,-0.40219 0.13671,-0.2212 0.78083,-0.40218 1.43138,-0.40218 0.65055,0 1.18282,-0.18099 1.18282,-0.40219 0,-0.2212 0.27148,-0.40218 0.60327,-0.40218 0.94504,0 0.70728,1.37326 -0.40524,2.34058 -0.55469,0.48229 -1.14288,0.87774 -1.30709,0.87876 -0.16422,7.9e-4 -0.84153,0.50861 -1.50514,1.12799 -0.6636,0.61937 -1.52327,1.2463 -1.91038,1.39316 -1.25469,0.47604 -0.81547,1.78679 0.92685,2.76603 l 1.63067,0.9165 -1.22849,1.07258 c -0.79952,0.69806 -1.22848,1.45032 -1.22848,2.15436 0,1.16218 0.8107,2.23087 1.69232,2.23087 0.29877,0 0.8041,0.36197 1.12297,0.80437 0.31887,0.4424 0.81885,0.80436 1.11106,0.80436 0.29222,0 0.91984,0.36197 1.3947,0.80438 0.47487,0.4424 1.10074,0.80437 1.39083,0.80437 0.29009,0 0.52744,0.18098 0.52744,0.40218 0,0.2212 0.23735,0.40218 0.52744,0.40218 0.2901,0 0.91597,0.36197 1.39083,0.80437 0.47487,0.44241 1.03113,0.80438 1.23614,0.80438 0.20501,0 0.65322,0.42806 0.99603,0.95125 0.64131,0.97877 0.28386,1.86403 -0.75266,1.86403 -0.25475,0 -1.03133,0.54295 -1.72573,1.20656 -0.90358,0.86351 -1.65706,1.20655 -2.65011,1.20655 -0.76317,0 -1.48498,-0.1576 -1.60403,-0.35023 z" style="fill:#3088d4;fill-opacity:1;stroke-width:0.40218455"/>
    <path id="path93" d="m 147.62283,43.57409 c -0.15687,-0.25381 -1.57582,-0.43713 -3.38348,-0.43713 -1.71231,0 -3.28523,-0.17105 -3.49537,-0.3801 -0.21015,-0.20906 -1.44717,-0.43529 -2.74895,-0.50274 l -2.36688,-0.12263 -1.05169,-1.97185 c -0.75486,-1.41533 -0.9098,-2.02073 -0.54897,-2.14499 0.2765,-0.0952 0.50274,-0.52001 0.50274,-0.94397 0,-0.42398 0.18098,-0.77086 0.40218,-0.77086 0.90228,0 0.29667,-0.89561 -1.43338,-2.11976 -2.28405,-1.61615 -4.0331,-1.91092 -12.83752,-2.16356 -3.75677,-0.1078 -6.92397,-0.31929 -7.03823,-0.46999 -0.30325,-0.39997 -2.50578,-1.69474 -3.32468,-1.95444 -0.38709,-0.12276 -0.69682,-0.33783 -0.68826,-0.47794 0.009,-0.14009 1.28334,-1.15916 2.83286,-2.26457 l 2.8173,-2.00985 -0.11811,-2.00823 c -0.12858,-2.18615 -0.80174,-2.69699 -2.48353,-1.88464 -0.46863,0.22636 -1.30452,0.50309 -1.85752,0.61497 -0.553,0.11187 -1.72358,0.38681 -2.60128,0.61097 -1.39339,0.35588 -1.82703,0.28095 -3.41857,-0.59072 -1.00251,-0.54906 -2.23316,-1.31127 -2.73478,-1.69378 l -0.91203,-0.6955 0.66884,-2.71029 c 0.56056,-2.27157 0.94138,-2.95402 2.3525,-4.21585 3.19583,-2.85771 3.30612,-2.91319 5.7921,-2.91319 2.2999,0 2.37987,-0.0375 3.41398,-1.60011 0.58239,-0.88006 1.0589,-1.78498 1.0589,-2.01092 0,-0.22595 0.18098,-0.41081 0.40218,-0.41081 0.2212,0 0.40219,-0.36197 0.40219,-0.80437 0,-0.4424 0.18098,-0.80437 0.40218,-0.80437 0.66189,0 0.43892,-1.33783 -0.40218,-2.41311 -0.43257,-0.553 -0.79051,-1.23169 -0.79542,-1.50819 -0.005,-0.2765 -0.18993,-0.50273 -0.41113,-0.50273 -0.2212,0 -0.40219,-0.36196 -0.40219,-0.80436 0,-0.44241 -0.15987,-0.80438 -0.35528,-0.80438 -0.1954,0 -0.45571,-0.31671 -0.57848,-0.70382 -0.25408,-0.8012 -1.54916,-3.01547 -1.94063,-3.31802 -0.1431,-0.11061 -0.32409,-0.59729 -0.40218,-1.08153 -0.15353,-0.95198 2.20301,-3.74469 3.15983,-3.74469 0.29141,0 0.8441,-0.15986 1.22821,-0.35525 0.38409,-0.1954 1.24131,-0.57848 1.90491,-0.8513 0.66361,-0.27282 1.52082,-0.6559 1.90492,-0.85129 0.3841,-0.1954 0.87987,-0.35526 1.1017,-0.35526 0.22183,0 2.15229,1.7124 4.28992,3.80533 4.30597,4.21596 3.73638,3.98153 10.80515,4.4471 2.90823,0.19155 4.3762,0.066 7.44041,-0.63639 2.09956,-0.48127 4.46354,-1.00413 5.25331,-1.16193 1.64334,-0.32836 5.16098,-2.76249 5.18442,-3.58752 0.0131,-0.46173 0.12154,-0.46414 0.66307,-0.0147 0.40499,0.33611 0.48028,0.59297 0.20109,0.68603 -0.24546,0.0818 -0.44628,0.76713 -0.44628,1.5229 0,0.75577 -0.18099,1.37413 -0.40219,1.37413 -0.2212,0 -0.40219,0.54295 -0.40219,1.20655 0,0.6636 -0.18098,1.20656 -0.40218,1.20656 -0.75185,0 -0.44246,3.02257 0.40218,3.92919 0.44241,0.47486 0.80438,1.14243 0.80438,1.48348 0,0.34105 0.18098,0.62009 0.40218,0.62009 0.2212,0 0.40218,0.2844 0.40218,0.63201 0,0.3476 0.27652,0.90852 0.6145,1.24649 0.63771,0.63772 0.9476,0.51846 2.52958,-0.97358 0.29318,-0.2765 0.69287,-0.50273 0.88822,-0.50273 0.19535,0 0.77062,-0.41115 1.27837,-0.91366 0.50776,-0.50252 1.46982,-1.29967 2.13792,-1.77144 1.09466,-0.773 1.29341,-0.7987 2.01092,-0.26011 0.43791,0.32871 1.48767,0.89963 2.33281,1.2687 1.41023,0.61586 1.51481,0.77027 1.27161,1.8776 -0.14574,0.6636 -0.35378,2.3112 -0.4623,3.66134 -0.19537,2.43043 -0.16287,2.5236 3.2768,9.39396 3.14772,6.28721 3.87049,8.26213 2.53492,6.92657 -0.26176,-0.26175 -0.97199,-0.47592 -1.57829,-0.47592 -0.60632,0 -1.21424,-0.18098 -1.35095,-0.40218 -0.13671,-0.22121 -0.83288,-0.40219 -1.54705,-0.40219 -1.02596,0 -1.71417,0.42204 -3.27917,2.01092 -1.77552,1.80264 -2.16227,2.01092 -3.73382,2.01092 -1.98201,0 -2.90222,0.67862 -2.90222,2.14027 0,1.39076 -0.95398,1.59899 -2.03821,0.44489 -1.09528,-1.16587 -1.98364,-1.26498 -1.98364,-0.22129 0,0.41532 -0.27147,0.98043 -0.60327,1.2558 -0.41681,0.34592 -0.60328,0.36114 -0.60328,0.0492 0,-0.27907 -0.84459,-0.45143 -2.21202,-0.45143 -1.94389,0 -2.21201,0.0975 -2.21201,0.80437 0,0.4424 -0.18098,0.80437 -0.40218,0.80437 -0.22121,0 -0.40219,0.9954 -0.40219,2.21202 0,1.2166 0.18098,2.21201 0.40219,2.21201 0.2212,0 0.40218,0.36197 0.40218,0.80437 0,0.4424 0.18099,0.80436 0.40219,0.80436 0.2212,0 0.40218,0.27393 0.40218,0.60874 0,0.59064 0.16812,1.01762 1.14376,2.90493 0.25574,0.4947 0.46498,1.22837 0.46498,1.63038 0,0.9515 -2.62854,3.5272 -2.99478,2.9346 z" style="fill:#3088d4;fill-opacity:1;stroke-width:0.40218455"/>
    <path id="path95" d="m 123.06796,52.34241 c -6.35363,-2.41073 -6.49458,-2.53659 -4.77132,-4.25985 0.72927,-0.72927 1.60346,-1.32594 1.94263,-1.32594 0.33917,0 0.61669,-0.15988 0.61669,-0.35528 0,-0.1954 0.36195,-0.44993 0.80436,-0.56562 0.4424,-0.1157 0.80437,-0.48448 0.80437,-0.81953 0,-0.66347 -3.44125,-4.29234 -4.07042,-4.29234 -0.21298,0 -0.77577,-0.36196 -1.25063,-0.80437 -0.47487,-0.4424 -1.10074,-0.80437 -1.39083,-0.80437 -0.29009,0 -0.52744,-0.18099 -0.52744,-0.40219 0,-0.2212 -0.23735,-0.40217 -0.52744,-0.40217 -0.2901,0 -0.91597,-0.36197 -1.39083,-0.80438 -0.47487,-0.4424 -1.0067,-0.80527 -1.18184,-0.80637 -0.17515,-7.9e-4 -0.83096,-0.41211 -1.45734,-0.91337 l -1.13888,-0.91138 0.84811,-0.76753 c 0.73894,-0.66873 1.65351,-0.78863 7.10455,-0.9314 3.82402,-0.10015 6.67343,2.8e-4 7.329,0.25834 0.58991,0.23221 2.06796,0.50353 3.28457,0.60294 2.41177,0.19707 3.54819,0.54037 4.32349,1.30608 0.59945,0.59203 0.67248,2.16269 0.10055,2.16269 -0.79783,0 -0.20297,2.81583 0.76467,3.61966 0.13314,0.11061 0.49859,0.6988 0.81212,1.30711 0.52209,1.01297 0.76533,1.106 2.89146,1.106 1.27677,0 2.43327,0.18098 2.56997,0.40218 0.13672,0.22121 1.69868,0.40219 3.47104,0.40219 2.25656,0 3.39468,0.17222 3.79701,0.57455 0.66671,0.66671 0.75244,1.68114 0.17236,2.03965 -0.2212,0.13671 -0.40217,0.59985 -0.40217,1.02919 0,0.42935 -0.18099,0.78064 -0.40219,0.78064 -0.2212,0 -0.40219,0.44901 -0.40219,0.9978 0,1.15596 -1.33696,1.68114 -3.12436,1.22729 -0.60421,-0.15342 -1.8225,-0.3734 -2.70731,-0.48885 -0.88481,-0.11543 -1.78068,-0.37234 -1.99082,-0.57088 -0.21014,-0.19854 -1.27037,-0.36099 -2.35605,-0.36099 -1.69978,0 -2.39163,0.27933 -4.98057,2.01092 -1.65361,1.10601 -3.30814,2.00405 -3.67671,1.99565 -0.36857,-0.008 -2.11799,-0.56464 -3.88761,-1.23607 z" style="fill:#3088d4;fill-opacity:1;stroke-width:0.40218455"/>
    <path id="path97" d="m 130.70947,76.11609 c -0.13671,-0.22121 -0.50164,-0.40218 -0.81096,-0.40218 -0.30933,0 -1.61077,-0.97678 -2.89211,-2.17063 -1.28133,-1.19385 -2.85058,-2.60705 -3.48721,-3.14047 -1.0572,-0.8858 -1.10948,-1.04776 -0.60327,-1.86903 0.50211,-0.81463 0.45968,-0.97232 -0.45123,-1.67681 -0.553,-0.42768 -1.25698,-0.78163 -1.5644,-0.78655 -0.84654,-0.0135 -1.62596,-1.26955 -1.64029,-2.64325 -0.007,-0.67467 -0.23902,-1.47049 -0.51552,-1.76848 -0.41308,-0.4452 -0.35929,-0.49009 0.30164,-0.25173 1.33306,0.48075 1.55509,0.45794 1.69601,-0.17419 0.0743,-0.33319 -0.58853,-1.41908 -1.47289,-2.41311 -1.55722,-1.75034 -1.60729,-1.89612 -1.5876,-4.62263 0.0112,-1.54841 0.11162,-2.58906 0.2232,-2.31256 0.11156,0.2765 0.55219,0.50273 0.97916,0.50273 0.42697,0 1.09058,0.15987 1.47468,0.35526 0.79087,0.40232 2.71581,1.21621 3.91584,1.65567 0.44241,0.162 1.28061,0.51886 1.86269,0.79299 0.98296,0.46295 1.31837,0.32358 4.71024,-1.95711 3.45099,-2.32044 5.32605,-2.97359 5.89479,-2.05336 0.13671,0.2212 0.95113,0.40218 1.80983,0.40218 0.8587,0 1.67312,0.18099 1.80983,0.40219 0.13671,0.2212 1.0523,0.40218 2.03466,0.40218 h 1.7861 v 2.21202 c 0,1.2166 -0.18099,2.21201 -0.40219,2.21201 -0.2212,0 -0.40621,0.49771 -0.41112,1.10601 -0.005,0.6083 -0.36287,1.55847 -0.79544,2.11146 -0.43256,0.55301 -0.7905,1.15384 -0.79542,1.33519 -0.005,0.18135 -0.55189,1.11887 -1.2155,2.08338 -0.6636,0.96452 -1.20655,1.86944 -1.20655,2.01093 0,0.14149 -0.54295,1.04641 -1.20655,2.01092 -0.66361,0.96452 -1.20655,1.94729 -1.20655,2.18394 0,0.23664 -0.15253,0.43026 -0.33896,0.43026 -0.18642,0 -0.77439,0.85967 -1.30659,1.91037 -0.5322,1.05072 -1.28458,2.26123 -1.67197,2.69005 -0.38738,0.4288 -0.70433,1.017 -0.70433,1.3071 0,0.61474 -1.84492,0.71921 -2.21202,0.12525 z" style="fill:#3088d4;fill-opacity:1;stroke-width:0.40218455"/>
    <path id="path99" d="m 113.20823,95.81078 c -0.32839,-0.20763 -1.53333,-0.38029 -2.67768,-0.38367 -1.56431,-0.005 -2.36271,-0.23499 -3.21747,-0.92832 -0.62528,-0.50719 -1.62735,-1.23056 -2.22684,-1.6075 -0.59948,-0.37695 -2.27357,-1.79256 -3.72021,-3.1458 L 98.7358,87.28503 v -2.59221 c 0,-2.35344 0.13251,-2.76597 1.43852,-4.47846 0.79119,-1.03744 2.1094,-2.61019 2.92937,-3.49499 0.81997,-0.88481 1.89445,-2.1831 2.38773,-2.8851 1.10135,-1.56733 2.85426,-2.04997 4.21269,-1.1599 0.64249,0.42098 1.39093,0.54758 2.23694,0.37838 0.79357,-0.15872 1.50542,-0.06 1.89407,0.26248 0.34247,0.28423 1.4175,0.48672 2.38895,0.44997 0.97145,-0.0367 1.87877,0.1152 2.01627,0.33767 0.13748,0.22247 0.78224,0.40448 1.43279,0.40448 0.9147,0 1.18283,-0.18233 1.18283,-0.80437 0,-0.4424 0.18098,-0.80436 0.40217,-0.80436 0.2212,0 0.40219,-0.36197 0.40219,-0.80438 0,-0.4424 0.11036,-0.80437 0.24525,-0.80437 0.13488,0 1.23537,0.90492 2.44552,2.01093 1.21014,1.106 2.36667,2.01092 2.57004,2.01092 0.20338,0 0.36978,0.19391 0.36978,0.43092 0,0.55681 -1.0232,1.58 -1.58001,1.58 -0.23701,0 -0.43092,0.14196 -0.43092,0.31547 0,0.17351 -0.4977,0.61027 -1.10601,0.97056 -0.6083,0.3603 -1.64895,1.12303 -2.31255,1.69496 -0.66361,0.57194 -1.43279,1.0401 -1.70929,1.04037 -0.66163,6.4e-4 -0.63167,1.80723 0.0631,3.80336 0.6356,1.82622 0.46921,2.48053 -1.06852,4.20215 -0.60831,0.68104 -1.10685,1.37557 -1.10787,1.54338 -8e-4,0.16782 -0.54397,0.8835 -1.20655,1.59041 -0.66258,0.70691 -1.2047,1.44454 -1.2047,1.63917 0,0.19465 -0.41001,0.73908 -0.91113,1.20986 -0.64722,0.60804 -1.08407,0.74662 -1.50819,0.47845 z" style="fill:#3088d4;fill-opacity:1;stroke-width:0.40218455"/>
    <path id="path101" d="m 141.87009,82.23178 c -1.60371,-0.065 -2.91583,-0.29121 -2.91583,-0.50272 0,-0.21152 -0.93021,-0.38457 -2.06713,-0.38457 -1.49704,0 -2.21449,-0.19411 -2.60141,-0.70383 -0.61413,-0.80901 -0.73381,-2.9747 -0.19558,-3.53922 0.20036,-0.21014 0.72255,-1.01551 1.16042,-1.78972 0.43787,-0.77421 2.71722,-4.55396 5.06521,-8.39947 2.34799,-3.8455 4.26907,-7.40924 4.26907,-7.91941 0,-0.51017 0.16186,-1.02762 0.3597,-1.14989 0.19784,-0.12227 0.46236,-0.90213 0.58784,-1.73302 0.54366,-3.59994 0.77046,-4.5271 1.10739,-4.5271 0.197,0 0.35817,-0.35128 0.35817,-0.78063 0,-0.42935 0.18099,-0.89248 0.40219,-1.0292 0.2212,-0.13671 0.40219,-0.69034 0.40219,-1.23029 0,-0.53994 0.18098,-0.98172 0.40218,-0.98172 0.2212,0 0.40219,-0.27393 0.40219,-0.60874 0,-1.4532 3.22364,-5.20624 3.57171,-4.15825 0.0994,0.29922 0.69377,1.02387 1.32088,1.61032 0.62709,0.58646 1.14017,1.22714 1.14017,1.42375 0,0.1966 0.72394,1.1574 1.60874,2.1351 0.88481,0.9777 1.60874,1.94463 1.60874,2.14875 0,0.2041 0.3253,0.6638 0.7229,1.02155 0.3976,0.35776 1.15819,1.2839 1.69021,2.0581 0.53201,0.77421 1.26582,1.67912 1.63068,2.01092 0.57511,0.52302 1.98898,2.89135 1.98898,3.3317 0,0.0848 -0.99541,0.67494 -2.21201,1.31144 -2.69424,1.40958 -2.7934,2.10066 -0.60329,4.20492 1.06127,1.01966 1.60875,1.89858 1.60875,2.58267 0,0.57034 -0.1684,1.03699 -0.37422,1.03699 -0.20581,0 -0.43205,0.38873 -0.50273,0.86384 -0.18713,1.25781 -1.33357,1.86928 -2.33368,1.2447 -0.44017,-0.27489 -1.07424,-0.4998 -1.40904,-0.4998 -0.3348,0 -0.60873,-0.18098 -0.60873,-0.40218 0,-0.2212 -0.54296,-0.40218 -1.20656,-0.40218 -0.6636,0 -1.20655,-0.18099 -1.20655,-0.40219 0,-0.2212 -0.35129,-0.40219 -0.78064,-0.40219 -0.42935,0 -0.89248,-0.18098 -1.02919,-0.40218 -0.13671,-0.2212 -0.78084,-0.40219 -1.43138,-0.40219 h -1.18282 v 3.99812 c 0,2.23157 0.1777,4.10793 0.40219,4.24667 0.2212,0.13671 0.40218,0.87132 0.40218,1.63247 0,1.35993 -0.0296,1.38392 -1.70929,1.3844 -1.78722,5.3e-4 -3.90804,1.32636 -3.93409,2.45941 -0.0318,1.38542 -0.93472,1.76539 -3.90851,1.64487 z" style="fill:#3088d4;fill-opacity:1;stroke-width:0.40218455"/>
    <path id="path103" d="m 176.57546,118.37289 c -0.14603,-0.23628 -0.61925,-0.42961 -1.0516,-0.42961 -0.43235,0 -1.10035,-0.15987 -1.48446,-0.35526 -0.3841,-0.19539 -1.21342,-0.59723 -1.84294,-0.89297 l -1.14456,-0.5377 0.25966,-3.22942 c 0.14281,-1.77619 0.29591,-4.22484 0.3402,-5.44144 l 0.0805,-2.21202 -1.54356,-0.12693 -1.54357,-0.12694 0.23163,-8.11785 c 0.1274,-4.46481 0.34119,-10.78339 0.47508,-14.04127 0.19242,-4.68152 0.13019,-6.03121 -0.2968,-6.4375 -0.67244,-0.63987 -2.6339,-2.23557 -4.18877,-3.40771 -2.58847,-1.95131 -2.80062,-2.1732 -2.2837,-2.38845 0.2765,-0.11514 0.50273,-0.46819 0.50273,-0.78456 0,-0.31638 0.15987,-0.88949 0.35526,-1.27359 1.47892,-2.90724 1.4897,-2.74648 -0.29924,-4.46529 -0.91561,-0.87972 -1.66337,-1.74943 -1.66166,-1.93267 0.002,-0.2628 2.35652,-1.84488 3.65817,-2.45851 0.13349,-0.0629 1.28699,1.11346 2.56333,2.61419 1.27634,1.50075 2.59315,2.88645 2.92623,3.07936 0.40505,0.23457 1.38227,-0.0205 2.95067,-0.77011 2.34042,-1.11862 2.34914,-1.11951 4.4182,-0.45127 2.71276,0.87612 3.13427,0.84664 3.36494,-0.23536 0.39491,-1.85236 0.99861,-5.45766 1.63309,-9.75298 1.11233,-7.53021 1.3295,-8.24478 2.50574,-8.24478 1.02059,0 1.69479,-0.5909 3.67102,-3.21747 0.58252,-0.77422 1.55741,-1.88748 2.16642,-2.47393 1.36104,-1.31061 1.36365,-1.43742 0.0579,-2.80034 -1.29376,-1.35039 -0.97886,-1.96506 1.00674,-1.96506 1.36034,0 1.86086,0.33859 4.80248,3.24877 1.80612,1.78682 3.27598,3.37043 3.26635,3.51912 -0.01,0.14869 -0.20051,1.08477 -0.42417,2.08017 -0.22367,0.9954 -0.58946,2.62425 -0.81287,3.61966 -0.91695,4.08546 -0.89204,4.74185 0.27016,7.11729 0.68267,1.39533 2.91401,4.2524 5.77418,7.39343 4.53282,4.97792 5.66701,6.81778 5.66701,9.19291 0,0.43548 0.19933,1.22926 0.44296,1.76396 0.35245,0.77356 0.31088,1.12663 -0.20353,1.72821 -0.35556,0.41581 -1.86702,2.55168 -3.35879,4.74638 -2.7583,4.05801 -4.26794,5.3789 -6.20769,5.43158 -0.59525,0.0162 -1.19413,0.21038 -1.33084,0.43159 -0.13671,0.2212 -0.67966,0.40218 -1.20655,0.40218 -0.52689,0 -1.06984,0.18099 -1.20656,0.40219 -0.1367,0.2212 -0.78082,0.40219 -1.43137,0.40219 -0.65055,0 -1.18282,0.16951 -1.18282,0.3767 0,0.20718 -0.56995,0.43341 -1.26655,0.50273 -0.69659,0.0693 -1.3924,0.3975 -1.54622,0.7293 -0.15383,0.33181 -0.4888,1.00803 -0.74439,1.50273 -0.56979,1.10288 -0.61708,4.53004 -0.0625,4.53004 0.23972,0 0.40218,1.53379 0.40218,3.79702 0,2.09751 0.18001,3.90827 0.40218,4.04558 0.2212,0.13671 0.40219,1.23329 0.40219,2.43684 0,1.20356 -0.18099,2.18828 -0.40219,2.18828 -0.2212,0 -0.40218,0.63344 -0.40218,1.40765 0,0.7742 -0.18098,1.40764 -0.40218,1.40764 -0.2212,0 -0.40219,0.45492 -0.40219,1.01092 0,1.69546 -1.07142,3.23319 -2.91584,4.18489 -0.6083,0.31388 -1.106,0.7211 -1.106,0.90492 0,0.18382 -0.1983,0.33422 -0.44065,0.33422 -0.24235,0 -0.92697,0.3463 -1.52136,0.76955 -0.76443,0.54432 -1.95965,0.81458 -4.08393,0.92347 -1.65177,0.0847 -3.30163,0.29364 -3.66636,0.46442 -0.37703,0.17655 -0.77769,0.12516 -0.92865,-0.11909 z" style="fill:#3088d4;fill-opacity:1;stroke-width:0.40218455"/>
    <path id="path105" d="m 168.68135,60.91549 c -1.4188,-1.50308 -2.8536,-3.08668 -3.18844,-3.51911 -0.33485,-0.43243 -1.23976,-1.60066 -2.01092,-2.59607 -0.77117,-0.99541 -1.50133,-1.90032 -1.62259,-2.01093 -0.12126,-0.11059 -0.65562,-0.83453 -1.18748,-1.60873 -0.53184,-0.7742 -1.25564,-1.67913 -1.60844,-2.01092 -0.35278,-0.33181 -1.07658,-1.23672 -1.60844,-2.01093 -0.53185,-0.7742 -1.07493,-1.49813 -1.20685,-1.60874 -0.13192,-0.1106 -0.675,-0.83453 -1.20685,-1.60874 -0.53185,-0.7742 -1.24707,-1.68105 -1.58936,-2.01522 -0.84755,-0.82742 -1.62782,-2.26859 -1.62782,-3.00663 0,-0.33479 -0.18098,-0.60872 -0.40218,-0.60872 -0.2212,0 -0.40218,-0.36197 -0.40218,-0.80438 0,-0.4424 -0.18099,-0.80437 -0.40219,-0.80437 -0.2212,0 -0.40219,-0.27393 -0.40219,-0.60873 0,-0.3348 -0.18098,-0.96825 -0.40218,-1.40764 l -0.80437,-1.59783 c -0.58358,-1.15923 -0.48232,-2.09002 0.34427,-3.16475 0.98764,-1.28414 2.06137,-0.98299 3.02593,0.84865 1.05079,1.99539 1.8582,1.96957 1.8582,-0.0595 0,-1.94526 0.79493,-2.34285 2.03821,-1.01943 1.08331,1.15312 1.98364,1.26772 1.98364,0.25248 0,-0.39817 0.16565,-0.89587 0.36813,-1.10601 0.20247,-0.21014 0.42869,-0.83453 0.50272,-1.38753 0.12366,-0.9237 0.2821,-0.99648 1.94832,-0.89494 1.72177,0.10493 1.92495,-0.002 4.00811,-2.11147 2.09822,-2.12462 3.29178,-2.69165 3.8306,-1.81981 0.13672,0.2212 0.74464,0.40218 1.35095,0.40218 0.60631,0 1.27432,0.16236 1.48446,0.36079 0.21014,0.19844 1.15125,0.48582 2.09135,0.63863 1.49179,0.24249 1.70923,0.18378 1.70882,-0.46133 -2.5e-4,-0.40655 -1.71959,-4.17405 -3.82075,-8.37221 -3.16569,-6.32514 -3.8181,-7.9446 -3.8075,-9.45134 0.007,-1.00007 0.25229,-2.13375 0.545,-2.5193 0.50605,-0.66653 0.57295,-0.66653 1.36099,0 2.20166,1.86221 2.542,2.10864 2.91204,2.10864 0.21866,0 0.39758,0.18099 0.39758,0.40219 0,0.8876 0.71683,0.3161 1.42204,-1.13373 0.88931,-1.8283 2.10896,-2.48593 4.61047,-2.48593 1.01767,0 2.04448,-0.19417 2.28179,-0.43149 0.23731,-0.23731 1.02316,-0.37305 1.74633,-0.30163 1.4912,0.14726 2.33574,1.52977 1.48496,2.43089 -0.26703,0.28283 -0.74232,1.01194 -1.0562,1.62025 -0.31389,0.6083 -0.7211,1.10601 -0.90492,1.10601 -0.18382,0 -0.33422,0.45245 -0.33422,1.00546 0,0.553 0.18098,1.00546 0.40218,1.00546 0.2212,0 0.40219,0.23735 0.40219,0.52744 0,0.2901 0.36197,0.91597 0.80436,1.39083 0.4424,0.47487 0.80437,1.02389 0.80437,1.22005 0,0.5753 1.41267,1.6879 2.14314,1.6879 0.36969,0 0.67216,-0.16554 0.67216,-0.36787 0,-0.20233 1.13114,-0.46379 2.51365,-0.58102 1.38251,-0.11723 3.2981,-0.33412 4.25687,-0.48198 1.65923,-0.25588 1.73674,-0.22355 1.60874,0.671 -0.0953,0.66629 -1.11222,1.5867 -3.49389,3.1624 -2.43129,1.60854 -3.62574,2.6978 -4.32348,3.94267 -0.53025,0.94604 -0.96408,1.95306 -0.96408,2.23781 0,0.28476 1.26688,3.02828 2.81529,6.09672 1.54842,3.06843 2.8153,5.72632 2.8153,5.90642 0,0.18009 -0.76918,0.33319 -1.70929,0.34023 -1.58919,0.0119 -3.11693,0.68749 -3.11693,1.37838 0,0.16337 0.56972,0.82923 1.26604,1.47969 1.17892,1.10127 1.2282,1.25336 0.7162,2.21006 -1.0902,2.03705 -4.67272,5.37588 -5.76825,5.37588 -0.77208,0 -1.0402,0.20733 -1.0402,0.80437 0,0.4424 -0.18099,0.80436 -0.40219,0.80436 -0.22344,0 -0.40218,1.0725 -0.40218,2.41311 0,1.34062 -0.17875,2.41311 -0.40219,2.41311 -0.22343,0 -0.40218,1.0725 -0.40218,2.4131 0,1.34062 -0.17875,2.41311 -0.40218,2.41311 -0.22344,0 -0.40219,1.0725 -0.40219,2.41311 0,1.34062 -0.17875,2.41311 -0.40219,2.41311 -0.2212,0 -0.40218,0.45246 -0.40218,1.00546 0,0.72715 -0.21608,1.00546 -0.78064,1.00546 -0.42934,0 -0.89248,-0.18098 -1.02919,-0.40218 -0.41332,-0.66878 -2.951,-0.45255 -4.72009,0.40218 -0.91568,0.4424 -1.78215,0.80437 -1.92552,0.80437 -0.14336,0 -1.42149,-1.22979 -2.84029,-2.73287 z" style="fill:#3088d4;fill-opacity:1;stroke-width:0.40218455"/>
  </g>
  <path id="path4072" fill="#fff" d="M34.65751 48.494c0-5.55375 4.5025-10.055 10.055-10.055 5.55375 0 10.055 4.50125 10.055 10.055 0 5.5525-4.50125 10.055-10.055 10.055-5.5525 0-10.055-4.5025-10.055-10.055M178.86476 60.69975v46.195h-18.30125v-44.8375c0-9.4525-3.9775-14.24875-11.9325-14.24875-8.79375 0-13.2025 5.69125-13.2025 16.94375V89.2935h-18.19375V64.75225c0-11.2525-4.40875-16.94375-13.2025-16.94375-7.955 0-11.9325 4.79625-11.9325 14.24875v44.8375H73.79851v-46.195c0-9.44125 2.40375-16.94375 7.2325-22.495 4.98-5.55 11.50125-8.395 19.595-8.395 9.36625 0 16.45875 3.59875 21.14625 10.79875l4.56 7.6425 4.55875-7.6425c4.68875-7.2 11.78-10.79875 21.1475-10.79875 8.09375 0 14.61375 2.845 19.59375 8.395 4.82875 5.55125 7.2325 13.05375 7.2325 22.495M241.91276 83.663625c3.77625-3.99 5.595-9.015 5.595-15.075 0-6.06-1.81875-11.085-5.595-14.9275-3.63625-3.99125-8.25375-5.91125-13.84875-5.91125-5.59625 0-10.2125 1.92-13.84875 5.91125-3.6375 3.8425-5.45625 8.8675-5.45625 14.9275 0 6.06 1.81875 11.085 5.45625 15.075 3.63625 3.8425 8.2525 5.76375 13.84875 5.76375 5.595 0 10.2125-1.92125 13.84875-5.76375m5.595-52.025h18.04625v73.9h-18.04625v-8.72125c-5.455 7.2425-13.01 10.79-22.80125 10.79-9.3725 0-17.34625-3.695-24.06125-11.23375-6.57375-7.5375-9.93125-16.84875-9.93125-27.785 0-10.78875 3.3575-20.10125 9.93125-27.63875 6.715-7.5375 14.68875-11.38 24.06125-11.38 9.79125 0 17.34625 3.5475 22.80125 10.78875v-8.72zM326.26951 67.258625c5.315 3.99 7.97375 9.60625 7.83375 16.7 0 7.53875-2.65875 13.45-8.11375 17.58875-5.45625 3.99125-12.03 6.06-20.00375 6.06-14.40875 0-24.20125-5.9125-29.3775-17.58875l15.66875-9.31c2.0975 6.35375 6.71375 9.60625 13.70875 9.60625 6.43375 0 9.6525-2.07 9.6525-6.35625 0-3.10375-4.1975-5.91125-12.73-8.1275-3.21875-.8875-5.87625-1.77375-7.97375-2.51375-2.9375-1.18125-5.455-2.5125-7.55375-4.1375-5.17625-3.99-7.83375-9.3125-7.83375-16.11 0-7.2425 2.5175-13.00625 7.55375-17.145 5.17625-4.28625 11.47-6.355 19.025-6.355 12.03 0 20.84375 5.1725 26.5775 15.66625l-15.38625 8.8675c-2.23875-5.02375-6.015-7.53625-11.19125-7.53625-5.45625 0-8.11375 2.06875-8.11375 6.05875 0 3.10375 4.19625 5.91125 12.73 8.12875 6.575 1.4775 11.75 3.695 15.5275 6.50375M383.626635 49.966125h-15.8075v30.7425c0 3.695 1.4 5.91125 4.0575 6.945 1.95875.74 5.875.8875 11.75.59125v17.29375c-12.16875 1.4775-20.9825.295-26.15875-3.69625-5.175-3.8425-7.69375-10.93625-7.69375-21.13375v-30.7425h-12.17v-18.3275h12.17v-14.9275l18.045-5.76375v20.69125h15.8075v18.3275zM441.124885 83.2205c3.6375-3.84375 5.455-8.72125 5.455-14.6325 0-5.91125-1.8175-10.78875-5.455-14.63125-3.6375-3.84375-8.11375-5.76375-13.57-5.76375-5.455 0-9.93125 1.92-13.56875 5.76375-3.4975 3.99-5.31625 8.8675-5.31625 14.63125 0 5.765 1.81875 10.6425 5.31625 14.6325 3.6375 3.8425 8.11375 5.76375 13.56875 5.76375 5.45625 0 9.9325-1.92125 13.57-5.76375m-39.86875 13.15375c-7.13375-7.5375-10.63125-16.70125-10.63125-27.78625 0-10.9375 3.4975-20.1 10.63125-27.6375 7.13375-7.5375 15.9475-11.38 26.29875-11.38 10.3525 0 19.165 3.8425 26.3 11.38 7.135 7.5375 10.77125 16.84875 10.77125 27.6375 0 10.9375-3.63625 20.24875-10.77125 27.78625-7.135 7.53875-15.8075 11.2325-26.3 11.2325-10.49125 0-19.165-3.69375-26.29875-11.2325M524.92126 83.663625c3.6375-3.99 5.455-9.015 5.455-15.075 0-6.06-1.8175-11.085-5.455-14.9275-3.63625-3.99125-8.25375-5.91125-13.84875-5.91125-5.59625 0-10.2125 1.92-13.98875 5.91125-3.63625 3.8425-5.45625 8.8675-5.45625 14.9275 0 6.06 1.82 11.085 5.45625 15.075 3.77625 3.8425 8.5325 5.76375 13.98875 5.76375 5.595 0 10.2125-1.92125 13.84875-5.76375m5.455-81.585h18.04625v103.46h-18.04625v-8.72125c-5.315 7.2425-12.87 10.79-22.66125 10.79-9.3725 0-17.485-3.695-24.2-11.23375-6.575-7.5375-9.9325-16.84875-9.9325-27.785 0-10.78875 3.3575-20.10125 9.9325-27.63875 6.715-7.5375 14.8275-11.38 24.2-11.38 9.79125 0 17.34625 3.5475 22.66125 10.78875v-38.28zM611.79626 83.2205c3.63625-3.84375 5.455-8.72125 5.455-14.6325 0-5.91125-1.81875-10.78875-5.455-14.63125-3.6375-3.84375-8.11375-5.76375-13.57-5.76375-5.455 0-9.9325 1.92-13.56875 5.76375-3.49875 3.99-5.31625 8.8675-5.31625 14.63125 0 5.765 1.8175 10.6425 5.31625 14.6325 3.63625 3.8425 8.11375 5.76375 13.56875 5.76375 5.45625 0 9.9325-1.92125 13.57-5.76375m-39.86875 13.15375c-7.135-7.5375-10.63125-16.70125-10.63125-27.78625 0-10.9375 3.49625-20.1 10.63125-27.6375 7.135-7.5375 15.9475-11.38 26.29875-11.38 10.3525 0 19.165 3.8425 26.3 11.38 7.135 7.5375 10.77125 16.84875 10.77125 27.6375 0 10.9375-3.63625 20.24875-10.77125 27.78625-7.135 7.53875-15.8075 11.2325-26.3 11.2325-10.49125 0-19.16375-3.69375-26.29875-11.2325M713.35876 60.163875v45.37375h-18.04625v-43.00875c0-4.8775-1.25875-8.5725-3.77625-11.38-2.37875-2.5125-5.73625-3.84375-10.0725-3.84375-10.2125 0-15.3875 6.06-15.3875 18.3275v39.905h-18.04625v-73.89875h18.04625v8.27625c4.33625-6.94625 11.19-10.345 20.84375-10.345 7.69375 0 13.98875 2.66 18.885 8.12875 5.035 5.46875 7.55375 12.85875 7.55375 22.465"/>
</svg>
