<?xml version="1.0" encoding="UTF-8" standalone="no"?>
<svg
   xmlns:dc="http://purl.org/dc/elements/1.1/"
   xmlns:cc="http://creativecommons.org/ns#"
   xmlns:rdf="http://www.w3.org/1999/02/22-rdf-syntax-ns#"
   xmlns:svg="http://www.w3.org/2000/svg"
   xmlns="http://www.w3.org/2000/svg"
   xmlns:sodipodi="http://sodipodi.sourceforge.net/DTD/sodipodi-0.dtd"
   xmlns:inkscape="http://www.inkscape.org/namespaces/inkscape"
   viewBox="0 0 216.4144 232.00976"
   version="1.1"
   id="svg4548"
   sodipodi:docname="download (3).svg"
   inkscape:version="0.92.2 (5c3e80d, 2017-08-06)">
  <metadata
     id="metadata4554">
    <rdf:RDF>
      <cc:Work
         rdf:about="">
        <dc:format>image/svg+xml</dc:format>
        <dc:type
           rdf:resource="http://purl.org/dc/dcmitype/StillImage" />
      </cc:Work>
    </rdf:RDF>
  </metadata>
  <defs
     id="defs4552" />
  <sodipodi:namedview
     pagecolor="#ffffff"
     bordercolor="#666666"
     borderopacity="1"
     objecttolerance="10"
     gridtolerance="10"
     guidetolerance="10"
     inkscape:pageopacity="0"
     inkscape:pageshadow="2"
     inkscape:window-width="1920"
     inkscape:window-height="1017"
     id="namedview4550"
     showgrid="false"
     inkscape:zoom="2.0343971"
     inkscape:cx="18.640959"
     inkscape:cy="111.55057"
     inkscape:window-x="-8"
     inkscape:window-y="-8"
     inkscape:window-maximized="1"
     inkscape:current-layer="svg4548" />
  <g
     id="g4647"
     transform="translate(-2.4577314,-1.9661846)"
     style="fill:#ffffff">
    <path
       inkscape:connector-curvature="0"
       id="path49"
       d="M 14.038436,84.879224 C 13.148424,84.231526 10.856483,82.933072 5.894199,80.265255 4.514701,79.523611 4.386007,79.308384 4.386007,77.742944 c 0,-0.941313 0.180983,-1.823333 0.402185,-1.960047 0.221201,-0.136707 0.402184,-1.765555 0.402184,-3.619656 0,-1.854109 0.180983,-3.482958 0.402184,-3.619664 0.221202,-0.136714 0.402185,-1.776241 0.402185,-3.643393 0,-1.995099 0.165826,-3.394833 0.402185,-3.394833 0.720516,0 0.438001,-3.531427 -0.402185,-5.027312 -0.442403,-0.787661 -0.804369,-1.698077 -0.804369,-2.023152 0,-0.325076 -0.180983,-0.591043 -0.402184,-0.591043 -0.221202,0 -0.402185,-0.351289 -0.402185,-0.780637 0,-0.429349 -0.159374,-0.879131 -0.354162,-0.999521 C 3.837054,51.963304 3.590677,51.409671 3.484339,50.853402 3.33565,50.075583 3.458399,49.841993 4.015858,49.841993 c 0.398675,0 0.822269,-0.157601 0.941321,-0.350238 0.119052,-0.192629 0.763174,-0.459576 1.431382,-0.593216 0.92487,-0.184977 1.214923,-0.46159 1.214923,-1.15865 0,-0.684606 0.48206,-1.166716 1.910376,-1.91059 1.050707,-0.547207 2.000868,-1.097503 2.111469,-1.222878 0.110601,-0.125367 0.768386,-0.495767 1.461745,-0.823096 1.074326,-0.507193 4.168838,-3.945081 4.168838,-4.631431 0,-0.124483 0.258547,-0.484882 0.57455,-0.800887 0.855283,-0.855282 3.476754,-0.695483 5.490603,0.334702 3.072483,1.571731 3.023142,1.429721 1.15732,3.330859 -1.173786,1.195996 -1.620126,1.943341 -1.440382,2.411748 0.190077,0.495329 0.50364,0.599658 1.160479,0.38611 0.806401,-0.262169 2.383148,-0.516231 7.77966,-1.253543 1.58815,-0.21698 1.68255,-0.166607 2.470745,1.318472 0.470771,0.88699 1.051709,1.476814 1.36515,1.38603 0.300104,-0.08693 1.179083,-0.270323 1.953287,-0.407555 l 1.407648,-0.249508 0.121784,-2.608828 c 0.06697,-1.434857 0.293208,-2.78077 0.502726,-2.990909 0.209527,-0.21014 0.380951,-0.721729 0.380951,-1.136864 0,-0.744701 0.488162,-0.280539 2.815289,2.676903 2.182361,2.773467 2.957521,3.485808 3.357702,3.085619 0.232562,-0.232555 0.802901,-0.422827 1.267422,-0.422827 0.464521,0 1.041891,-0.197312 1.283046,-0.438459 0.474609,-0.474617 3.604701,-0.311379 8.369383,0.436468 1.548407,0.243034 3.889421,0.541649 5.202248,0.663592 2.463147,0.228788 4.249087,1.052951 4.249087,1.960843 0,0.28546 0.387663,1.305294 0.861476,2.266306 1.574717,3.193914 1.650125,3.473514 1.35624,5.028563 -0.160586,0.849715 -0.31806,3.173792 -0.349927,5.164607 l -0.05797,3.619656 1.407641,0.112849 c 2.502659,0.20064 3.217476,0.810857 3.217476,2.746673 0,0.944967 -0.18098,1.829982 -0.40218,1.966696 -0.221207,0.136706 -0.402187,1.052306 -0.402187,2.034659 0,2.004711 -0.432916,2.21606 -2.010922,0.981723 -1.527584,-1.194889 -2.80942,-1.000651 -4.644617,0.703821 -0.893129,0.829505 -2.385781,2.186884 -3.317004,3.016382 L 60.689512,75.98399 H 56.237667 51.78583 l -3.490148,-3.411331 c -3.397063,-3.320357 -3.541859,-3.411523 -5.429245,-3.41857 -1.814439,-0.0072 -3.088208,0.608871 -3.088208,1.492596 0,0.1929 -0.226224,0.837858 -0.502726,1.433233 -0.391358,0.842692 -0.787048,1.083202 -1.786099,1.085646 -0.70585,0.0016 -1.395218,0.184117 -1.531924,0.405317 -0.136714,0.221208 -0.868731,0.402188 -1.626706,0.402188 -0.757976,0 -2.149913,0.178097 -3.093193,0.395777 -0.943281,0.21768 -2.245541,0.500831 -2.893912,0.629224 -0.726843,0.143937 -2.346054,1.366258 -4.222937,3.187839 L 21.076649,81.1403 19.328683,80.544879 c -2.02203,-0.688771 -2.877156,-0.495847 -2.877156,0.649115 0,1.062244 -0.9086,4.44608 -1.189422,4.429684 -0.120023,-0.0072 -0.670681,-0.342012 -1.223685,-0.744454 z"
       style="fill:#ffffff;fill-opacity:1;stroke-width:0.40218455" />
    <path
       inkscape:connector-curvature="0"
       id="path51"
       d="m 48.002919,120.28875 c -0.210139,-0.18574 -1.015517,-0.57977 -1.789721,-0.8756 -0.774204,-0.29583 -3.850913,-1.70163 -6.837132,-3.12401 -8.233188,-3.92158 -8.017007,-3.84169 -8.312485,-3.07169 -0.137833,0.35919 -0.08821,0.77054 0.11028,0.91411 0.198486,0.14358 0.617409,0.75876 0.930938,1.36706 0.313522,0.6083 0.720447,1.10601 0.904269,1.10601 0.183823,0 0.334225,0.18098 0.334225,0.40218 0,0.2212 -0.621246,0.40219 -1.380543,0.40219 -0.976131,0 -1.434793,-0.20618 -1.565735,-0.70383 -0.101856,-0.38709 -0.413047,-1.60873 -0.691535,-2.71474 -0.60438,-2.40028 -1.38916,-3.41857 -2.634645,-3.41857 -0.505665,0 -1.031245,-0.18098 -1.167955,-0.40219 -0.13671,-0.2212 -0.572043,-0.40218 -0.967407,-0.40218 -1.641463,0 -3.608965,-1.43787 -4.726653,-3.45429 -0.406694,-0.73373 -0.318569,-0.92699 0.695939,-1.52628 1.000285,-0.59088 1.095516,-0.79199 0.685737,-1.44815 -0.261724,-0.41909 -0.936863,-0.99915 -1.500308,-1.28902 -0.563445,-0.28987 -1.370039,-0.83887 -1.792431,-1.21999 -0.750656,-0.67731 -0.734774,-0.74296 0.703823,-2.909645 0.809495,-1.219192 1.471809,-2.385391 1.471809,-2.591565 0,-0.206166 0.141705,-0.435185 0.314901,-0.508913 0.173196,-0.07374 0.707544,-0.808516 1.187441,-1.632854 L 22.848269,91.688 20.055992,89.16494 c -2.339809,-2.114216 -2.79291,-2.731018 -2.796179,-3.806424 -0.0022,-0.705851 0.177083,-1.395219 0.398284,-1.531925 0.221202,-0.136714 0.402184,-0.594172 0.402184,-1.016577 0,-0.80373 0.445754,-0.780017 2.328055,0.123838 0.838331,0.402554 1.215667,0.148245 4.231339,-2.851758 1.821011,-1.811556 3.533377,-3.293737 3.805259,-3.293737 0.271881,0 0.49433,-0.180979 0.49433,-0.402179 0,-0.2212 0.904915,-0.402188 2.010923,-0.402188 1.106004,0 2.010918,-0.180979 2.010918,-0.402187 0,-0.2212 0.904922,-0.40218 2.01093,-0.40218 1.155991,0 2.010922,-0.182341 2.010922,-0.428903 0,-0.818095 2.199832,-0.202137 2.609019,0.730544 0.218357,0.497702 0.535079,0.904914 0.703828,0.904914 0.168749,0 0.306808,0.361967 0.306808,0.804367 0,0.4424 0.180988,0.804367 0.402188,0.804367 0.2212,0 0.402187,0.361967 0.402187,0.804367 0,0.442408 0.18098,0.804375 0.40218,0.804375 0.2212,0 0.402187,0.361967 0.402187,0.804367 0,0.4424 0.18098,0.804367 0.402188,0.804367 0.2212,0 0.40218,0.279042 0.40218,0.620099 0,1.027183 1.232362,1.971577 4.826218,3.698488 7.417536,3.56425 8.599103,4.01185 10.10393,3.827526 1.633538,-0.200091 1.616984,-0.234777 2.350903,4.924886 0.674868,4.744511 0.888025,5.213189 2.438575,5.361807 3.138755,0.300844 3.134495,1.550206 -0.01258,3.687346 -2.403346,1.63208 -2.733176,2.19701 -2.057838,3.52457 0.365916,0.71933 1.06304,2.35335 1.756389,4.11694 0.217417,0.553 0.579822,1.3592 0.805354,1.79156 0.28984,0.55564 0.27608,0.83076 -0.0469,0.93843 -0.251331,0.0838 -0.456972,0.47859 -0.456972,0.87735 0,0.83438 -1.366679,1.54763 -5.429491,2.83358 -1.548408,0.4901 -3.129559,1.05122 -3.513655,1.24693 -0.384104,0.19571 -1.052107,0.35584 -1.484458,0.35584 -0.432351,0 -0.897946,0.18098 -1.034652,0.40218 -0.136714,0.2212 -0.654148,0.40218 -1.149859,0.40218 -0.495704,0 -1.082271,0.18099 -1.303471,0.40219 -0.2212,0.2212 -0.574121,0.25021 -0.784261,0.0645 z"
       style="fill:#ffffff;fill-opacity:1;stroke-width:0.40218455" />
    <path
       inkscape:connector-curvature="0"
       id="path53"
       d="m 64.3115,111.46701 c 0,-0.27595 -0.336326,-1.26893 -0.7474,-2.20663 -1.653581,-3.77197 -1.692575,-3.91692 -1.053804,-3.91692 0.327058,0 0.594658,-0.1504 0.594658,-0.33422 0,-0.18382 0.495169,-0.59103 1.100378,-0.90491 1.9066,-0.98883 2.519278,-1.71448 2.519278,-2.9838 0,-1.482861 -1.177976,-2.614206 -2.721965,-2.614206 -0.935507,0 -1.180372,-0.244595 -1.604139,-1.602404 -0.275061,-0.88132 -0.500107,-2.383479 -0.500107,-3.338129 0,-0.95465 -0.16808,-1.90766 -0.373513,-2.117807 -0.205434,-0.21014 -0.431658,-1.01551 -0.502726,-1.789722 -0.127183,-1.38544 -0.160938,-1.409503 -2.140151,-1.525618 C 57.13144,88.029939 52.162337,86.01205 47.726848,83.602668 47.342744,83.394025 46.847112,83.22331 46.625442,83.22331 c -0.882004,0 -2.120227,-1.551975 -3.529635,-4.424031 -0.81413,-1.659004 -1.62216,-3.076709 -1.795623,-3.150445 -0.173462,-0.07374 -0.315384,-0.48094 -0.315384,-0.904914 0,-0.423966 -0.18098,-0.770851 -0.402188,-0.770851 -0.2212,0 -0.402179,-0.271478 -0.402179,-0.603274 0,-0.331804 0.180979,-0.603281 0.402179,-0.603281 0.221208,0 0.402188,-0.325768 0.402188,-0.723934 0,-1.048397 0.799207,-1.689175 2.10681,-1.689175 0.90356,0 1.889759,0.754639 4.73033,3.619664 l 3.588768,3.619663 4.942205,-0.01139 4.942205,-0.01139 2.010922,-1.811747 c 1.106007,-0.996463 2.644366,-2.393951 3.41857,-3.105543 1.17655,-1.081386 1.556211,-1.228611 2.312562,-0.896784 0.497702,0.218358 0.904914,0.535072 0.904914,0.703821 0,0.168748 0.361967,0.306816 0.804367,0.306816 0.832651,0 1.10987,0.970273 0.402187,1.407648 -0.2212,0.136707 -0.402187,0.770151 -0.402187,1.407641 0,0.637497 -0.18098,1.270942 -0.40218,1.407648 -0.2212,0.136714 -0.402187,0.780829 -0.402187,1.431386 0,0.650548 -0.192446,1.182817 -0.427661,1.182817 -0.240231,0 -0.37243,0.572887 -0.301641,1.307101 0.109697,1.137748 0.299029,1.333148 1.461342,1.508188 1.386268,0.208762 1.51881,0.374222 3.320309,4.144885 0.50791,1.06308 1.057944,2.015978 1.222305,2.11756 0.164361,0.101582 1.120285,-0.03504 2.124288,-0.303544 2.076918,-0.555488 2.830673,-0.205051 1.525403,0.709203 -0.484364,0.339257 -0.880651,0.968529 -0.880651,1.398396 0,0.429858 -0.180987,0.781561 -0.402187,0.781561 -0.2212,0 -0.40218,0.803738 -0.40218,1.786091 0,0.982352 -0.180987,1.897953 -0.402187,2.034659 -0.2212,0.136714 -0.402188,0.951138 -0.402188,1.809836 0,0.858697 -0.180979,1.673121 -0.402179,1.809827 -0.221208,0.136715 -0.402188,0.647523 -0.402188,1.135128 0,0.604144 -1.793695,2.676834 -5.630585,6.506384 -3.096823,3.09088 -5.630586,5.39403 -5.630586,5.11807 z"
       style="fill:#ffffff;fill-opacity:1;stroke-width:0.40218455" />
    <path
       inkscape:connector-curvature="0"
       id="path55"
       d="m 57.025495,175.61251 c -1.708668,-1.44893 -2.48718,-2.05426 -3.975157,-3.09088 -0.774204,-0.53936 -1.679118,-1.2693 -2.010922,-1.62209 -0.331804,-0.35278 -1.236718,-1.07935 -2.010922,-1.61458 -0.774211,-0.53523 -1.649543,-1.20806 -1.945196,-1.4952 -0.295644,-0.28712 -1.200558,-1.01598 -2.010922,-1.61968 -0.810355,-0.6037 -1.563871,-1.19384 -1.674467,-1.31141 -0.110604,-0.11757 -1.015518,-0.84091 -2.010922,-1.60742 -0.995411,-0.7665 -2.171803,-1.72735 -2.614202,-2.1352 -1.679604,-1.54845 -3.112017,-2.07036 -8.043691,-2.93073 -0.663604,-0.11577 -1.568519,-0.36681 -2.010922,-0.55787 -1.155601,-0.49905 -3.223352,-0.85021 -6.334407,-1.07575 l -2.714746,-0.19681 v -1.283 c 0,-0.83653 0.426405,-1.80031 1.225316,-2.76953 l 1.225314,-1.48652 -1.325861,-2.52641 c -0.729224,-1.38954 -1.420005,-2.61691 -1.535071,-2.72751 -0.115066,-0.1106 -0.809376,-1.40016 -1.542914,-2.8657 -1.035434,-2.06869 -1.242559,-2.83322 -0.926156,-3.41857 0.224151,-0.41467 0.505571,-1.07069 0.625376,-1.45778 0.158999,-0.51374 0.644093,-0.70383 1.79616,-0.70383 1.068221,0 1.657231,-0.2056 1.822453,-0.63617 0.504797,-1.31548 0.214737,-4.26513 -0.600329,-6.1048 -0.464448,-1.0483 -0.989272,-2.26796 -1.166276,-2.71037 -0.177004,-0.4424 -0.68545,-1.61879 -1.12988,-2.61419 -0.795563,-1.78186 -0.796186,-1.82267 -0.04028,-2.64012 0.44453,-0.48073 0.768392,-1.41202 0.769238,-2.21202 0.0012,-1.12313 -0.318718,-1.66282 -1.709284,-2.88363 l -1.710746,-1.50192 1.118631,-0.006 c 1.301756,-0.007 1.840899,-0.9697 1.156857,-2.06502 -0.256111,-0.4101 -0.465657,-1.16435 -0.465657,-1.67611 0,-0.51177 -0.21718,-1.14766 -0.482622,-1.41311 -0.375372,-0.37537 0.205561,-0.48262 2.6142,-0.48262 1.796424,0 3.096821,0.16888 3.096821,0.40218 0,0.2212 0.542949,0.40219 1.206554,0.40219 0.663604,0 1.206553,0.18098 1.206553,0.40218 0,0.2212 0.508119,0.40219 1.129154,0.40219 0.922883,0 1.253499,0.28183 1.809831,1.54278 0.374372,0.84854 0.680676,1.90663 0.680676,2.35132 0,0.44469 0.28473,1.37929 0.632733,2.07687 0.618611,1.24004 0.694917,1.26835 3.418566,1.26835 2.59096,0 2.785835,-0.0611 2.785835,-0.87325 0,-0.48028 -0.299523,-1.20422 -0.665607,-1.60873 -0.624486,-0.69005 -0.614127,-0.7355 0.167578,-0.7355 0.458254,0 0.893511,0.13574 0.967247,0.30164 0.193091,0.43446 3.52407,2.11147 4.193913,2.11147 0.310901,0 0.565266,0.18098 0.565266,0.40219 0,0.2212 0.361968,0.40218 0.804375,0.40218 0.4424,0 0.804367,0.18099 0.804367,0.40219 0,0.2212 0.254374,0.40217 0.565267,0.40217 0.310902,0 1.35155,0.38768 2.312562,0.86149 3.418244,1.68531 3.545809,1.72381 4.047874,1.22176 0.260967,-0.26098 0.88007,-0.4745 1.375781,-0.4745 0.495711,0 1.013145,-0.18098 1.149851,-0.40219 0.136714,-0.2212 0.679661,-0.40218 1.206555,-0.40218 0.526894,0 1.06984,-0.18099 1.206554,-0.40219 0.136707,-0.2212 0.679661,-0.40219 1.206555,-0.40219 0.526894,0 1.069841,-0.18097 1.206555,-0.40217 0.136706,-0.2212 0.690339,-0.40219 1.230291,-0.40219 0.539945,0 0.981724,-0.18098 0.981724,-0.40218 0,-0.22121 0.542947,-0.40219 1.206555,-0.40219 0.663599,0 1.206546,-0.18891 1.206546,-0.4198 0,-0.26375 1.078823,-0.37588 2.902116,-0.30164 l 2.902115,0.11817 1.540063,3.01638 c 0.84704,1.65901 1.712888,3.07671 1.924103,3.15044 0.211222,0.0737 0.384032,0.30814 0.384032,0.52089 0,0.21276 0.904922,1.72786 2.010929,3.3669 1.106008,1.63903 2.010922,3.16921 2.010922,3.4004 0,0.2312 0.18098,0.42035 0.40218,0.42035 0.221208,0 0.402187,0.71325 0.402187,1.585 0,0.87176 0.18098,1.69686 0.402188,1.83357 0.2212,0.13671 0.402179,1.23329 0.402179,2.43684 0,1.20355 0.180988,2.18828 0.402188,2.18828 0.2212,0 0.402187,0.45246 0.402187,1.00546 0,0.553 -0.180987,1.00546 -0.402187,1.00546 -0.2212,0 -0.402188,0.36443 -0.402188,0.80983 0,0.4454 -0.180979,1.16934 -0.402179,1.60874 l -0.804375,1.59782 c -0.2212,0.43941 -0.40218,1.16333 -0.40218,1.60874 0,0.4454 -0.180988,0.80982 -0.402187,0.80982 -0.2212,0 -0.402188,0.33981 -0.402188,0.75513 0,1.09578 -0.9808,1.78789 -1.878858,1.32581 -0.404433,-0.20809 -1.278284,-0.60156 -1.941891,-0.87438 -0.663608,-0.27282 -1.520817,-0.6559 -1.904921,-0.85129 -0.384104,-0.1954 -0.972295,-0.35527 -1.307101,-0.35527 -0.334798,0 -0.608728,-0.18098 -0.608728,-0.40218 0,-0.2212 -0.351289,-0.40218 -0.780638,-0.40218 -0.429349,0 -0.892484,-0.18098 -1.029198,-0.40219 -0.136706,-0.2212 -0.780829,-0.40218 -1.431377,-0.40218 -0.902709,0 -1.182818,0.18487 -1.182818,0.78063 0,0.42935 0.18098,0.89249 0.40218,1.0292 0.2212,0.13671 0.402187,0.77015 0.402187,1.40765 0,0.63749 0.18098,1.27093 0.402188,1.40764 0.2212,0.13671 0.402179,0.77015 0.402179,1.40764 0,0.6375 0.180988,1.27094 0.402188,1.40765 0.2212,0.13672 0.402179,0.65415 0.402179,1.14985 0,0.49572 0.221702,1.12299 0.492662,1.39396 0.388754,0.38875 0.388754,0.65903 0,1.28153 -0.27096,0.43388 -0.492662,1.14261 -0.492662,1.57496 0,0.43235 -0.180979,0.89794 -0.402179,1.03466 -0.2212,0.13671 -0.402188,0.6023 -0.402188,1.03465 0,0.43235 -0.22491,1.14623 -0.499796,1.58639 -0.369651,0.59191 -0.384717,0.98322 -0.05789,1.50274 0.362485,0.57616 1.151293,0.72326 4.388007,0.81835 4.233185,0.12436 4.977935,0.48196 5.004929,2.40319 0.0072,0.50071 0.234482,1.26536 0.505449,1.69924 0.388755,0.62251 0.388755,0.89278 0,1.28154 -0.270967,0.27096 -0.492661,1.09558 -0.492661,1.83249 0,1.85868 -0.935101,2.09243 -2.342678,0.58561 -1.902077,-2.03617 -3.830559,-2.89068 -6.523802,-2.89068 -2.091059,0 -2.692923,0.18979 -4.584466,1.44572 -2.7006,1.79309 -2.942344,2.34994 -1.412482,3.25366 0.654037,0.38634 1.189156,0.9349 1.189156,1.219 0,0.73249 -0.446134,0.62441 -1.655428,-0.40105 z"
       style="fill:#ffffff;fill-opacity:1;stroke-width:0.40218455" />
    <path
       inkscape:connector-curvature="0"
       id="path57"
       d="m 73.561749,166.15376 c 0,-0.48664 -0.180987,-0.8848 -0.402187,-0.8848 -0.2212,0 -0.40218,-0.36197 -0.40218,-0.80437 0,-0.75425 -0.268125,-0.80437 -4.303377,-0.80437 -3.347072,0 -4.196126,-0.10725 -3.82075,-0.48262 0.265442,-0.26544 0.48262,-0.8882 0.48262,-1.38391 0,-0.49571 0.18098,-1.01314 0.40218,-1.14985 0.221208,-0.13671 0.402187,-0.67966 0.402187,-1.20655 0,-0.5269 0.18098,-1.06985 0.402188,-1.20656 0.500608,-0.3094 0.520579,-1.59294 0.03918,-2.51911 -0.199636,-0.3841 -0.579249,-1.51279 -0.843568,-2.50819 -0.264319,-0.99541 -0.643924,-2.1241 -0.843568,-2.5082 -0.390211,-0.75076 -0.495982,-2.31802 -0.15643,-2.31802 0.210553,0 0.897604,0.31398 2.502739,1.14376 0.4947,0.25574 1.173381,0.46498 1.508187,0.46498 0.334806,0 0.608736,0.18098 0.608736,0.40218 0,0.2212 0.27393,0.40219 0.608736,0.40219 0.590636,0 1.01762,0.16812 2.904918,1.14376 1.284328,0.66393 1.714744,0.57875 1.714744,-0.33939 0,-0.4424 0.148268,-0.80437 0.329478,-0.80437 0.181219,0 0.575897,-0.90492 0.877076,-2.01092 0.301179,-1.10601 0.695858,-2.01093 0.877076,-2.01093 0.181211,0 0.329479,-0.54295 0.329479,-1.20655 0,-0.66361 0.180979,-1.20655 0.402187,-1.20655 0.2212,0 0.40218,-0.35129 0.40218,-0.78064 0,-0.42935 0.180987,-0.89249 0.402187,-1.0292 0.2212,-0.13671 0.40218,-1.04162 0.40218,-2.01092 0,-0.9693 -0.18098,-1.87421 -0.40218,-2.01092 -0.2212,-0.13671 -0.402187,-1.22261 -0.402187,-2.41311 0,-1.1905 -0.18098,-2.2764 -0.40218,-2.4131 -0.221208,-0.13672 -0.402187,-0.8372 -0.402187,-1.55664 0,-0.75216 -0.341853,-1.67501 -0.804367,-2.17147 -0.442408,-0.47486 -0.804375,-1.14243 -0.804375,-1.48348 0,-0.34105 -0.159026,-0.62009 -0.353392,-0.62009 -0.194365,0 -0.578285,-0.54295 -0.853163,-1.20656 -0.274869,-0.6636 -0.65879,-1.20655 -0.853155,-1.20655 -0.194365,0 -0.353392,-0.23514 -0.353392,-0.52252 0,-0.3615 0.464752,-0.47775 1.508188,-0.37724 2.215662,0.21342 3.290471,0.84615 5.530038,3.25549 1.106008,1.18986 4.074303,4.31378 6.596216,6.94206 l 4.585287,4.77867 h 1.950212 c 2.062521,0 2.555684,0.60556 1.324971,1.62696 -1.316602,1.09268 -1.421146,1.87684 -0.639003,4.79311 l 0.759058,2.83018 h -0.930227 c -0.511621,0 -1.042082,0.18098 -1.178789,0.40218 -0.136714,0.2212 -0.77015,0.40218 -1.407648,0.40218 -0.637497,0 -1.258576,0.16099 -1.380184,0.35775 -0.121601,0.19676 -0.810969,0.45965 -1.531925,0.58419 -4.399218,0.75995 -5.131585,1.06304 -5.131585,2.12369 0,0.31928 0.415987,0.55404 0.981731,0.55404 0.539945,0 1.093578,0.18098 1.230284,0.40218 0.136714,0.2212 0.599849,0.40218 1.029198,0.40218 0.429349,0 0.780638,0.0889 0.780638,0.19762 0,0.18587 -2.175538,3.17542 -3.444824,4.73374 -0.329749,0.40484 -0.577027,1.56966 -0.577027,2.71815 0,1.96602 -0.01967,1.99873 -0.904914,1.5036 -0.497702,-0.27838 -0.995404,-0.60471 -1.106008,-0.72519 -0.480152,-0.52304 -3.315141,-1.99296 -3.843738,-1.99296 -0.450331,0 -0.580293,0.63049 -0.580293,2.81529 0,2.66957 -0.04786,2.81529 -0.92502,2.81529 -0.508762,0 -1.142207,0.21718 -1.407648,0.48262 -0.375369,0.37537 -0.48262,0.286 -0.48262,-0.40219 z"
       style="fill:#ffffff;fill-opacity:1;stroke-width:0.40218455" />
    <path
       inkscape:connector-curvature="0"
       id="path59"
       d="m 120.61734,179.89249 c 0,-0.92249 -0.26029,-1.66144 -0.70382,-1.99814 -0.84084,-0.63828 -7.56363,-0.77173 -7.94315,-0.15767 -0.13671,0.2212 -0.92562,0.40218 -1.75312,0.40218 -0.82752,0 -1.69874,0.19417 -1.93605,0.43148 -0.23732,0.23732 -1.04269,0.37306 -1.78972,0.30165 -1.10469,-0.10561 -1.38137,-0.31755 -1.48213,-1.13531 -0.0682,-0.553 -0.39335,-1.59366 -0.72269,-2.31256 -0.71537,-1.56153 -1.8413,-1.70376 -3.97964,-0.50273 -1.818643,1.02147 -2.614203,1.01981 -2.614203,-0.006 0,-0.4454 -0.169123,-1.12409 -0.375838,-1.50819 -0.206716,-0.3841 -0.612861,-1.28656 -0.902549,-2.00546 -0.30391,-0.75422 -0.815372,-1.3071 -1.209159,-1.3071 -0.375353,0 -0.79431,-0.18099 -0.931016,-0.40219 -0.136714,-0.2212 -1.454271,-0.40218 -2.927915,-0.40218 h -2.679347 l -2.32422,-2.29997 c -2.198725,-2.17579 -2.324228,-2.40588 -2.324228,-4.2614 0,-1.74796 0.844619,-3.72195 2.010922,-4.6998 0.13192,-0.11061 0.674867,-0.83453 1.206554,-1.60874 0.531688,-0.77421 1.156413,-1.53823 1.388267,-1.69783 0.740354,-0.50963 -0.370025,-1.70325 -1.8321,-1.96943 -0.833073,-0.15167 -1.022214,-0.26935 -0.484818,-0.30164 0.484651,-0.0291 0.993031,-0.23393 1.129745,-0.45513 0.136714,-0.2212 0.871327,-0.40218 1.632471,-0.40218 0.761153,0 1.383912,-0.18098 1.383912,-0.40219 0,-0.2212 0.597245,-0.40218 1.327207,-0.40218 0.72997,0 1.49915,-0.16566 1.709289,-0.36813 0.21014,-0.20247 0.83453,-0.42871 1.387534,-0.50274 1.101772,-0.14748 1.623928,-1.68792 0.838425,-2.47343 -0.239937,-0.23993 -0.436237,-0.94545 -0.436237,-1.56781 0,-0.62237 -0.212752,-1.47225 -0.472786,-1.88862 -0.378809,-0.60657 -0.344545,-0.88527 0.172371,-1.40219 0.87964,-0.87964 1.104782,-0.81291 1.104782,0.32742 0,1.98289 0.335753,2.24491 2.876603,2.24491 2.948654,0 3.550324,0.52155 6.078894,5.26932 l 1.79887,3.37765 2.16378,-0.11456 c 1.19008,-0.063 4.33557,-0.20631 6.98999,-0.31844 3.84766,-0.16253 4.92814,-0.33837 5.32895,-0.86722 0.41381,-0.54603 0.50272,-0.009 0.50272,3.03864 0,3.26313 0.33155,4.82913 1.2072,5.70199 0.11095,0.11061 0.47263,0.74404 0.80372,1.40765 0.33111,0.6636 0.69278,1.29705 0.80373,1.40764 0.11096,0.11061 0.44498,0.63311 0.74229,1.16111 0.2973,0.52801 0.8855,1.56867 1.3071,2.31257 0.42161,0.74389 1.1478,2.03123 1.61377,2.86074 0.46598,0.8295 1.02918,1.73211 1.25155,2.0058 0.52823,0.65009 0.107,1.7144 -0.6785,1.7144 -0.33875,0 -0.61591,0.18099 -0.61591,0.40219 0,0.2212 -0.63343,0.40218 -1.40764,0.40218 -0.77421,0 -1.40764,-0.18098 -1.40764,-0.40218 0,-0.2212 -0.45246,-0.40219 -1.00546,-0.40219 -0.99802,0 -1.00547,0.0268 -1.00547,3.61966 v 3.61966 h -1.40764 c -1.35092,0 -1.40765,-0.059 -1.40765,-1.46385 z"
       style="fill:#ffffff;fill-opacity:1;stroke-width:0.40218455" />
    <path
       inkscape:connector-curvature="0"
       id="path61"
       d="m 144.84896,227.06063 c -0.4977,-0.2465 -0.90491,-0.58624 -0.90491,-0.75499 0,-0.16875 -0.27148,-0.30681 -0.60328,-0.30681 -0.33181,0 -0.60328,-0.18098 -0.60328,-0.40219 0,-0.2212 -0.19362,-0.40218 -0.43026,-0.40218 -0.23666,0 -1.21943,-0.54295 -2.18394,-1.20656 -0.96452,-0.6636 -1.86436,-1.20655 -1.99966,-1.20655 -0.13529,0 -0.63451,-0.36197 -1.10937,-0.80437 -0.47487,-0.44241 -1.10075,-0.80437 -1.39083,-0.80437 -0.2901,0 -0.52745,-0.1504 -0.52745,-0.33422 0,-0.18382 -0.4977,-0.59103 -1.106,-0.90491 -0.60831,-0.31389 -1.45685,-0.88742 -1.88567,-1.27452 -0.42881,-0.38711 -1.01701,-0.70382 -1.3071,-0.70382 -0.29009,0 -0.52744,-0.18099 -0.52744,-0.40219 0,-0.2212 -0.23735,-0.40219 -0.52744,-0.40219 -0.29009,0 -0.88751,-0.31671 -1.32758,-0.70382 -0.44008,-0.3871 -1.19813,-0.93005 -1.68457,-1.20655 -0.48645,-0.2765 -1.28244,-0.72896 -1.76888,-1.00546 -0.48644,-0.2765 -1.22566,-0.8019 -1.64271,-1.16755 -0.97988,-0.85912 -2.99433,-1.17511 -8.95321,-1.40438 l -4.84432,-0.18639 -1.28534,1.22834 c -0.70693,0.67559 -1.52237,1.22834 -1.81209,1.22834 -0.74278,0 -2.69114,-0.94501 -2.6949,-1.3071 -0.006,-0.63397 -2.30424,-0.26469 -3.12797,0.50273 -0.47486,0.4424 -1.036849,0.80437 -1.248868,0.80437 -0.212019,0 -0.445816,0.14227 -0.519552,0.31616 -0.35617,0.83999 -2.810041,2.09695 -4.093708,2.09695 -0.782302,0 -1.534225,0.18098 -1.670932,0.40218 -0.136714,0.2212 -1.293198,0.40218 -2.569977,0.40218 -2.126128,0 -2.369361,-0.093 -2.891461,-1.106 -0.313529,-0.6083 -0.660829,-1.1965 -0.771783,-1.3071 -0.110954,-0.1106 -0.421601,-0.59567 -0.690331,-1.07793 -0.422867,-0.75886 -0.274074,-1.29388 1.106007,-3.97685 0.877036,-1.70502 1.594608,-3.24084 1.594608,-3.41295 0,-0.1721 -0.542954,-0.55324 -1.206554,-0.84698 -0.663608,-0.29375 -1.206555,-0.67088 -1.206555,-0.83809 0,-0.1672 -0.361967,-0.304 -0.804367,-0.304 -0.442408,0 -0.805784,-0.13574 -0.807512,-0.30164 -0.0016,-0.1659 -0.408932,-0.49542 -0.904914,-0.73227 -3.67229,-1.75363 -8.374949,-4.37615 -8.84412,-4.93206 -0.311029,-0.36854 -1.436498,-2.66088 -2.501043,-5.09411 -1.064545,-2.43321 -2.606686,-5.87189 -3.426987,-7.6415 -0.8203,-1.76961 -1.744126,-3.80567 -2.052957,-4.52457 -0.308823,-0.71891 -0.788792,-1.30711 -1.0666,-1.30711 -0.2778,0 -0.505099,-0.18098 -0.505099,-0.40218 0,-0.2212 -0.542947,-0.40218 -1.206555,-0.40218 -0.663599,0 -1.206546,-0.16897 -1.206546,-0.37548 0,-0.2065 -0.479451,-0.43274 -1.065445,-0.50273 -1.203067,-0.1437 -2.292703,-1.51398 -1.448211,-1.82122 1.0614,-0.38614 0.139612,-1.90081 -1.335545,-2.19454 -0.641089,-0.12765 -0.497622,-0.34485 0.825628,-1.24993 2.982572,-2.04002 6.180436,-1.35433 9.769634,2.0948 1.166517,1.12099 2.253597,2.03818 2.415729,2.03818 0.388467,0 1.295005,-2.93513 1.295005,-4.19287 0,-0.54344 0.18098,-1.09992 0.40218,-1.23663 0.221208,-0.13671 0.402188,-0.76603 0.402188,-1.39849 0,-1.65686 0.384462,-2.42226 1.216691,-2.42226 1.718335,0 2.000785,-0.40671 2.000785,-2.88107 v -2.39281 l 1.299736,0.72656 c 0.714856,0.39961 1.530347,0.94093 1.812208,1.20294 0.281861,0.26202 0.828129,0.58362 1.213921,0.71468 0.385792,0.13105 1.96832,1.49872 3.516735,3.03925 l 2.815289,2.80096 2.286381,0.003 c 2.697502,0.004 4.28226,0.52289 4.599253,1.50563 0.67333,2.08748 1.903025,4.97289 2.196655,5.15437 0.184985,0.11432 0.660415,0.0344 1.056511,-0.17766 0.396103,-0.21204 1.484768,-0.66732 2.419248,-1.01175 1.60983,-0.59332 1.72073,-0.58574 2.11147,0.14437 0.22683,0.42382 0.4124,1.02616 0.4124,1.33852 0,0.31235 0.28474,1.13867 0.63274,1.83626 0.6273,1.25748 1.50303,1.64028 1.98147,0.86617 0.1367,-0.22121 0.95113,-0.40219 1.80982,-0.40219 0.8587,0 1.66131,-0.16187 1.78358,-0.3597 0.12227,-0.19784 0.99261,-0.47744 1.93411,-0.62134 6.60046,-1.00886 7.94566,-0.69184 7.94566,1.87254 v 1.55997 l 2.51366,-0.11974 2.51366,-0.11973 0.11657,-3.30387 0.11659,-3.30387 1.41538,0.67495 c 0.8658,0.41287 1.52327,0.52449 1.69325,0.28748 0.15282,-0.2131 0.83687,-0.69717 1.52011,-1.07571 1.43007,-0.79232 2.17632,-0.38177 2.17632,1.19731 0,1.31368 -0.66676,2.43817 -2.47697,4.17742 -0.84968,0.81637 -1.54487,1.76998 -1.54487,2.11912 0,0.34915 -0.23475,0.63481 -0.52166,0.63481 -0.28691,0 -1.22855,0.72393 -2.09255,1.60874 -1.5652,1.60292 -1.58213,1.60873 -4.683,1.60873 -1.71166,0 -3.22398,0.18099 -3.36068,0.40219 -0.13713,0.22188 -1.94017,0.40218 -4.02184,0.40218 -2.08169,0 -3.88473,0.1803 -4.02186,0.40219 -0.13683,0.22141 -1.92747,0.40219 -3.98378,0.40219 -3.72007,0 -6.585113,0.77661 -6.051315,1.6403 0.12598,0.20384 3.023615,0.37062 6.439185,0.37062 h 6.21012 v 1.35642 c 0,1.4032 0.27747,1.71912 5.21601,5.93869 l 1.7128,1.46344 1.513,-0.80759 1.513,-0.8076 1.71877,1.66801 c 1.70434,1.654 1.72502,1.6613 2.463,0.86917 0.40933,-0.43937 0.74424,-0.90984 0.74424,-1.04549 0,-0.13564 0.22624,-0.48498 0.50274,-0.7763 0.95373,-1.00484 1.91037,-2.23801 1.91037,-2.46258 0,-0.49807 1.08691,-1.26255 2.21908,-1.5608 0.65971,-0.17379 2.5776,-0.39693 4.26195,-0.49586 2.69759,-0.15843 3.09181,-0.0926 3.30878,0.55287 0.13548,0.40301 1.52109,2.72355 3.07914,5.15677 1.55805,2.43322 2.95571,4.6955 3.10589,5.02731 0.15019,0.3318 0.42161,0.78426 0.60317,1.00546 0.80369,0.97921 3.53122,5.4941 3.53122,5.84525 0,0.21373 0.18098,0.38861 0.40218,0.38861 0.2212,0 0.40218,0.23735 0.40218,0.52744 0,0.29009 0.31673,0.8875 0.70383,1.32757 1.09194,1.24137 1.7692,2.56902 1.3105,2.56902 -0.22307,0 -0.40558,0.36197 -0.40558,0.80437 0,0.4424 -0.18099,0.80437 -0.40219,0.80437 -0.2212,0 -0.40218,0.36196 -0.40218,0.80437 0,0.4424 -0.18099,0.80436 -0.40219,0.80436 -0.2212,0 -0.40219,0.36197 -0.40219,0.80437 0,0.44241 -0.18098,0.80438 -0.40218,0.80438 -0.2212,0 -0.40218,0.36196 -0.40218,0.80436 0,0.4424 -0.18098,0.80437 -0.40218,0.80437 -0.22121,0 -0.40219,0.36197 -0.40219,0.80437 0,0.44241 -0.18099,0.80437 -0.40219,0.80437 -0.2212,0 -0.40218,0.36196 -0.40218,0.80437 0,0.4424 -0.18098,0.80437 -0.40218,0.80437 -0.2212,0 -0.40219,0.36196 -0.40219,0.80436 0,0.88676 -0.17663,0.91691 -1.50819,0.25744 z"
       style="fill:#ffffff;fill-opacity:1;stroke-width:0.40218455" />
    <path
       inkscape:connector-curvature="0"
       id="path63"
       d="m 123.37463,193.42206 c -2.66746,-2.49004 -2.37797,-2.80069 2.61791,-2.80932 l 3.56537,-0.006 -0.71822,1.10601 c -0.39502,0.60831 -1.09451,1.69196 -1.55444,2.40812 -0.45993,0.71617 -1.04331,1.30437 -1.29641,1.30711 -0.25311,0.002 -1.42949,-0.89986 -2.61421,-2.00577 z"
       style="fill:#ffffff;fill-opacity:1;stroke-width:0.40218455" />
    <path
       inkscape:connector-curvature="0"
       id="path65"
       d="m 127.85667,185.75165 c 0,-1.56335 0.81285,-2.38438 2.36064,-2.38438 0.66634,0 1.32339,-0.18099 1.4601,-0.40219 0.13672,-0.2212 0.67967,-0.40219 1.20656,-0.40219 0.52689,0 1.06984,-0.18098 1.20655,-0.40218 0.44188,-0.71497 1.66804,-0.42709 2.14133,0.50273 0.25333,0.4977 0.74558,1.29507 1.09389,1.77192 0.58916,0.80656 0.57028,0.92571 -0.27079,1.70928 -0.79646,0.74202 -1.39778,0.84228 -5.05119,0.84228 h -4.14709 z"
       style="fill:#ffffff;fill-opacity:1;stroke-width:0.40218455" />
    <path
       inkscape:connector-curvature="0"
       id="path67"
       d="m 115.85266,193.47525 c -1.04908,-0.90987 -1.10604,-1.59642 -0.16208,-1.95387 0.3871,-0.14658 0.94298,-0.50287 1.23528,-0.79174 0.7589,-0.75002 1.32114,-0.64968 1.56403,0.27913 0.11568,0.4424 0.37021,0.80437 0.56562,0.80437 0.52281,0 0.43239,1.37075 -0.12735,1.93048 -0.70882,0.70882 -2.0875,0.58852 -3.0755,-0.26837 z"
       style="fill:#ffffff;fill-opacity:1;stroke-width:0.40218455" />
    <path
       inkscape:connector-curvature="0"
       id="path69"
       d="m 138.41803,166.62196 c -0.26356,-0.64645 -1.44902,-2.6918 -4.63036,-7.98905 -0.39854,-0.6636 -0.83126,-1.52327 -0.96161,-1.91037 -0.13035,-0.3871 -0.39687,-0.70382 -0.59227,-0.70382 -0.19541,0 -0.35528,-0.28441 -0.35528,-0.63201 0,-0.3476 -0.26379,-0.89579 -0.58619,-1.21819 -0.75045,-0.75045 -0.47352,-1.44489 0.90044,-2.25805 0.60136,-0.35592 1.5283,-1.02502 2.05985,-1.48691 1.08533,-0.94309 1.48157,-1.03185 1.86158,-0.41699 0.14372,0.23254 -0.20958,0.8592 -0.7851,1.39257 l -1.0464,0.96978 1.51266,2.42565 c 0.83195,1.33411 2.39414,3.79674 3.4715,5.47251 l 1.95886,3.04685 -0.71388,1.58311 c -0.95143,2.10989 -1.6891,2.7176 -2.0938,1.72492 z"
       style="fill:#ffffff;fill-opacity:1;stroke-width:0.40218455" />
    <path
       inkscape:connector-curvature="0"
       id="path71"
       d="m 143.13967,158.08124 c 0,-0.19282 -0.89188,-1.71681 -1.98196,-3.38665 -1.64405,-2.51843 -1.87158,-3.07843 -1.33452,-3.28452 0.65695,-0.2521 2.46815,1.52304 2.49765,2.44793 0.008,0.24942 0.3048,0.69444 0.65964,0.98894 0.84089,0.69787 1.40488,2.21057 1.11035,2.97812 -0.24926,0.64953 -0.95116,0.83859 -0.95116,0.25618 z"
       style="fill:#ffffff;fill-opacity:1;stroke-width:0.40218455" />
    <path
       inkscape:connector-curvature="0"
       id="path73"
       d="m 168.17566,157.97285 c -0.2765,-0.27845 -0.50273,-0.70546 -0.50273,-0.94893 0,-0.24346 -0.22623,-0.92979 -0.50273,-1.52516 -0.36656,-0.7893 -0.8023,-1.08336 -1.60873,-1.08565 -0.95514,-0.002 -1.10601,-0.16449 -1.10601,-1.18595 0,-0.65055 -0.18099,-1.29467 -0.40219,-1.43138 -0.2212,-0.13672 -0.40219,-0.96182 -0.40219,-1.83357 0,-1.30082 0.13997,-1.585 0.78064,-1.585 0.42935,0 0.89248,-0.18098 1.0292,-0.40219 0.13671,-0.2212 1.37033,-0.40218 2.74138,-0.40218 h 2.49281 l -0.14394,1.80983 c -0.0791,0.9954 -0.28848,1.80983 -0.46513,1.80983 -0.17665,0 -0.42197,0.76918 -0.54515,1.70929 -0.62067,4.73715 -0.8502,5.5897 -1.36523,5.07106 z"
       style="fill:#ffffff;fill-opacity:1;stroke-width:0.40218455" />
    <path
       inkscape:connector-curvature="0"
       id="path75"
       d="m 145.46907,151.66811 c -0.30881,-0.37219 -1.0045,-1.35415 -1.54598,-2.18215 -1.04348,-1.59561 -2.15512,-1.91695 -3.57151,-1.0324 -0.60092,0.37528 -0.90346,0.36466 -1.40218,-0.0492 -0.34977,-0.29028 -0.63594,-0.6805 -0.63594,-0.86715 0,-0.34093 -2.84414,-4.97124 -3.61148,-5.87958 -0.2257,-0.26716 -0.41036,-0.64025 -0.41036,-0.82907 0,-0.18883 -0.31672,-0.70339 -0.70383,-1.14347 -1.60952,-1.82978 -1.71055,-2.37804 -0.59077,-3.20611 1.14807,-0.84899 3.39165,-2.64986 3.7077,-2.97609 0.1106,-0.11416 1.25809,-1.09519 2.54997,-2.18006 2.30949,-1.93943 2.34458,-2.00012 2.09253,-3.61966 -0.23885,-1.53471 -0.66674,-5.22444 -1.25681,-10.8377 -0.15727,-1.49605 -0.0865,-2.51436 0.19438,-2.79519 0.24298,-0.24297 0.44178,-0.76204 0.44178,-1.15347 0,-0.39144 0.36196,-1.35615 0.80437,-2.14381 0.4424,-0.78766 0.80436,-1.75238 0.80436,-2.14382 0,-0.39143 0.19639,-0.90808 0.43642,-1.1481 0.31375,-0.31376 0.25433,-0.7885 -0.21143,-1.68918 l -0.64783,-1.25276 h 1.39424 c 0.76683,0 1.50609,0.18098 1.64281,0.40218 0.1367,0.2212 1.50476,0.40218 3.04012,0.40218 1.59291,0 2.79155,0.1727 2.79155,0.40219 0,0.2212 0.54295,0.40218 1.20655,0.40218 0.93843,0 1.20656,-0.17875 1.20656,-0.80437 0,-0.4424 0.15835,-0.80436 0.35191,-0.80436 0.19355,0 0.45507,-0.49771 0.58116,-1.10601 0.27223,-1.31337 1.77409,-2.11147 3.97332,-2.11147 h 1.52856 v -2.791557 c 0,-1.535357 -0.18098,-2.903406 -0.40219,-3.04012 -0.2212,-0.136706 -0.40218,-1.307651 -0.40218,-2.602099 v -2.353531 l 2.51366,0.922336 c 5.65708,2.075763 6.68342,2.593293 10.05221,5.068775 l 3.51672,2.584183 -0.19139,4.625113 c -0.10526,2.54382 -0.3014,8.87823 -0.43587,14.07646 -0.23735,9.17528 -0.27184,9.48071 -1.18117,10.45681 -1.03932,1.11565 -1.28255,2.82325 -1.64697,11.5628 l -0.20544,4.92676 h -1.38466 -1.38466 v -4.02185 -4.02184 h -1.98718 c -1.09296,0 -2.09905,0.18098 -2.23576,0.40218 -0.13671,0.22121 -1.14279,0.40219 -2.23575,0.40219 -1.09295,0 -1.98718,0.18098 -1.98718,0.40219 0,0.2212 -0.89424,0.40217 -1.98719,0.40217 -1.09295,0 -2.09904,0.18099 -2.23575,0.40219 -0.13671,0.2212 -0.92574,0.40219 -1.75339,0.40219 -2.29358,0 -3.66922,0.79081 -3.67296,2.11147 -0.003,0.99528 -0.14406,1.10601 -1.41079,1.10601 -0.7742,0 -1.40765,0.18098 -1.40765,0.40218 0,0.2212 -0.27147,0.40218 -0.60327,0.40218 -0.69101,0 -0.86074,2.20652 -0.20109,2.6142 0.2212,0.13671 0.40218,0.88322 0.40218,1.65891 0,0.7757 0.18512,1.75625 0.41138,2.17902 0.29263,0.54679 0.26611,1.00127 -0.0919,1.57453 -0.70231,1.12458 -1.35499,1.2844 -2.01193,0.49264 z"
       style="fill:#ffffff;fill-opacity:1;stroke-width:0.40218455" />
    <path
       inkscape:connector-curvature="0"
       id="path77"
       d="m 128.35939,133.67537 c -2.04036,-2.10082 -2.55039,-2.99428 -1.70928,-2.99428 0.2212,0 0.40218,-0.42398 0.40218,-0.94217 0,-0.62323 -0.60734,-1.44974 -1.79408,-2.44153 -1.60599,-1.34216 -1.76909,-1.63343 -1.55556,-2.77804 0.13119,-0.70327 0.39558,-1.45061 0.58754,-1.66075 0.60649,-0.66397 0.37902,-2.08029 -0.45538,-2.8354 -1.12107,-1.01457 -1.00495,-2.04163 0.40033,-3.54093 0.66258,-0.7069 1.20553,-1.42267 1.20655,-1.59059 8e-4,-0.16791 0.54481,-0.87343 1.20842,-1.56783 0.6636,-0.6944 1.20656,-1.46723 1.20656,-1.71739 0,-0.25016 0.36195,-0.71573 0.80436,-1.0346 0.82334,-0.59342 1.12662,-2.41311 0.40218,-2.41311 -0.2212,0 -0.40218,-0.54294 -0.40218,-1.20655 0,-0.6636 -0.18099,-1.20655 -0.40219,-1.20655 -0.22119,0 -0.40217,-0.19391 -0.40217,-0.43092 0,-0.52018 1.00894,-1.58001 1.50417,-1.58001 0.19529,0 0.70592,-0.32163 1.13473,-0.71475 0.42881,-0.39311 1.4131,-1.15357 2.18731,-1.68991 0.7742,-0.53633 1.49813,-1.07436 1.60874,-1.19562 0.69142,-0.758048 2.07961,-1.196028 2.71474,-0.856508 0.38711,0.206922 1.02054,0.474251 1.40765,0.59406 0.46359,0.143478 0.70382,0.625858 0.70382,1.413268 0,0.65749 0.18099,1.30729 0.40219,1.444 0.2212,0.13671 0.40218,0.59435 0.40218,1.01697 0,0.42262 0.35887,1.40734 0.7975,2.18828 0.43862,0.78093 0.65232,1.41988 0.47489,1.41988 -0.17744,0 -0.56903,0.90491 -0.87021,2.01092 -0.30118,1.106 -0.65634,2.01092 -0.78927,2.01092 -0.6388,0 -1.27889,3.73938 -1.04557,6.10824 0.13753,1.3963 0.34831,3.9866 0.46839,5.7562 0.12009,1.76962 0.38618,3.38941 0.5913,3.59956 0.97614,0.99998 0.17141,2.1387 -3.68637,5.21637 -0.53239,0.42472 -1.76263,1.46537 -2.73387,2.31255 -0.97126,0.84719 -1.96666,1.52682 -2.21202,1.5103 -0.24536,-0.0166 -1.39627,-1.00836 -2.55758,-2.20408 z"
       style="fill:#ffffff;fill-opacity:1;stroke-width:0.40218455" />
    <path
       inkscape:connector-curvature="0"
       id="path79"
       d="m 106.47067,149.63856 c -0.6716,-1.40767 -1.85653,-3.26275 -2.63316,-4.12239 -1.33598,-1.47877 -1.53959,-1.56299 -3.77838,-1.56299 -2.240683,0 -2.366313,-0.0522 -2.366313,-0.98173 0,-0.53995 0.180988,-1.09357 0.402188,-1.23029 0.221199,-0.1367 0.402187,-0.62045 0.402187,-1.07498 0,-0.85128 1.574768,-4.04894 2.111468,-4.28748 0.1659,-0.0737 0.30164,-1.90075 0.30164,-4.06005 0,-4.42005 -0.43357,-5.25722 -2.72268,-5.25722 -0.688436,0 -1.36355,-0.18099 -1.500264,-0.40219 -0.136706,-0.2212 -0.625139,-0.40219 -1.0854,-0.40219 -1.044638,0 -1.9014,-1.08679 -1.918186,-2.43321 -0.0072,-0.56406 -0.208635,-1.22141 -0.447998,-1.46078 -0.443618,-0.44361 0.03528,-1.65324 1.124936,-2.84167 0.268746,-0.29311 0.805474,-1.06929 1.192715,-1.72484 0.387249,-0.65555 0.846052,-1.19192 1.019555,-1.19192 0.17351,0 0.315472,-0.36196 0.315472,-0.80437 0,-0.4424 0.180988,-0.80437 0.402187,-0.80437 0.2212,0 0.40218,-0.36196 0.40218,-0.80436 0,-0.44241 0.180988,-0.80438 0.402188,-0.80438 0.221199,0 0.402187,-0.36196 0.402187,-0.80437 0,-0.44686 0.268125,-0.80436 0.603273,-0.80436 0.331804,0 0.603282,-0.18099 0.603282,-0.40219 0,-0.2212 0.723923,-0.40218 1.608733,-0.40218 0.88481,0 1.60874,-0.18099 1.60874,-0.40219 0,-1.12122 1.88548,-0.1057 4.48034,2.41311 1.59516,1.54841 3.1249,2.81529 3.3994,2.81529 0.27451,0 0.55943,0.14628 0.63317,0.32505 0.0737,0.17878 0.98109,0.90271 2.01635,1.60874 1.38816,0.9467 2.33089,1.28369 3.59111,1.28369 2.054,0 4.346,0.74207 5.21773,1.68932 0.65696,0.71387 0.60422,2.94401 -0.0796,3.36665 -0.1957,0.12094 -0.35582,0.74005 -0.35582,1.37579 0,0.87811 0.42499,1.50414 1.76839,2.60495 2.07765,1.70248 2.16332,3.02882 0.19564,3.02882 -0.87978,0 -1.15966,0.1884 -1.15966,0.78063 0,0.42935 -0.18098,0.89249 -0.40218,1.0292 -0.2212,0.13672 -0.40219,1.85605 -0.40219,3.82076 0,1.9647 0.18099,3.68404 0.40219,3.82075 0.2212,0.13671 0.40218,0.41887 0.40218,0.62702 0,0.50563 -1.49477,0.48602 -1.80983,-0.0237 -0.1367,-0.2212 -0.64509,-0.40078 -1.12974,-0.39905 -1.00819,0.004 -1.88664,1.53758 -1.88664,3.29452 0,1.0361 0.12249,1.12637 1.5283,1.12637 0.84057,0 1.74548,0.21718 2.01092,0.48262 0.63141,0.63141 0.61927,3.3099 -0.0201,4.43405 -1.02019,1.7937 -1.19518,1.83995 -7.50184,1.98278 l -6.12756,0.13878 z"
       style="fill:#ffffff;fill-opacity:1;stroke-width:0.40218455" />
    <path
       inkscape:connector-curvature="0"
       id="path81"
       d="m 95.882989,138.72478 c -0.136706,-0.2212 -1.116447,-0.40219 -2.177194,-0.40219 -1.872137,0 -2.000044,-0.0795 -4.366411,-2.71474 -3.78471,-4.21471 -11.075446,-11.50725 -12.062544,-12.06554 -0.488887,-0.2765 -1.488583,-0.50273 -2.221555,-0.50273 -0.732964,0 -1.504596,-0.16565 -1.714735,-0.36812 -0.210148,-0.20247 -0.830995,-0.42871 -1.379675,-0.50274 -0.77258,-0.10424 -1.257023,-0.67892 -2.14766,-2.5477 -1.60781,-3.37361 -2.092772,-3.82076 -4.143778,-3.82076 -2.675828,0 -2.808146,0.1836 7.590672,-10.53223 2.098075,-2.16203 2.312562,-2.2899 2.312562,-1.37864 0,0.55243 0.18098,1.11627 0.402188,1.25298 0.2212,0.13671 0.402179,0.74242 0.402179,1.34603 0,0.6093 0.491969,1.68427 1.106008,2.41669 1.082692,1.2914 1.122968,1.30357 1.910375,0.57715 0.442407,-0.40814 1.437811,-1.18102 2.212015,-1.71752 0.774212,-0.5365 1.681061,-1.25551 2.015222,-1.59781 1.007212,-1.03171 2.329148,-1.62781 3.609909,-1.62781 0.666602,0 1.212009,0.18098 1.212009,0.40218 0,0.2212 0.284664,0.40218 0.632577,0.40218 0.34792,0 1.683322,1.12142 2.967562,2.49205 l 2.334985,2.49204 -0.679167,2.03254 c -0.793999,2.37618 -0.683061,3.34232 0.403725,3.51598 0.701168,0.11204 0.608242,0.37241 -0.87937,2.46388 -1.865281,2.62245 -1.962969,3.27143 -0.956616,6.35487 0.86963,2.66452 1.143926,3.02422 2.523649,3.30944 0.601187,0.12428 1.817002,0.37279 2.70181,0.55225 l 1.608734,0.32629 0.116887,3.31659 c 0.110636,3.13936 0.05048,3.41307 -1.125334,5.12208 -1.253161,1.82142 -1.753992,2.13957 -2.209029,1.40331 z"
       style="fill:#ffffff;fill-opacity:1;stroke-width:0.40218455" />
    <path
       inkscape:connector-curvature="0"
       id="path83"
       d="m 95.135397,113.31892 c 0.137877,-0.73667 0.407738,-1.51134 0.599682,-1.72149 0.813007,-0.89005 0.193521,-2.08675 -2.37984,-4.59725 -3.430124,-3.34634 -4.010799,-3.66764 -6.628251,-3.66764 -1.667308,0 -2.254346,0.17434 -2.708443,0.80437 -0.318864,0.4424 -0.784436,0.80437 -1.034597,0.80437 -0.250161,0 -0.985394,0.4977 -1.633857,1.106 -2.322468,2.17867 -2.474263,2.25461 -3.152005,1.57686 -0.337975,-0.33796 -0.614493,-1.26085 -0.614493,-2.05086 0,-0.79 -0.18098,-1.43637 -0.40218,-1.43637 -0.221208,0 -0.402187,-0.99541 -0.402187,-2.21202 0,-1.21661 0.180979,-2.212012 0.402187,-2.212012 0.2212,0 0.40218,-0.803738 0.40218,-1.78609 0,-0.982353 0.180987,-1.897953 0.402187,-2.034659 0.2212,-0.136714 0.40218,-0.951138 0.40218,-1.809836 0,-0.858698 0.180987,-1.673122 0.402187,-1.809828 0.2212,-0.136714 0.402188,-0.582872 0.402188,-0.99147 0,-0.430734 0.844985,-1.349973 2.010921,-2.187609 3.067051,-2.203456 2.764231,-2.734928 -1.508195,-2.647042 -4.63757,0.0954 -4.524577,0.115629 -4.524577,-0.809925 0,-0.4424 -0.18098,-0.804367 -0.40218,-0.804367 -0.2212,0 -0.402187,-0.42778 -0.402187,-0.950621 0,-1.113071 -1.804852,-3.071222 -2.830777,-3.071222 -0.657835,0 -0.668608,-0.138068 -0.146246,-1.873754 0.310153,-1.03056 0.563913,-2.340838 0.563913,-2.911727 v -1.037981 l 1.005461,1.084349 c 0.553004,0.596385 1.005684,1.227982 1.005955,1.403531 2.7e-4,0.175557 0.444056,0.834953 0.986182,1.465316 0.923547,1.073869 1.120023,1.129394 3.116436,0.880659 1.171916,-0.145999 3.968421,-0.356338 6.214469,-0.467411 l 4.083707,-0.201946 0.215865,2.136583 c 0.118726,1.175117 0.335467,2.802891 0.481656,3.617275 l 0.265792,1.4807 3.478323,0.192899 c 5.24731,0.290995 6.309498,0.591107 9.838167,2.779655 3.01296,1.868698 3.33787,1.981141 4.50498,1.55911 1.66855,-0.603353 4.02091,-0.578405 4.51606,0.04794 0.85396,1.080137 0.8324,2.752821 -0.0471,3.652495 -0.47033,0.481139 -1.66958,1.865592 -2.66499,3.076558 -0.9954,1.210974 -2.48852,2.92872 -3.31802,3.81721 -1.45579,1.55932 -1.50819,1.71686 -1.50819,4.53348 0,2.82561 -0.0311,2.91802 -0.98173,2.91802 -0.53994,0 -1.09358,0.18098 -1.23028,0.40218 -0.13672,0.2212 -0.82609,0.40794 -1.53194,0.41497 -1.630867,0.0162 -2.359548,0.58206 -3.60481,2.79906 -1.260725,2.24455 -1.986404,2.57108 -1.643619,0.73958 z"
       style="fill:#ffffff;fill-opacity:1;stroke-width:0.40218455" />
    <path
       inkscape:connector-curvature="0"
       id="path85"
       d="m 124.4381,94.5609 c -1.10601,-0.06856 -2.18286,-0.294801 -2.39301,-0.502734 -0.21014,-0.207926 -1.30508,-0.378053 -2.43321,-0.378053 -1.12813,0 -2.22308,-0.168079 -2.43322,-0.373513 -0.21014,-0.205433 -0.99727,-0.431658 -1.74916,-0.502726 -1.4005,-0.132383 -1.63045,-0.37849 -2.46924,-2.642877 -0.48004,-1.295874 -0.50728,-1.307102 -3.17026,-1.307102 -1.47733,0 -2.88695,0.200887 -3.13247,0.446421 -0.3271,0.327098 -0.91295,0.135687 -2.19191,-0.716123 -0.96002,-0.639392 -2.27877,-1.428479 -2.93055,-1.753514 -1.53096,-0.763478 -3.842253,-3.062511 -3.842253,-3.821864 0,-0.324431 0.334161,-0.589872 0.742583,-0.589872 0.408415,0 1.313329,-0.284728 2.01092,-0.632736 1.18946,-0.593376 1.26835,-0.768479 1.26835,-2.815289 v -2.182561 h 1.98718 c 1.09296,0 2.09904,0.180988 2.23576,0.402188 0.40153,0.649705 2.50116,0.472491 2.77225,-0.233988 0.13427,-0.349896 0.24413,-1.216437 0.24413,-1.925656 0,-0.985219 0.45077,-1.768628 1.91037,-3.320077 1.86447,-1.981794 1.92899,-2.012841 2.68457,-1.291821 0.42581,0.406328 1.014,0.738777 1.3071,0.738777 0.2931,0 0.53291,0.18098 0.53291,0.40218 0,0.690538 1.00164,0.440122 1.60874,-0.40218 0.59343,-0.823343 2.4131,-1.126624 2.4131,-0.402188 0,0.2212 0.51032,0.402188 1.13403,0.402188 0.70929,0 1.46246,0.377726 2.01092,1.008519 0.7516,0.864414 0.8769,1.491767 0.8769,4.390515 0,2.20934 0.16187,3.435945 0.46682,3.537598 0.2938,0.09793 0.43907,1.004736 0.39195,2.446625 -0.0439,1.345777 0.0953,2.291015 0.33756,2.291015 0.22683,0 0.41241,0.51514 0.41241,1.144763 0,1.854268 1.11249,3.681447 2.24147,3.681447 0.76665,0 0.976,0.210578 0.976,0.981732 0,0.539944 -0.18097,1.093577 -0.40217,1.230284 -0.22121,0.136714 -0.40219,0.565258 -0.40219,0.952332 0,1.352402 -0.89757,1.869653 -3.01638,1.73829 z"
       style="fill:#ffffff;fill-opacity:1;stroke-width:0.40218455" />
    <path
       inkscape:connector-curvature="0"
       id="path87"
       d="m 90.453498,83.705938 c 0,-0.619366 -0.170127,-1.298056 -0.378053,-1.508195 -0.207933,-0.21014 -0.434158,-1.286988 -0.502734,-2.392995 l -0.124674,-2.01093 h -4.424031 c -2.433215,0 -5.331931,0.146915 -6.441593,0.326469 l -2.017571,0.326461 -1.694606,-2.455758 c -1.647497,-2.387477 -1.687653,-2.52236 -1.444253,-4.851039 0.137693,-1.317405 0.382933,-2.39528 0.544969,-2.39528 0.162044,0 0.403207,-0.542955 0.535932,-1.206555 0.169927,-0.849644 0.475199,-1.206554 1.031993,-1.206554 0.434883,0 0.902549,-0.18098 1.039255,-0.402188 0.136714,-0.2212 0.599849,-0.402179 1.029198,-0.402179 0.429349,0 0.78063,-0.180988 0.78063,-0.402188 0,-0.2212 0.361967,-0.402179 0.804375,-0.402179 0.4424,0 0.804367,-0.180988 0.804367,-0.402188 0,-0.2212 0.742026,-0.402187 1.648954,-0.402187 1.339041,0 1.905964,0.257008 3.016383,1.367428 0.752091,0.752083 1.367651,1.521262 1.367921,1.709288 7.25e-4,0.516837 1.844817,2.553869 2.311958,2.553869 0.224966,0 0.509471,-0.316722 0.632234,-0.70382 0.298407,-0.940954 1.60449,-3.083175 1.98208,-3.250992 0.165898,-0.07374 0.301633,-0.480948 0.301633,-0.904914 0,-0.423974 0.180987,-0.770859 0.402187,-0.770859 0.2212,0 0.402188,-0.361968 0.402188,-0.804368 0,-0.727015 0.268117,-0.804367 2.788183,-0.804367 2.337979,0 2.825521,0.117604 3.019368,0.728362 0.127143,0.400595 0.84763,1.325854 1.60109,2.056135 1.335199,1.294122 2.243789,1.378409 2.243789,0.208149 0,-0.318745 0.18098,-0.579536 0.40218,-0.579536 0.22121,0 0.40219,-0.361968 0.40219,-0.804375 0,-0.446868 0.26812,-0.804368 0.60327,-0.804368 0.3318,0 0.60328,-0.180979 0.60328,-0.402187 0,-0.2212 0.27148,-0.40218 0.60327,-0.40218 0.33516,0 0.60328,0.357492 0.60328,0.804367 0,0.4424 0.18098,0.804368 0.40218,0.804368 0.22121,0 0.40219,0.361967 0.40219,0.804375 0,0.58468 0.26813,0.804367 0.98173,0.804367 0.53995,0 1.09357,-0.180988 1.23029,-0.402188 0.1367,-0.2212 0.87735,-0.402179 1.64588,-0.402179 1.05366,0 1.73461,0.33729 2.76875,1.371433 0.7543,0.754297 1.92465,1.698228 2.60079,2.097637 0.67615,0.399408 1.22936,0.958655 1.22936,1.242762 0,0.753165 -0.71361,0.632457 -1.70139,-0.28781 -1.38793,-1.293047 -2.36695,-0.986039 -4.8467,1.519861 -1.9282,1.948541 -2.29997,2.554498 -2.29997,3.748853 v 1.424633 l -2.71475,-0.337481 c -4.18062,-0.519711 -4.52457,-0.343876 -4.52457,2.313064 v 2.21864 l -1.818376,0.779444 c -2.055505,0.881097 -2.508814,1.620487 -1.862781,3.038375 l 0.446437,0.979813 h -3.20886 -3.208852 z"
       style="fill:#ffffff;fill-opacity:1;stroke-width:0.40218455" />
    <path
       inkscape:connector-curvature="0"
       id="path89"
       d="m 87.738756,66.839607 c -0.276502,-0.09509 -0.502958,-0.38404 -0.50322,-0.642108 -7.97e-4,-0.612717 -1.575099,-2.343689 -2.71315,-2.982867 -1.387335,-0.779188 -4.691264,-0.621882 -6.335512,0.301641 -0.787661,0.4424 -1.698085,0.804367 -2.023161,0.804367 -0.325075,0 -0.591042,0.18098 -0.591042,0.402188 0,0.2212 -0.271477,0.402179 -0.603273,0.402179 -0.383897,0 -0.603281,-0.386087 -0.603281,-1.06167 0,-1.36074 -1.023688,-2.126853 -2.863536,-2.143018 -1.425358,-0.0125 -1.460171,-0.0508 -1.660461,-1.827784 -0.122158,-1.083799 0.03384,-2.501521 0.387194,-3.519109 0.840239,-2.419662 0.481601,-4.816854 -1.293461,-8.645566 -1.772809,-3.823871 -2.708595,-4.520819 -6.070047,-4.520819 -1.169576,0 -2.238349,-0.18098 -2.375055,-0.40218 -0.136714,-0.221208 -1.313098,-0.402187 -2.614203,-0.402187 -1.301097,0 -2.477489,-0.18098 -2.614195,-0.402188 -0.306761,-0.49634 -6.504293,-0.538551 -6.808482,-0.04634 -0.24899,0.402873 -2.641849,0.836665 -2.644716,0.479443 -7.96e-4,-0.127588 -0.543974,-0.810363 -1.206555,-1.517264 -0.66258,-0.70691 -1.204691,-1.387168 -1.204691,-1.511675 0,-0.209336 -1.507224,-2.01863 -2.736194,-3.28458 -0.434246,-0.447305 0.16949,-1.22877 3.519117,-4.555059 2.223809,-2.208313 4.043287,-4.292891 4.043287,-4.632403 0,-0.339511 0.180988,-0.617287 0.402188,-0.617287 0.2212,0 0.402187,-0.361968 0.402187,-0.804368 0,-0.442407 0.18098,-0.804375 0.40218,-0.804375 0.2212,0 0.402187,-0.361959 0.402187,-0.804367 0,-0.695841 0.268125,-0.804367 1.987185,-0.804367 1.092956,0 2.099038,-0.180987 2.235752,-0.402187 0.136707,-0.2212 0.679661,-0.40218 1.206555,-0.40218 0.526894,0 1.069841,-0.180987 1.206555,-0.402187 0.136706,-0.2212 0.65414,-0.402188 1.149851,-0.402188 0.495711,0 1.094007,-0.192717 1.329548,-0.428266 0.281129,-0.28112 2.001502,-0.348255 5.007198,-0.195392 2.518418,0.128075 7.022205,0.330729 10.008424,0.450331 2.986227,0.119602 5.601425,0.388515 5.811573,0.59758 0.210139,0.209064 0.798331,0.380122 1.307093,0.380122 0.554127,0 0.925029,0.241888 0.925029,0.603274 0,0.331803 -0.18098,0.603281 -0.402188,0.603281 -0.2212,0 -0.40218,0.351281 -0.40218,0.78063 0,0.429348 -0.180987,0.892484 -0.402187,1.029198 -0.2212,0.136706 -0.40218,0.599849 -0.40218,1.029198 0,0.429349 -0.180987,0.78063 -0.402187,0.78063 -0.2212,0 -0.402188,0.351289 -0.402188,0.780637 0,0.429349 -0.180979,0.892484 -0.402179,1.029198 -0.221208,0.136707 -0.402188,0.623866 -0.402188,1.082566 0,0.867329 1.022533,1.940912 2.915836,3.06142 0.608306,0.360008 1.106008,0.796523 1.106008,0.970034 0,0.459472 1.517193,0.386779 1.809835,-0.08672 0.136707,-0.2212 0.69034,-0.402188 1.230284,-0.402188 0.756288,0 0.981732,0.212417 0.981732,0.925028 0,0.508762 0.163429,1.096954 0.363185,1.307102 0.199756,0.210139 0.462713,1.196497 0.584354,2.191901 0.273571,2.23881 0.918347,5.897333 1.275847,7.239319 0.147313,0.553004 1.262502,1.808777 2.478182,2.790596 2.572366,2.077523 3.530981,3.28176 5.462266,6.861833 0.905583,1.678719 1.297658,2.830084 1.095656,3.217476 -0.173024,0.331804 -0.511023,1.100983 -0.751111,1.709289 -0.413312,1.047202 -0.57452,1.106008 -3.031958,1.106008 -2.376934,0 -2.660141,0.09311 -3.364024,1.106007 -0.422724,0.608306 -1.022175,1.6942 -1.332121,2.41311 -0.309938,0.718901 -0.687059,1.307093 -0.83805,1.307093 -0.150984,0 -0.33303,0.243703 -0.404553,0.541561 -0.07151,0.297859 -0.356257,0.463757 -0.632759,0.368672 z"
       style="fill:#ffffff;fill-opacity:1;stroke-width:0.40218455" />
    <path
       inkscape:connector-curvature="0"
       id="path91"
       d="m 120.04617,69.600988 c -0.11905,-0.192638 -0.71793,-0.454169 -1.33084,-0.581193 -0.61291,-0.127023 -2.37662,-1.409941 -3.91937,-2.850922 -2.79768,-2.613136 -2.81178,-2.620271 -5.41273,-2.736831 -2.40881,-0.107944 -2.62559,-0.193569 -2.84163,-1.122324 -0.19507,-0.838702 -0.50237,-1.025375 -1.85278,-1.1255 -1.31285,-0.09735 -1.82308,0.08411 -2.69872,0.959754 -0.59389,0.593893 -1.08064,1.281349 -1.08166,1.527688 -8e-4,0.246339 -0.54398,-0.130487 -1.206557,-0.837405 -1.166366,-1.244394 -1.537339,-2.133279 -0.89031,-2.133279 0.172906,0 0.552606,-0.806827 0.843775,-1.792946 0.487502,-1.651073 0.462622,-1.886717 -0.314381,-2.977922 -0.464075,-0.651735 -0.843775,-1.383266 -0.843775,-1.625624 0,-0.242349 -0.138291,-0.44064 -0.30731,-0.44064 -0.16902,0 -0.6353,-0.757083 -1.036182,-1.682406 -0.649712,-1.499691 -5.608281,-6.734937 -6.398562,-6.755592 -0.165898,-0.004 -0.30164,-0.460341 -0.30164,-1.013344 0,-0.553004 -0.18098,-1.005461 -0.40218,-1.005461 -0.221208,0 -0.402187,-0.894236 -0.402187,-1.987185 0,-1.092956 -0.18098,-2.099038 -0.402188,-2.235752 -0.2212,-0.136706 -0.40218,-1.142796 -0.40218,-2.235753 0,-1.092949 -0.180987,-1.987184 -0.402187,-1.987184 -0.2212,0 -0.402188,-0.542947 -0.402188,-1.206555 v -1.206554 h -2.627604 c -2.466731,0 -2.713786,-0.08618 -4.035253,-1.407641 -0.774203,-0.774212 -1.220625,-1.407648 -0.992051,-1.407648 0.228574,0 0.415589,-0.361967 0.415589,-0.804367 0,-0.442408 0.180988,-0.804375 0.402187,-0.804375 0.2212,0 0.40218,-0.361959 0.40218,-0.804367 0,-0.4424 0.180988,-0.804367 0.402188,-0.804367 0.221199,0 0.402187,-0.351289 0.402187,-0.780638 0,-0.429341 0.18098,-0.892484 0.40218,-1.02919 0.2212,-0.136714 0.402187,-0.584768 0.402187,-0.995683 0,-1.087342 0.85552,-1.199857 1.829257,-0.240581 0.465652,0.458739 1.449621,1.286533 2.186582,1.839537 0.73697,0.553004 1.569828,1.231693 1.850797,1.508195 0.317288,0.312232 1.655715,0.502727 3.53224,0.502727 1.66175,0 3.133229,0.180987 3.269935,0.402187 0.136714,0.2212 0.736173,0.40218 1.332145,0.40218 0.682782,0 1.504787,0.446278 2.222367,1.206554 1.108589,1.174552 1.239239,1.206555 4.925459,1.206555 h 3.78666 v 2.590466 c 0,1.424752 -0.18099,2.702319 -0.40219,2.839026 -0.2212,0.136714 -0.40218,0.86064 -0.40218,1.608742 0,0.748093 -0.18098,1.472028 -0.40218,1.608734 -0.68271,0.421935 -0.45585,2.84315 0.3333,3.55733 0.40453,0.366084 0.87429,0.665607 1.04393,0.665607 0.16963,0 0.78882,0.340778 1.37597,0.757282 2.41808,1.715301 4.19096,2.514031 4.62246,2.08254 0.23469,-0.234689 0.92279,-0.426713 1.52909,-0.426713 0.60632,0 1.21424,-0.18098 1.35095,-0.402188 0.13671,-0.2212 0.78083,-0.402179 1.43138,-0.402179 0.65055,0 1.18282,-0.180988 1.18282,-0.402188 0,-0.2212 0.27148,-0.402179 0.60327,-0.402179 0.94504,0 0.70728,1.373257 -0.40524,2.340575 -0.55469,0.482294 -1.14288,0.877737 -1.30709,0.878756 -0.16422,7.97e-4 -0.84153,0.508619 -1.50514,1.127993 -0.6636,0.619375 -1.52327,1.246298 -1.91038,1.393164 -1.25469,0.476035 -0.81547,1.786792 0.92685,2.766031 l 1.63067,0.916492 -1.22849,1.072587 c -0.79952,0.698055 -1.22848,1.450314 -1.22848,2.154357 0,1.162177 0.8107,2.230871 1.69232,2.230871 0.29877,0 0.8041,0.361967 1.12297,0.804367 0.31887,0.4424 0.81885,0.804367 1.11106,0.804367 0.29222,0 0.91984,0.361968 1.3947,0.804375 0.47487,0.4424 1.10074,0.804367 1.39083,0.804367 0.29009,0 0.52744,0.18098 0.52744,0.40218 0,0.221208 0.23735,0.402187 0.52744,0.402187 0.2901,0 0.91597,0.361968 1.39083,0.804368 0.47487,0.442407 1.03113,0.804375 1.23614,0.804375 0.20501,0 0.65322,0.428066 0.99603,0.951257 0.64131,0.97877 0.28386,1.864031 -0.75266,1.864031 -0.25475,0 -1.03133,0.542947 -1.72573,1.206555 -0.90358,0.863507 -1.65706,1.206554 -2.65011,1.206554 -0.76317,0 -1.48498,-0.157608 -1.60403,-0.350237 z"
       style="fill:#ffffff;fill-opacity:1;stroke-width:0.40218455" />
    <path
       inkscape:connector-curvature="0"
       id="path93"
       d="m 154.62354,65.562144 c -0.15687,-0.253808 -1.57582,-0.437137 -3.38348,-0.437137 -1.71231,0 -3.28523,-0.171042 -3.49537,-0.380098 -0.21015,-0.209057 -1.44717,-0.43529 -2.74895,-0.502735 l -2.36688,-0.122628 -1.05169,-1.971856 c -0.75486,-1.415324 -0.9098,-2.020724 -0.54897,-2.144992 0.2765,-0.09521 0.50274,-0.520006 0.50274,-0.943971 0,-0.423974 0.18098,-0.77086 0.40218,-0.77086 0.90228,0 0.29667,-0.895605 -1.43338,-2.119758 -2.28405,-1.616147 -4.0331,-1.910916 -12.83752,-2.163553 -3.75677,-0.107801 -6.92397,-0.319294 -7.03823,-0.469999 -0.30325,-0.399966 -2.50578,-1.694733 -3.32468,-1.954433 -0.38709,-0.122764 -0.69682,-0.337832 -0.68826,-0.477939 0.009,-0.140098 1.28334,-1.159159 2.83286,-2.264578 l 2.8173,-2.009846 -0.11811,-2.008231 c -0.12858,-2.186152 -0.80174,-2.696984 -2.48353,-1.884638 -0.46863,0.22636 -1.30452,0.503092 -1.85752,0.61497 -0.553,0.11187 -1.72358,0.386812 -2.60128,0.610974 -1.39339,0.355875 -1.82703,0.280945 -3.41857,-0.590724 -1.00251,-0.549062 -2.23316,-1.311266 -2.73478,-1.693785 l -0.91203,-0.695491 0.66884,-2.710299 c 0.56056,-2.271562 0.94138,-2.954017 2.3525,-4.215842 3.19583,-2.857715 3.30612,-2.913192 5.7921,-2.913192 2.2999,0 2.37987,-0.0375 3.41398,-1.60011 0.58239,-0.880062 1.0589,-1.784984 1.0589,-2.010922 0,-0.225946 0.18098,-0.410811 0.40218,-0.410811 0.2212,0 0.40219,-0.361967 0.40219,-0.804367 0,-0.4424 0.18098,-0.804367 0.40218,-0.804367 0.66189,0 0.43892,-1.33783 -0.40218,-2.41311 -0.43257,-0.553003 -0.79051,-1.231693 -0.79542,-1.508195 -0.005,-0.276502 -0.18993,-0.502726 -0.41113,-0.502726 -0.2212,0 -0.40219,-0.361967 -0.40219,-0.804367 0,-0.442408 -0.15987,-0.804375 -0.35528,-0.804375 -0.1954,0 -0.45571,-0.316715 -0.57848,-0.70382 -0.25408,-0.801198 -1.54916,-3.015467 -1.94063,-3.318023 -0.1431,-0.110604 -0.32409,-0.597286 -0.40218,-1.08153 -0.15353,-0.951975 2.20301,-3.744692 3.15983,-3.744692 0.29141,0 0.8441,-0.15986 1.22821,-0.35525 0.38409,-0.1954 1.24131,-0.5784802 1.90491,-0.8512902 0.66361,-0.27283 1.52082,-0.6559 1.90492,-0.8513 0.3841,-0.1954 0.87987,-0.35526 1.1017,-0.35526 0.22183,0 2.15229,1.7124002 4.28992,3.8053402 4.30597,4.215949 3.73638,3.981523 10.80515,4.447095 2.90823,0.191546 4.3762,0.06601 7.44041,-0.636391 2.09956,-0.481267 4.46354,-1.004131 5.25331,-1.161931 1.64334,-0.328356 5.16098,-2.762483 5.18442,-3.587513 0.0131,-0.46174 0.12154,-0.46414 0.66307,-0.0147 0.40499,0.33612 0.48028,0.59297 0.20109,0.68604 -0.24546,0.0818 -0.44628,0.76712 -0.44628,1.52289 0,0.75577 -0.18099,1.374133 -0.40219,1.374133 -0.2212,0 -0.40219,0.542947 -0.40219,1.206555 0,0.663599 -0.18098,1.206554 -0.40218,1.206554 -0.75185,0 -0.44246,3.022569 0.40218,3.929187 0.44241,0.474865 0.80438,1.14243 0.80438,1.483487 0,0.341049 0.18098,0.620091 0.40218,0.620091 0.2212,0 0.40218,0.284401 0.40218,0.632003 0,0.347602 0.27652,0.908521 0.6145,1.246496 0.63771,0.637721 0.9476,0.518453 2.52958,-0.973585 0.29318,-0.276502 0.69287,-0.502727 0.88822,-0.502727 0.19535,0 0.77062,-0.411154 1.27837,-0.913665 0.50776,-0.502519 1.46982,-1.299664 2.13792,-1.771439 1.09466,-0.772993 1.29341,-0.798697 2.01092,-0.260106 0.43791,0.328714 1.48767,0.899634 2.33281,1.268704 1.41023,0.615855 1.51481,0.77027 1.27161,1.877592 -0.14574,0.663608 -0.35378,2.311208 -0.4623,3.661341 -0.19537,2.430429 -0.16287,2.523602 3.2768,9.393963 3.14772,6.287209 3.87049,8.262131 2.53492,6.92657 -0.26176,-0.261754 -0.97199,-0.475923 -1.57829,-0.475923 -0.60632,0 -1.21424,-0.18098 -1.35095,-0.40218 -0.13671,-0.221208 -0.83288,-0.402187 -1.54705,-0.402187 -1.02596,0 -1.71417,0.422039 -3.27917,2.010921 -1.77552,1.802638 -2.16227,2.010922 -3.73382,2.010922 -1.98201,0 -2.90222,0.678618 -2.90222,2.140262 0,1.390767 -0.95398,1.598996 -2.03821,0.444893 -1.09528,-1.165873 -1.98364,-1.264978 -1.98364,-0.221288 0,0.415318 -0.27147,0.980426 -0.60327,1.255797 -0.41681,0.345922 -0.60328,0.361139 -0.60328,0.04921 0,-0.279066 -0.84459,-0.45143 -2.21202,-0.45143 -1.94389,0 -2.21201,0.0975 -2.21201,0.804375 0,0.4424 -0.18098,0.804368 -0.40218,0.804368 -0.22121,0 -0.40219,0.995403 -0.40219,2.212015 0,1.216604 0.18098,2.212015 0.40219,2.212015 0.2212,0 0.40218,0.361967 0.40218,0.804367 0,0.4424 0.18099,0.804367 0.40219,0.804367 0.2212,0 0.40218,0.27393 0.40218,0.608736 0,0.590637 0.16812,1.01762 1.14376,2.904927 0.25574,0.4947 0.46498,1.228372 0.46498,1.630385 0,0.951496 -2.62854,3.527199 -2.99478,2.934596 z"
       style="fill:#ffffff;fill-opacity:1;stroke-width:0.40218455" />
    <path
       inkscape:connector-curvature="0"
       id="path95"
       d="m 130.06867,74.330457 c -6.35363,-2.410728 -6.49458,-2.536581 -4.77132,-4.259845 0.72927,-0.729269 1.60346,-1.325941 1.94263,-1.325941 0.33917,0 0.61669,-0.159878 0.61669,-0.355279 0,-0.1954 0.36195,-0.449932 0.80436,-0.565625 0.4424,-0.115692 0.80437,-0.484475 0.80437,-0.819528 0,-0.663464 -3.44125,-4.292341 -4.07042,-4.292341 -0.21298,0 -0.77577,-0.361959 -1.25063,-0.804367 -0.47487,-0.4424 -1.10074,-0.804367 -1.39083,-0.804367 -0.29009,0 -0.52744,-0.180988 -0.52744,-0.402188 0,-0.2212 -0.23735,-0.402179 -0.52744,-0.402179 -0.2901,0 -0.91597,-0.361967 -1.39083,-0.804375 -0.47487,-0.4424 -1.0067,-0.805267 -1.18184,-0.806366 -0.17515,-7.96e-4 -0.83096,-0.412117 -1.45734,-0.913378 l -1.13888,-0.91138 0.84811,-0.767531 c 0.73894,-0.668728 1.65351,-0.788625 7.10455,-0.931391 3.82402,-0.100156 6.67343,2.79e-4 7.329,0.258331 0.58991,0.232213 2.06796,0.503531 3.28457,0.602947 2.41177,0.197065 3.54819,0.540367 4.32349,1.306074 0.59945,0.59203 0.67248,2.162694 0.10055,2.162694 -0.79783,0 -0.20297,2.81583 0.76467,3.619663 0.13314,0.110604 0.49859,0.698796 0.81212,1.307102 0.52209,1.01297 0.76533,1.106008 2.89146,1.106008 1.27677,0 2.43327,0.180979 2.56997,0.402179 0.13672,0.221208 1.69868,0.402188 3.47104,0.402188 2.25656,0 3.39468,0.17222 3.79701,0.574551 0.66671,0.666713 0.75244,1.68114 0.17236,2.039652 -0.2212,0.136706 -0.40217,0.599849 -0.40217,1.02919 0,0.429348 -0.18099,0.780637 -0.40219,0.780637 -0.2212,0 -0.40219,0.44901 -0.40219,0.997801 0,1.155959 -1.33696,1.68114 -3.12436,1.22729 -0.60421,-0.15342 -1.8225,-0.373402 -2.70731,-0.488847 -0.88481,-0.115438 -1.78068,-0.372343 -1.99082,-0.570881 -0.21014,-0.198545 -1.27037,-0.360995 -2.35605,-0.360995 -1.69978,0 -2.39163,0.279336 -4.98057,2.010921 -1.65361,1.106008 -3.30814,2.00405 -3.67671,1.995649 -0.36857,-0.0084 -2.11799,-0.564638 -3.88761,-1.236073 z"
       style="fill:#ffffff;fill-opacity:1;stroke-width:0.40218455" />
    <path
       inkscape:connector-curvature="0"
       id="path97"
       d="m 137.71018,98.104144 c -0.13671,-0.221208 -0.50164,-0.402187 -0.81096,-0.402187 -0.30933,0 -1.61077,-0.976779 -2.89211,-2.170625 -1.28133,-1.193846 -2.85058,-2.607052 -3.48721,-3.140467 -1.0572,-0.885803 -1.10948,-1.04776 -0.60327,-1.869032 0.50211,-0.814631 0.45968,-0.972319 -0.45123,-1.676808 -0.553,-0.427685 -1.25698,-0.781634 -1.5644,-0.786555 -0.84654,-0.01354 -1.62596,-1.269548 -1.64029,-2.643251 -0.007,-0.674668 -0.23902,-1.470483 -0.51552,-1.768477 -0.41308,-0.445203 -0.35929,-0.490089 0.30164,-0.251729 1.33306,0.480749 1.55509,0.457943 1.69601,-0.174196 0.0743,-0.333181 -0.58853,-1.419075 -1.47289,-2.413109 -1.55722,-1.750337 -1.60729,-1.896121 -1.5876,-4.622624 0.0112,-1.548408 0.11162,-2.589064 0.2232,-2.312562 0.11156,0.276502 0.55219,0.502734 0.97916,0.502734 0.42697,0 1.09058,0.159862 1.47468,0.355255 0.79087,0.402323 2.71581,1.216213 3.91584,1.655667 0.44241,0.162004 1.28061,0.518859 1.86269,0.792996 0.98296,0.462944 1.31837,0.323578 4.71024,-1.957117 3.45099,-2.320437 5.32605,-2.97359 5.89479,-2.053355 0.13671,0.2212 0.95113,0.402179 1.80983,0.402179 0.8587,0 1.67312,0.180988 1.80983,0.402188 0.13671,0.2212 1.0523,0.402187 2.03466,0.402187 h 1.7861 v 2.212016 c 0,1.216603 -0.18099,2.212007 -0.40219,2.212007 -0.2212,0 -0.40621,0.49771 -0.41112,1.106008 -0.005,0.608306 -0.36287,1.558472 -0.79544,2.111468 -0.43256,0.553004 -0.7905,1.153841 -0.79542,1.335187 -0.005,0.181345 -0.55189,1.118867 -1.2155,2.083383 -0.6636,0.964516 -1.20655,1.869438 -1.20655,2.010922 0,0.141492 -0.54295,1.046414 -1.20655,2.010929 -0.66361,0.964516 -1.20655,1.947283 -1.20655,2.183931 0,0.236648 -0.15253,0.430264 -0.33896,0.430264 -0.18642,0 -0.77439,0.859669 -1.30659,1.910375 -0.5322,1.050714 -1.28458,2.261226 -1.67197,2.690041 -0.38738,0.428807 -0.70433,1.017007 -0.70433,1.307102 0,0.614747 -1.84492,0.719212 -2.21202,0.125255 z"
       style="fill:#ffffff;fill-opacity:1;stroke-width:0.40218455" />
    <path
       inkscape:connector-curvature="0"
       id="path99"
       d="m 120.20894,117.79883 c -0.32839,-0.20763 -1.53333,-0.38029 -2.67768,-0.38367 -1.56431,-0.005 -2.36271,-0.23499 -3.21747,-0.92832 -0.62528,-0.50719 -1.62735,-1.23056 -2.22684,-1.6075 -0.59948,-0.37695 -2.27357,-1.79256 -3.72021,-3.1458 l -2.63023,-2.46046 v -2.59221 c 0,-2.35343 0.13251,-2.76597 1.43852,-4.47846 0.79119,-1.03744 2.1094,-2.610185 2.92937,-3.494993 0.81997,-0.884807 1.89445,-2.183094 2.38773,-2.885091 1.10135,-1.567335 2.85426,-2.049979 4.21269,-1.1599 0.64249,0.420972 1.39093,0.547573 2.23694,0.378371 0.79357,-0.158716 1.50542,-0.06004 1.89407,0.262487 0.34247,0.284226 1.4175,0.486713 2.38895,0.449965 0.97145,-0.03671 1.87877,0.115206 2.01627,0.337672 0.13748,0.222466 0.78224,0.404481 1.43279,0.404481 0.9147,0 1.18283,-0.182333 1.18283,-0.804367 0,-0.442408 0.18098,-0.804367 0.40217,-0.804367 0.2212,0 0.40219,-0.361967 0.40219,-0.804375 0,-0.4424 0.11036,-0.804367 0.24525,-0.804367 0.13488,0 1.23537,0.904914 2.44552,2.010922 1.21014,1.106007 2.36667,2.010921 2.57004,2.010921 0.20338,0 0.36978,0.193911 0.36978,0.430918 0,0.55681 -1.0232,1.580004 -1.58001,1.580004 -0.23701,0 -0.43092,0.141961 -0.43092,0.315472 0,0.17351 -0.4977,0.610267 -1.10601,0.970557 -0.6083,0.3603 -1.64895,1.12303 -2.31255,1.69497 -0.66361,0.57193 -1.43279,1.04009 -1.70929,1.04036 -0.66163,6.4e-4 -0.63167,1.80723 0.0631,3.80337 0.6356,1.82621 0.46921,2.48052 -1.06852,4.20214 -0.60831,0.68104 -1.10685,1.37557 -1.10787,1.54338 -8e-4,0.16782 -0.54397,0.8835 -1.20655,1.59041 -0.66258,0.70691 -1.2047,1.44454 -1.2047,1.63917 0,0.19465 -0.41001,0.73908 -0.91113,1.20986 -0.64722,0.60804 -1.08407,0.74662 -1.50819,0.47845 z"
       style="fill:#ffffff;fill-opacity:1;stroke-width:0.40218455" />
    <path
       inkscape:connector-curvature="0"
       id="path101"
       d="m 148.8708,104.21983 c -1.60371,-0.065 -2.91583,-0.29121 -2.91583,-0.50272 0,-0.21152 -0.93021,-0.38457 -2.06713,-0.38457 -1.49704,0 -2.21449,-0.19411 -2.60141,-0.70383 -0.61413,-0.80901 -0.73381,-2.974701 -0.19558,-3.539219 0.20036,-0.21014 0.72255,-1.01551 1.16042,-1.789722 0.43787,-0.774204 2.71722,-4.55396 5.06521,-8.399466 2.34799,-3.845506 4.26907,-7.409239 4.26907,-7.919411 0,-0.510171 0.16186,-1.027621 0.3597,-1.149891 0.19784,-0.122269 0.46236,-0.902127 0.58784,-1.733018 0.54366,-3.59994 0.77046,-4.527102 1.10739,-4.527102 0.197,0 0.35817,-0.351281 0.35817,-0.78063 0,-0.429348 0.18099,-0.892484 0.40219,-1.029198 0.2212,-0.136714 0.40219,-0.690339 0.40219,-1.230292 0,-0.539944 0.18098,-0.981723 0.40218,-0.981723 0.2212,0 0.40219,-0.27393 0.40219,-0.608736 0,-1.453196 3.22364,-5.206237 3.57171,-4.158255 0.0994,0.299228 0.69377,1.023879 1.32088,1.610327 0.62709,0.586456 1.14017,1.227138 1.14017,1.423749 0,0.196603 0.72394,1.1574 1.60874,2.135102 0.88481,0.977695 1.60874,1.944631 1.60874,2.148743 0,0.204104 0.3253,0.663807 0.7229,1.021554 0.3976,0.357755 1.15819,1.283897 1.69021,2.058101 0.53201,0.774204 1.26582,1.679118 1.63068,2.010922 0.57511,0.523016 1.98898,2.891342 1.98898,3.331695 0,0.08479 -0.99541,0.674939 -2.21201,1.311441 -2.69424,1.409576 -2.7934,2.100663 -0.60329,4.204925 1.06127,1.019659 1.60875,1.898574 1.60875,2.582662 0,0.570347 -0.1684,1.036994 -0.37422,1.036994 -0.20581,0 -0.43205,0.38873 -0.50273,0.863842 -0.18713,1.257803 -1.33357,1.869278 -2.33368,1.244696 -0.44017,-0.274885 -1.07424,-0.499796 -1.40904,-0.499796 -0.3348,0 -0.60873,-0.180987 -0.60873,-0.402187 0,-0.2212 -0.54296,-0.40218 -1.20656,-0.40218 -0.6636,0 -1.20655,-0.180987 -1.20655,-0.402187 0,-0.2212 -0.35129,-0.402188 -0.78064,-0.402188 -0.42935,0 -0.89248,-0.180979 -1.02919,-0.402179 -0.13671,-0.2212 -0.78084,-0.402188 -1.43138,-0.402188 h -1.18282 v 3.998114 c 0,2.231572 0.1777,4.10793 0.40219,4.246674 0.2212,0.136707 0.40218,0.871319 0.40218,1.632472 0,1.359925 -0.0296,1.383915 -1.70929,1.384395 -1.78722,5.3e-4 -3.90804,1.32636 -3.93409,2.45941 -0.0318,1.38542 -0.93472,1.76539 -3.90851,1.64487 z"
       style="fill:#ffffff;fill-opacity:1;stroke-width:0.40218455" />
    <path
       inkscape:connector-curvature="0"
       id="path103"
       d="m 183.57617,140.36094 c -0.14603,-0.23628 -0.61925,-0.42961 -1.0516,-0.42961 -0.43235,0 -1.10035,-0.15987 -1.48446,-0.35526 -0.3841,-0.19539 -1.21342,-0.59723 -1.84294,-0.89297 l -1.14456,-0.5377 0.25966,-3.22942 c 0.14281,-1.77619 0.29591,-4.22484 0.3402,-5.44144 l 0.0805,-2.21202 -1.54356,-0.12693 -1.54357,-0.12694 0.23163,-8.11785 c 0.1274,-4.46481 0.34119,-10.78339 0.47508,-14.04127 0.19242,-4.68152 0.13019,-6.031206 -0.2968,-6.437502 -0.67244,-0.639863 -2.6339,-2.23557 -4.18877,-3.407709 -2.58847,-1.951312 -2.80062,-2.173196 -2.2837,-2.388448 0.2765,-0.115143 0.50273,-0.468192 0.50273,-0.784564 0,-0.316372 0.15987,-0.889482 0.35526,-1.273585 1.47892,-2.907244 1.4897,-2.746482 -0.29924,-4.465287 -0.91561,-0.879727 -1.66337,-1.749429 -1.66166,-1.932678 0.002,-0.262798 2.35652,-1.844873 3.65817,-2.458506 0.13349,-0.06291 1.28699,1.113461 2.56333,2.614195 1.27634,1.500742 2.59315,2.886445 2.92623,3.079353 0.40505,0.234569 1.38227,-0.02046 2.95067,-0.770103 2.34042,-1.118621 2.34914,-1.119513 4.4182,-0.451279 2.71276,0.876129 3.13427,0.846642 3.36494,-0.235357 0.39491,-1.852358 0.99861,-5.457657 1.63309,-9.752976 1.11233,-7.53021 1.3295,-8.24478 2.50574,-8.24478 1.02059,0 1.69479,-0.590907 3.67102,-3.217476 0.58252,-0.774212 1.55741,-1.887474 2.16642,-2.47393 1.36104,-1.310605 1.36365,-1.437421 0.0579,-2.800334 -1.29376,-1.350396 -0.97886,-1.965064 1.00674,-1.965064 1.36034,0 1.86086,0.338596 4.80248,3.24877 1.80612,1.786824 3.27598,3.370427 3.26635,3.519117 -0.01,0.14869 -0.20051,1.084771 -0.42417,2.080175 -0.22367,0.995403 -0.58946,2.624252 -0.81287,3.619663 -0.91695,4.085459 -0.89204,4.741844 0.27016,7.117289 0.68267,1.39533 2.91401,4.2524 5.77418,7.393425 4.53282,4.977926 5.66701,6.817782 5.66701,9.192916 0,0.43548 0.19933,1.229257 0.44296,1.763954 0.35245,0.773559 0.31088,1.126632 -0.20353,1.728209 -0.35556,0.415812 -1.86702,2.551686 -3.35879,4.746382 -2.7583,4.05801 -4.26794,5.3789 -6.20769,5.43159 -0.59525,0.0162 -1.19413,0.21038 -1.33084,0.43158 -0.13671,0.2212 -0.67966,0.40218 -1.20655,0.40218 -0.52689,0 -1.06984,0.18099 -1.20656,0.40219 -0.1367,0.2212 -0.78082,0.40219 -1.43137,0.40219 -0.65055,0 -1.18282,0.16951 -1.18282,0.3767 0,0.20718 -0.56995,0.43341 -1.26655,0.50273 -0.69659,0.0693 -1.3924,0.3975 -1.54622,0.7293 -0.15383,0.33181 -0.4888,1.00803 -0.74439,1.50273 -0.56979,1.10288 -0.61708,4.53004 -0.0625,4.53004 0.23972,0 0.40218,1.53379 0.40218,3.79702 0,2.09751 0.18001,3.90827 0.40218,4.04558 0.2212,0.13671 0.40219,1.23329 0.40219,2.43684 0,1.20356 -0.18099,2.18828 -0.40219,2.18828 -0.2212,0 -0.40218,0.63344 -0.40218,1.40765 0,0.7742 -0.18098,1.40764 -0.40218,1.40764 -0.2212,0 -0.40219,0.45492 -0.40219,1.01092 0,1.69546 -1.07142,3.23319 -2.91584,4.18489 -0.6083,0.31388 -1.106,0.7211 -1.106,0.90492 0,0.18382 -0.1983,0.33422 -0.44065,0.33422 -0.24235,0 -0.92697,0.3463 -1.52136,0.76955 -0.76443,0.54432 -1.95965,0.81458 -4.08393,0.92347 -1.65177,0.0847 -3.30163,0.29364 -3.66636,0.46442 -0.37703,0.17655 -0.77769,0.12516 -0.92865,-0.11909 z"
       style="fill:#ffffff;fill-opacity:1;stroke-width:0.40218455" />
    <path
       inkscape:connector-curvature="0"
       id="path105"
       d="m 175.68206,82.903546 c -1.4188,-1.503083 -2.8536,-3.086687 -3.18844,-3.519117 -0.33485,-0.432431 -1.23976,-1.60066 -2.01092,-2.596072 -0.77117,-0.995403 -1.50133,-1.900317 -1.62259,-2.010921 -0.12126,-0.110596 -0.65562,-0.834531 -1.18748,-1.608734 -0.53184,-0.774204 -1.25564,-1.679126 -1.60844,-2.010922 -0.35278,-0.331804 -1.07658,-1.236718 -1.60844,-2.01093 -0.53185,-0.774203 -1.07493,-1.49813 -1.20685,-1.608734 -0.13192,-0.110604 -0.675,-0.83453 -1.20685,-1.608742 -0.53185,-0.774204 -1.24707,-1.681053 -1.58936,-2.015221 -0.84755,-0.82742 -1.62782,-2.268592 -1.62782,-3.006628 0,-0.334798 -0.18098,-0.608728 -0.40218,-0.608728 -0.2212,0 -0.40218,-0.361967 -0.40218,-0.804375 0,-0.4424 -0.18099,-0.804367 -0.40219,-0.804367 -0.2212,0 -0.40219,-0.27393 -0.40219,-0.608736 0,-0.334798 -0.18098,-0.968243 -0.40218,-1.40764 l -0.80437,-1.597826 c -0.58358,-1.159231 -0.48232,-2.090024 0.34427,-3.164754 0.98764,-1.284136 2.06137,-0.982989 3.02593,0.848657 1.05079,1.995386 1.8582,1.969562 1.8582,-0.05948 0,-1.94526 0.79493,-2.342853 2.03821,-1.019435 1.08331,1.153124 1.98364,1.267717 1.98364,0.252478 0,-0.398167 0.16565,-0.895868 0.36813,-1.106008 0.20247,-0.21014 0.42869,-0.83453 0.50272,-1.387534 0.12366,-0.923699 0.2821,-0.996479 1.94832,-0.894937 1.72177,0.104927 1.92495,-0.0024 4.00811,-2.111468 2.09822,-2.124623 3.29178,-2.69165 3.8306,-1.819814 0.13672,0.2212 0.74464,0.402188 1.35095,0.402188 0.60631,0 1.27432,0.162355 1.48446,0.360789 0.21014,0.198434 1.15125,0.485821 2.09135,0.638628 1.49179,0.242485 1.70923,0.183775 1.70882,-0.461336 -2.5e-4,-0.406543 -1.71959,-4.174045 -3.82075,-8.372209 -3.16569,-6.325137 -3.8181,-7.944597 -3.8075,-9.451335 0.007,-1.00007 0.25229,-2.133749 0.545,-2.519302 0.50605,-0.66653 0.57295,-0.66653 1.36099,0 2.20166,1.862208 2.542,2.108642 2.91204,2.108642 0.21866,0 0.39758,0.180987 0.39758,0.402187 0,0.887603 0.71683,0.316102 1.42204,-1.133726 0.88931,-1.828302 2.10896,-2.485937 4.61047,-2.485937 1.01767,0 2.04448,-0.194166 2.28179,-0.431483 0.23731,-0.237309 1.02316,-0.373052 1.74633,-0.301633 1.4912,0.147257 2.33574,1.529775 1.48496,2.43089 -0.26703,0.282833 -0.74232,1.011943 -1.0562,1.620249 -0.31389,0.608306 -0.7211,1.106007 -0.90492,1.106007 -0.18382,0 -0.33422,0.452457 -0.33422,1.005461 0,0.553004 0.18098,1.005461 0.40218,1.005461 0.2212,0 0.40219,0.237349 0.40219,0.527443 0,0.290095 0.36197,0.915967 0.80436,1.390831 0.4424,0.474864 0.80437,1.023887 0.80437,1.220052 0,0.575299 1.41267,1.687892 2.14314,1.687892 0.36969,0 0.67216,-0.165539 0.67216,-0.367867 0,-0.202328 1.13114,-0.463788 2.51365,-0.581017 1.38251,-0.117229 3.2981,-0.334121 4.25687,-0.481984 1.65923,-0.255878 1.73674,-0.223549 1.60874,0.670998 -0.0953,0.666291 -1.11222,1.586701 -3.49389,3.162405 -2.43129,1.608543 -3.62574,2.697797 -4.32348,3.942669 -0.53025,0.946042 -0.96408,1.953063 -0.96408,2.237815 0,0.284759 1.26688,3.028279 2.81529,6.096714 1.54842,3.068436 2.8153,5.726323 2.8153,5.906418 0,0.180096 -0.76918,0.333198 -1.70929,0.340237 -1.58919,0.01187 -3.11693,0.687488 -3.11693,1.378377 0,0.163366 0.56972,0.829227 1.26604,1.479688 1.17892,1.10127 1.2282,1.25336 0.7162,2.210057 -1.0902,2.037055 -4.67272,5.375885 -5.76825,5.375885 -0.77208,0 -1.0402,0.207329 -1.0402,0.804367 0,0.4424 -0.18099,0.804367 -0.40219,0.804367 -0.22344,0 -0.40218,1.072493 -0.40218,2.41311 0,1.340617 -0.17875,2.413109 -0.40219,2.413109 -0.22343,0 -0.40218,1.072492 -0.40218,2.413101 0,1.340617 -0.17875,2.413109 -0.40218,2.413109 -0.22344,0 -0.40219,1.072492 -0.40219,2.413109 0,1.340617 -0.17875,2.413109 -0.40219,2.413109 -0.2212,0 -0.40218,0.452457 -0.40218,1.005461 0,0.727152 -0.21608,1.005461 -0.78064,1.005461 -0.42934,0 -0.89248,-0.180988 -1.02919,-0.402187 -0.41332,-0.668776 -2.951,-0.452545 -4.72009,0.402187 -0.91568,0.4424 -1.78215,0.804367 -1.92552,0.804367 -0.14336,0 -1.42149,-1.22979 -2.84029,-2.732873 z"
       style="fill:#ffffff;fill-opacity:1;stroke-width:0.40218455" />
  </g>
  <path
     style="fill:none;fill-opacity:0;stroke-width:0.49154612"
     d=""
     id="path5496"
     inkscape:connector-curvature="0" />
</svg>
