<?xml version="1.0" encoding="UTF-8" standalone="no"?>
<svg
   xmlns:dc="http://purl.org/dc/elements/1.1/"
   xmlns:cc="http://creativecommons.org/ns#"
   xmlns:rdf="http://www.w3.org/1999/02/22-rdf-syntax-ns#"
   xmlns:svg="http://www.w3.org/2000/svg"
   xmlns="http://www.w3.org/2000/svg"
   xmlns:sodipodi="http://sodipodi.sourceforge.net/DTD/sodipodi-0.dtd"
   xmlns:inkscape="http://www.inkscape.org/namespaces/inkscape"
   viewBox="0 0 216.41507 232.00976"
   version="1.1"
   id="svg4302"
   sodipodi:docname="download (2).svg"
   inkscape:version="0.92.2 (5c3e80d, 2017-08-06)">
  <metadata
     id="metadata4308">
    <rdf:RDF>
      <cc:Work
         rdf:about="">
        <dc:format>image/svg+xml</dc:format>
        <dc:type
           rdf:resource="http://purl.org/dc/dcmitype/StillImage" />
      </cc:Work>
    </rdf:RDF>
  </metadata>
  <defs
     id="defs4306" />
  <sodipodi:namedview
     pagecolor="#ffffff"
     bordercolor="#666666"
     borderopacity="1"
     objecttolerance="10"
     gridtolerance="10"
     guidetolerance="10"
     inkscape:pageopacity="0"
     inkscape:pageshadow="2"
     inkscape:window-width="1920"
     inkscape:window-height="1017"
     id="namedview4304"
     showgrid="false"
     inkscape:zoom="2.0343971"
     inkscape:cx="254.0701"
     inkscape:cy="147.24684"
     inkscape:window-x="-8"
     inkscape:window-y="-8"
     inkscape:window-maximized="1"
     inkscape:current-layer="svg4302" />
  <g
     id="g4401"
     transform="translate(111.46252,-74.654762)">
    <path
       inkscape:connector-curvature="0"
       id="path49"
       d="m -99.933342,157.63249 c -0.890008,-0.6477 -3.181958,-1.94615 -8.144238,-4.61397 -1.3795,-0.74165 -1.50819,-0.95687 -1.50819,-2.52231 0,-0.94132 0.18098,-1.82334 0.40218,-1.96005 0.22121,-0.13671 0.40219,-1.76555 0.40219,-3.61966 0,-1.8541 0.18098,-3.48295 0.40218,-3.61966 0.2212,-0.13671 0.40219,-1.77624 0.40219,-3.64339 0,-1.9951 0.16582,-3.39484 0.40218,-3.39484 0.72052,0 0.438,-3.53142 -0.40218,-5.02731 -0.44241,-0.78766 -0.80437,-1.69807 -0.80437,-2.02315 0,-0.32508 -0.18098,-0.59104 -0.40219,-0.59104 -0.2212,0 -0.40218,-0.35129 -0.40218,-0.78064 0,-0.42935 -0.15937,-0.87913 -0.35416,-0.99952 -0.19479,-0.12038 -0.44117,-0.67402 -0.54751,-1.23028 -0.14869,-0.77782 -0.0259,-1.01141 0.53152,-1.01141 0.39867,0 0.82227,-0.1576 0.94132,-0.35024 0.11905,-0.19263 0.76317,-0.45958 1.43138,-0.59322 0.92487,-0.18497 1.21493,-0.46159 1.21493,-1.15865 0,-0.6846 0.48206,-1.16671 1.91037,-1.91059 1.05071,-0.5472 2.00087,-1.0975 2.11147,-1.22288 0.1106,-0.12536 0.76839,-0.49576 1.46175,-0.82309 1.074322,-0.50719 4.168834,-3.94508 4.168834,-4.63143 0,-0.12449 0.258547,-0.48488 0.57455,-0.80089 0.855283,-0.85528 3.476754,-0.69548 5.490603,0.3347 3.072483,1.57173 3.023142,1.42972 1.15732,3.33086 -1.173786,1.196 -1.620126,1.94334 -1.440382,2.41175 0.190077,0.49533 0.50364,0.59966 1.160479,0.38611 0.806401,-0.26217 2.383148,-0.51623 7.77966,-1.25354 1.58815,-0.21698 1.68255,-0.16661 2.470745,1.31847 0.470771,0.88699 1.051709,1.47681 1.36515,1.38603 0.300104,-0.0869 1.179083,-0.27032 1.953287,-0.40756 l 1.407648,-0.2495 0.121784,-2.60883 c 0.06697,-1.43486 0.293208,-2.78077 0.502726,-2.99091 0.209527,-0.21014 0.380951,-0.72173 0.380951,-1.13687 0,-0.7447 0.488162,-0.28053 2.815289,2.67691 2.182361,2.77346 2.957521,3.48581 3.357702,3.08562 0.232562,-0.23256 0.802901,-0.42283 1.267422,-0.42283 0.464521,0 1.041891,-0.19731 1.283046,-0.43846 0.474609,-0.47462 3.604701,-0.31138 8.369383,0.43647 1.548407,0.24303 3.889421,0.54165 5.202248,0.66359 2.463147,0.22879 4.249087,1.05295 4.249087,1.96084 0,0.28546 0.387663,1.3053 0.861476,2.26631 1.574717,3.19391 1.650125,3.47351 1.35624,5.02856 -0.160586,0.84972 -0.31806,3.17379 -0.349927,5.16461 l -0.05797,3.61966 1.407641,0.11284 c 2.502659,0.20064 3.217476,0.81086 3.217476,2.74668 0,0.94496 -0.18098,1.82998 -0.40218,1.96669 -0.221207,0.13671 -0.402187,1.05231 -0.402187,2.03466 0,2.00471 -0.432916,2.21606 -2.010922,0.98173 -1.527584,-1.19489 -2.80942,-1.00066 -4.644617,0.70382 -0.893129,0.8295 -2.385781,2.18688 -3.317004,3.01638 l -1.693124,1.50819 h -4.451845 -4.451837 l -3.490148,-3.41133 c -3.397063,-3.32035 -3.541859,-3.41152 -5.429245,-3.41857 -1.814439,-0.007 -3.088208,0.60887 -3.088208,1.4926 0,0.1929 -0.226224,0.83786 -0.502726,1.43323 -0.391358,0.84269 -0.787048,1.0832 -1.786099,1.08565 -0.70585,0.002 -1.395218,0.18411 -1.531924,0.40531 -0.136714,0.22121 -0.868731,0.40219 -1.626706,0.40219 -0.757976,0 -2.149913,0.1781 -3.093193,0.39578 -0.943281,0.21768 -2.245541,0.50083 -2.893912,0.62922 -0.726843,0.14394 -2.346054,1.36626 -4.222937,3.18784 l -3.044083,2.95439 -1.747966,-0.59542 c -2.02203,-0.68877 -2.877156,-0.49584 -2.877156,0.64912 0,1.06224 -0.9086,4.44608 -1.189422,4.42968 -0.120023,-0.007 -0.670681,-0.34201 -1.223685,-0.74445 z"
       style="fill:#3088d4;fill-opacity:1;stroke-width:0.40218455" />
    <path
       inkscape:connector-curvature="0"
       id="path51"
       d="m -65.968859,193.04201 c -0.210139,-0.18574 -1.015517,-0.57977 -1.789721,-0.8756 -0.774204,-0.29583 -3.850913,-1.70163 -6.837132,-3.12401 -8.233188,-3.92158 -8.017007,-3.84169 -8.312485,-3.07169 -0.137833,0.35919 -0.08821,0.77054 0.11028,0.91411 0.198486,0.14358 0.617409,0.75876 0.930938,1.36706 0.313522,0.6083 0.720447,1.10601 0.904269,1.10601 0.183823,0 0.334225,0.18098 0.334225,0.40218 0,0.2212 -0.621246,0.40219 -1.380543,0.40219 -0.976131,0 -1.434793,-0.20618 -1.565735,-0.70383 -0.101856,-0.38709 -0.413047,-1.60873 -0.691535,-2.71474 -0.60438,-2.40028 -1.38916,-3.41857 -2.634645,-3.41857 -0.505665,0 -1.031245,-0.18098 -1.167955,-0.40219 -0.13671,-0.2212 -0.572043,-0.40218 -0.967407,-0.40218 -1.641463,0 -3.608965,-1.43787 -4.726653,-3.45429 -0.406694,-0.73372 -0.318569,-0.92699 0.695939,-1.52627 1.000285,-0.59089 1.095516,-0.79199 0.685737,-1.44816 -0.261724,-0.41908 -0.936863,-0.99914 -1.500308,-1.28902 -0.563445,-0.28987 -1.370039,-0.83887 -1.792431,-1.21998 -0.750656,-0.67732 -0.734774,-0.74297 0.703823,-2.90965 0.809495,-1.21919 1.471809,-2.38539 1.471809,-2.59157 0,-0.20616 0.141705,-0.43518 0.314901,-0.50891 0.173196,-0.0737 0.707544,-0.80852 1.187441,-1.63285 l 0.872538,-1.49879 -2.792277,-2.52306 c -2.339809,-2.11421 -2.79291,-2.73101 -2.796179,-3.80642 -0.0022,-0.70585 0.177083,-1.39522 0.398284,-1.53193 0.221202,-0.13671 0.402184,-0.59417 0.402184,-1.01657 0,-0.80373 0.445754,-0.78002 2.328055,0.12384 0.838331,0.40255 1.215667,0.14824 4.231339,-2.85176 1.821011,-1.81156 3.533377,-3.29374 3.805259,-3.29374 0.271881,0 0.49433,-0.18098 0.49433,-0.40218 0,-0.2212 0.904915,-0.40219 2.010923,-0.40219 1.106004,0 2.010918,-0.18098 2.010918,-0.40218 0,-0.2212 0.904922,-0.40218 2.01093,-0.40218 1.155991,0 2.010922,-0.18234 2.010922,-0.42891 0,-0.81809 2.199832,-0.20213 2.609019,0.73055 0.218357,0.4977 0.535079,0.90491 0.703828,0.90491 0.168749,0 0.306808,0.36197 0.306808,0.80437 0,0.4424 0.180988,0.80437 0.402188,0.80437 0.2212,0 0.402187,0.36196 0.402187,0.80436 0,0.44241 0.18098,0.80438 0.40218,0.80438 0.2212,0 0.402187,0.36196 0.402187,0.80436 0,0.4424 0.18098,0.80437 0.402188,0.80437 0.2212,0 0.40218,0.27904 0.40218,0.6201 0,1.02718 1.232362,1.97158 4.826218,3.69849 7.417536,3.56425 8.599103,4.01185 10.10393,3.82752 1.633538,-0.20009 1.616984,-0.23477 2.350903,4.92489 0.674868,4.74451 0.888025,5.21319 2.438575,5.36181 3.138755,0.30084 3.134495,1.5502 -0.01258,3.68735 -2.403346,1.63208 -2.733176,2.197 -2.057838,3.52457 0.365916,0.71932 1.06304,2.35334 1.756389,4.11693 0.217417,0.553 0.579822,1.3592 0.805354,1.79156 0.28984,0.55564 0.27608,0.83076 -0.0469,0.93843 -0.251331,0.0838 -0.456972,0.47859 -0.456972,0.87735 0,0.83438 -1.366679,1.54763 -5.429491,2.83358 -1.548408,0.4901 -3.129559,1.05122 -3.513655,1.24693 -0.384104,0.19571 -1.052107,0.35584 -1.484458,0.35584 -0.432351,0 -0.897946,0.18098 -1.034652,0.40218 -0.136714,0.2212 -0.654148,0.40218 -1.149859,0.40218 -0.495704,0 -1.082271,0.18099 -1.303471,0.40219 -0.2212,0.2212 -0.574121,0.25021 -0.784261,0.0645 z"
       style="fill:#3088d4;fill-opacity:1;stroke-width:0.40218455" />
    <path
       inkscape:connector-curvature="0"
       id="path53"
       d="m -49.660278,184.22027 c 0,-0.27595 -0.336326,-1.26893 -0.7474,-2.20663 -1.653581,-3.77197 -1.692575,-3.91691 -1.053804,-3.91691 0.327058,0 0.594658,-0.15041 0.594658,-0.33423 0,-0.18382 0.495169,-0.59103 1.100378,-0.90491 1.9066,-0.98883 2.519278,-1.71447 2.519278,-2.9838 0,-1.48286 -1.177976,-2.6142 -2.721965,-2.6142 -0.935507,0 -1.180372,-0.2446 -1.604139,-1.60241 -0.275061,-0.88132 -0.500107,-2.38348 -0.500107,-3.33813 0,-0.95465 -0.16808,-1.90766 -0.373513,-2.1178 -0.205434,-0.21014 -0.431658,-1.01551 -0.502726,-1.78972 -0.127183,-1.38544 -0.160938,-1.40951 -2.140151,-1.52562 -1.750569,-0.10271 -6.719672,-2.1206 -11.155161,-4.52998 -0.384104,-0.20864 -0.879736,-0.37936 -1.101406,-0.37936 -0.882004,0 -2.120227,-1.55197 -3.529635,-4.42403 -0.81413,-1.659 -1.62216,-3.07671 -1.795623,-3.15044 -0.173462,-0.0737 -0.315384,-0.48094 -0.315384,-0.90492 0,-0.42396 -0.18098,-0.77085 -0.402188,-0.77085 -0.2212,0 -0.402179,-0.27148 -0.402179,-0.60327 0,-0.33181 0.180979,-0.60328 0.402179,-0.60328 0.221208,0 0.402188,-0.32577 0.402188,-0.72394 0,-1.04839 0.799207,-1.68917 2.10681,-1.68917 0.90356,0 1.889759,0.75464 4.73033,3.61966 l 3.588768,3.61967 4.942205,-0.0114 4.942205,-0.0114 2.010922,-1.81175 c 1.106007,-0.99646 2.644366,-2.39395 3.41857,-3.10554 1.17655,-1.08139 1.556211,-1.22862 2.312562,-0.89679 0.497702,0.21836 0.904914,0.53507 0.904914,0.70382 0,0.16875 0.361967,0.30682 0.804367,0.30682 0.832651,0 1.10987,0.97027 0.402187,1.40765 -0.2212,0.1367 -0.402187,0.77015 -0.402187,1.40764 0,0.63749 -0.18098,1.27094 -0.40218,1.40765 -0.2212,0.13671 -0.402187,0.78082 -0.402187,1.43138 0,0.65055 -0.192446,1.18282 -0.427661,1.18282 -0.240231,0 -0.37243,0.57289 -0.301641,1.3071 0.109697,1.13775 0.299029,1.33315 1.461342,1.50819 1.386268,0.20876 1.51881,0.37422 3.320309,4.14488 0.50791,1.06308 1.057944,2.01598 1.222305,2.11756 0.164361,0.10158 1.120285,-0.035 2.124288,-0.30354 2.076918,-0.55549 2.830673,-0.20505 1.525403,0.7092 -0.484364,0.33926 -0.880651,0.96853 -0.880651,1.3984 0,0.42986 -0.180987,0.78156 -0.402187,0.78156 -0.2212,0 -0.40218,0.80374 -0.40218,1.78609 0,0.98235 -0.180987,1.89795 -0.402187,2.03466 -0.2212,0.13671 -0.402188,0.95114 -0.402188,1.80983 0,0.8587 -0.180979,1.67313 -0.402179,1.80983 -0.221208,0.13672 -0.402188,0.64752 -0.402188,1.13513 0,0.60414 -1.793695,2.67684 -5.630585,6.50638 -3.096823,3.09088 -5.630586,5.39403 -5.630586,5.11807 z"
       style="fill:#3088d4;fill-opacity:1;stroke-width:0.40218455" />
    <path
       inkscape:connector-curvature="0"
       id="path55"
       d="m -56.946283,248.36577 c -1.708668,-1.44893 -2.48718,-2.05426 -3.975157,-3.09088 -0.774204,-0.53936 -1.679118,-1.2693 -2.010922,-1.62209 -0.331804,-0.35278 -1.236718,-1.07935 -2.010922,-1.61458 -0.774211,-0.53523 -1.649543,-1.20806 -1.945196,-1.4952 -0.295644,-0.28712 -1.200558,-1.01598 -2.010922,-1.61968 -0.810355,-0.6037 -1.563871,-1.19384 -1.674467,-1.31141 -0.110604,-0.11757 -1.015518,-0.84091 -2.010922,-1.60742 -0.995411,-0.7665 -2.171803,-1.72735 -2.614202,-2.1352 -1.679604,-1.54845 -3.112017,-2.07036 -8.043691,-2.93073 -0.663604,-0.11577 -1.568519,-0.36681 -2.010922,-0.55787 -1.155601,-0.49905 -3.223352,-0.85021 -6.334407,-1.07575 l -2.714746,-0.19681 v -1.283 c 0,-0.83653 0.426405,-1.80031 1.225316,-2.76953 l 1.225314,-1.48652 -1.325861,-2.52641 c -0.729224,-1.38954 -1.420005,-2.61691 -1.535071,-2.72751 -0.115066,-0.1106 -0.809376,-1.40016 -1.542914,-2.8657 -1.035434,-2.06869 -1.242559,-2.83322 -0.926156,-3.41857 0.224151,-0.41467 0.505571,-1.07069 0.625376,-1.45778 0.158999,-0.51374 0.644093,-0.70383 1.79616,-0.70383 1.068221,0 1.657231,-0.2056 1.822453,-0.63617 0.504797,-1.31548 0.214737,-4.26513 -0.600329,-6.1048 -0.464448,-1.0483 -0.989272,-2.26796 -1.166276,-2.71037 -0.177004,-0.4424 -0.68545,-1.61879 -1.12988,-2.61419 -0.795563,-1.78186 -0.796186,-1.82267 -0.04028,-2.64012 0.44453,-0.48073 0.768392,-1.41202 0.769238,-2.21202 0.0012,-1.12313 -0.318718,-1.66282 -1.709284,-2.88363 l -1.710746,-1.50192 1.118631,-0.006 c 1.301756,-0.007 1.840899,-0.9697 1.156857,-2.06502 -0.256111,-0.4101 -0.465657,-1.16435 -0.465657,-1.67611 0,-0.51177 -0.21718,-1.14766 -0.482622,-1.41311 -0.375372,-0.37537 0.205561,-0.48262 2.6142,-0.48262 1.796424,0 3.096821,0.16888 3.096821,0.40218 0,0.2212 0.542949,0.40219 1.206554,0.40219 0.663604,0 1.206553,0.18098 1.206553,0.40218 0,0.2212 0.508119,0.40219 1.129154,0.40219 0.922883,0 1.253499,0.28183 1.809831,1.54278 0.374372,0.84854 0.680676,1.90663 0.680676,2.35132 0,0.44469 0.28473,1.37929 0.632733,2.07687 0.618611,1.24004 0.694917,1.26835 3.418566,1.26835 2.59096,0 2.785835,-0.0611 2.785835,-0.87325 0,-0.48028 -0.299523,-1.20422 -0.665607,-1.60873 -0.624486,-0.69005 -0.614127,-0.7355 0.167578,-0.7355 0.458254,0 0.893511,0.13574 0.967247,0.30164 0.193091,0.43446 3.52407,2.11147 4.193913,2.11147 0.310901,0 0.565266,0.18098 0.565266,0.40219 0,0.2212 0.361968,0.40218 0.804375,0.40218 0.4424,0 0.804367,0.18099 0.804367,0.40219 0,0.2212 0.254374,0.40217 0.565267,0.40217 0.310902,0 1.35155,0.38768 2.312562,0.86149 3.418244,1.68531 3.545809,1.72381 4.047874,1.22176 0.260967,-0.26098 0.88007,-0.4745 1.375781,-0.4745 0.495711,0 1.013145,-0.18098 1.149851,-0.40219 0.136714,-0.2212 0.679661,-0.40218 1.206555,-0.40218 0.526894,0 1.06984,-0.18099 1.206554,-0.40219 0.136707,-0.2212 0.679661,-0.40219 1.206555,-0.40219 0.526894,0 1.069841,-0.18097 1.206555,-0.40217 0.136706,-0.2212 0.690339,-0.40219 1.230291,-0.40219 0.539945,0 0.981724,-0.18098 0.981724,-0.40218 0,-0.22121 0.542947,-0.40219 1.206555,-0.40219 0.663599,0 1.206546,-0.18891 1.206546,-0.4198 0,-0.26375 1.078823,-0.37588 2.902116,-0.30164 l 2.902115,0.11817 1.540063,3.01638 c 0.84704,1.65901 1.712888,3.07671 1.924103,3.15044 0.211222,0.0737 0.384032,0.30814 0.384032,0.52089 0,0.21276 0.904922,1.72786 2.010929,3.3669 1.106008,1.63903 2.010922,3.16921 2.010922,3.4004 0,0.2312 0.18098,0.42035 0.40218,0.42035 0.221208,0 0.402187,0.71325 0.402187,1.585 0,0.87176 0.18098,1.69686 0.402188,1.83357 0.2212,0.13671 0.402179,1.23329 0.402179,2.43684 0,1.20355 0.180988,2.18828 0.402188,2.18828 0.2212,0 0.402187,0.45246 0.402187,1.00546 0,0.553 -0.180987,1.00546 -0.402187,1.00546 -0.2212,0 -0.402188,0.36443 -0.402188,0.80983 0,0.4454 -0.180979,1.16934 -0.402179,1.60874 l -0.804375,1.59782 c -0.2212,0.43941 -0.40218,1.16333 -0.40218,1.60874 0,0.4454 -0.180988,0.80982 -0.402187,0.80982 -0.2212,0 -0.402188,0.33981 -0.402188,0.75513 0,1.09578 -0.9808,1.78789 -1.878858,1.32581 -0.404433,-0.20809 -1.278284,-0.60156 -1.941891,-0.87438 -0.663608,-0.27282 -1.520817,-0.6559 -1.904921,-0.85129 -0.384104,-0.1954 -0.972295,-0.35527 -1.307101,-0.35527 -0.334798,0 -0.608728,-0.18098 -0.608728,-0.40218 0,-0.2212 -0.351289,-0.40218 -0.780638,-0.40218 -0.429349,0 -0.892484,-0.18098 -1.029198,-0.40219 -0.136706,-0.2212 -0.780829,-0.40218 -1.431377,-0.40218 -0.902709,0 -1.182818,0.18487 -1.182818,0.78063 0,0.42935 0.18098,0.89249 0.40218,1.0292 0.2212,0.13671 0.402187,0.77015 0.402187,1.40765 0,0.63749 0.18098,1.27093 0.402188,1.40764 0.2212,0.13671 0.402179,0.77015 0.402179,1.40764 0,0.6375 0.180988,1.27094 0.402188,1.40765 0.2212,0.13672 0.402179,0.65415 0.402179,1.14985 0,0.49572 0.221702,1.12299 0.492662,1.39396 0.388754,0.38875 0.388754,0.65903 0,1.28153 -0.27096,0.43388 -0.492662,1.14261 -0.492662,1.57496 0,0.43235 -0.180979,0.89794 -0.402179,1.03466 -0.2212,0.13671 -0.402188,0.6023 -0.402188,1.03465 0,0.43235 -0.22491,1.14623 -0.499796,1.58639 -0.369651,0.59191 -0.384717,0.98322 -0.05789,1.50274 0.362485,0.57616 1.151293,0.72326 4.388007,0.81835 4.233185,0.12436 4.977935,0.48196 5.004929,2.40319 0.0072,0.50071 0.234482,1.26536 0.505449,1.69924 0.388755,0.62251 0.388755,0.89278 0,1.28154 -0.270967,0.27096 -0.492661,1.09558 -0.492661,1.83249 0,1.85868 -0.935101,2.09243 -2.342678,0.58561 -1.902077,-2.03617 -3.830559,-2.89068 -6.523802,-2.89068 -2.091059,0 -2.692923,0.18979 -4.584466,1.44572 -2.7006,1.79309 -2.942344,2.34994 -1.412482,3.25366 0.654037,0.38634 1.189156,0.9349 1.189156,1.219 0,0.73249 -0.446134,0.62441 -1.655428,-0.40105 z"
       style="fill:#3088d4;fill-opacity:1;stroke-width:0.40218455" />
    <path
       inkscape:connector-curvature="0"
       id="path57"
       d="m -40.410029,238.90702 c 0,-0.48664 -0.180987,-0.8848 -0.402187,-0.8848 -0.2212,0 -0.40218,-0.36197 -0.40218,-0.80437 0,-0.75425 -0.268125,-0.80437 -4.303377,-0.80437 -3.347072,0 -4.196126,-0.10725 -3.82075,-0.48262 0.265442,-0.26544 0.48262,-0.8882 0.48262,-1.38391 0,-0.49571 0.18098,-1.01314 0.40218,-1.14985 0.221208,-0.13671 0.402187,-0.67966 0.402187,-1.20655 0,-0.5269 0.18098,-1.06985 0.402188,-1.20656 0.500608,-0.3094 0.520579,-1.59294 0.03918,-2.51911 -0.199636,-0.3841 -0.579249,-1.51279 -0.843568,-2.50819 -0.264319,-0.99541 -0.643924,-2.1241 -0.843568,-2.5082 -0.390211,-0.75076 -0.495982,-2.31802 -0.15643,-2.31802 0.210553,0 0.897604,0.31398 2.502739,1.14376 0.4947,0.25574 1.173381,0.46498 1.508187,0.46498 0.334806,0 0.608736,0.18098 0.608736,0.40218 0,0.2212 0.27393,0.40219 0.608736,0.40219 0.590636,0 1.01762,0.16812 2.904918,1.14376 1.284328,0.66393 1.714744,0.57875 1.714744,-0.33939 0,-0.4424 0.148268,-0.80437 0.329478,-0.80437 0.181219,0 0.575897,-0.90492 0.877076,-2.01092 0.301179,-1.10601 0.695858,-2.01093 0.877076,-2.01093 0.181211,0 0.329479,-0.54295 0.329479,-1.20655 0,-0.66361 0.180979,-1.20655 0.402187,-1.20655 0.2212,0 0.40218,-0.35129 0.40218,-0.78064 0,-0.42935 0.180987,-0.89249 0.402187,-1.0292 0.2212,-0.13671 0.40218,-1.04162 0.40218,-2.01092 0,-0.9693 -0.18098,-1.87421 -0.40218,-2.01092 -0.2212,-0.13671 -0.402187,-1.22261 -0.402187,-2.41311 0,-1.1905 -0.18098,-2.2764 -0.40218,-2.4131 -0.221208,-0.13672 -0.402187,-0.8372 -0.402187,-1.55664 0,-0.75216 -0.341853,-1.67501 -0.804367,-2.17147 -0.442408,-0.47486 -0.804375,-1.14243 -0.804375,-1.48348 0,-0.34105 -0.159026,-0.62009 -0.353392,-0.62009 -0.194365,0 -0.578285,-0.54295 -0.853163,-1.20656 -0.274869,-0.6636 -0.65879,-1.20655 -0.853155,-1.20655 -0.194365,0 -0.353392,-0.23514 -0.353392,-0.52252 0,-0.3615 0.464752,-0.47775 1.508188,-0.37724 2.215662,0.21342 3.290471,0.84615 5.530038,3.25549 1.106008,1.18986 4.074303,4.31378 6.596216,6.94206 l 4.585287,4.77867 h 1.950212 c 2.062521,0 2.555684,0.60556 1.324971,1.62696 -1.316602,1.09268 -1.421146,1.87684 -0.639003,4.79311 l 0.759058,2.83018 h -0.930227 c -0.511621,0 -1.042082,0.18098 -1.178789,0.40218 -0.136714,0.2212 -0.77015,0.40218 -1.407648,0.40218 -0.637497,0 -1.258576,0.16099 -1.380184,0.35775 -0.121601,0.19676 -0.810969,0.45965 -1.531925,0.58419 -4.399218,0.75995 -5.131585,1.06304 -5.131585,2.12369 0,0.31928 0.415987,0.55404 0.981731,0.55404 0.539945,0 1.093578,0.18098 1.230284,0.40218 0.136714,0.2212 0.599849,0.40218 1.029198,0.40218 0.429349,0 0.780638,0.0889 0.780638,0.19762 0,0.18587 -2.175538,3.17542 -3.444824,4.73374 -0.329749,0.40484 -0.577027,1.56966 -0.577027,2.71815 0,1.96602 -0.01967,1.99873 -0.904914,1.5036 -0.497702,-0.27838 -0.995404,-0.60471 -1.106008,-0.72519 -0.480152,-0.52304 -3.315141,-1.99296 -3.843738,-1.99296 -0.450331,0 -0.580293,0.63049 -0.580293,2.81529 0,2.66957 -0.04786,2.81529 -0.92502,2.81529 -0.508762,0 -1.142207,0.21718 -1.407648,0.48262 -0.375369,0.37537 -0.48262,0.286 -0.48262,-0.40219 z"
       style="fill:#3088d4;fill-opacity:1;stroke-width:0.40218455" />
    <path
       inkscape:connector-curvature="0"
       id="path59"
       d="m 6.645562,252.64575 c 0,-0.92249 -0.26029,-1.66144 -0.70382,-1.99814 -0.84084,-0.63828 -7.56363,-0.77173 -7.94315,-0.15767 -0.13671,0.2212 -0.92562,0.40218 -1.75312,0.40218 -0.82752,0 -1.69874,0.19417 -1.93605,0.43148 -0.23732,0.23732 -1.04269,0.37306 -1.78972,0.30165 -1.10469,-0.10561 -1.38137,-0.31755 -1.48213,-1.13531 -0.0682,-0.553 -0.39335,-1.59366 -0.72269,-2.31256 -0.71537,-1.56153 -1.841297,-1.70376 -3.97964,-0.50273 -1.818643,1.02147 -2.614203,1.01981 -2.614203,-0.006 0,-0.4454 -0.169123,-1.12409 -0.375838,-1.50819 -0.206716,-0.3841 -0.612861,-1.28656 -0.902549,-2.00546 -0.30391,-0.75422 -0.815372,-1.3071 -1.209159,-1.3071 -0.375353,0 -0.79431,-0.18099 -0.931016,-0.40219 -0.136714,-0.2212 -1.454271,-0.40218 -2.927915,-0.40218 h -2.679347 l -2.32422,-2.29997 c -2.198725,-2.17579 -2.324228,-2.40588 -2.324228,-4.2614 0,-1.74796 0.844619,-3.72195 2.010922,-4.6998 0.13192,-0.11061 0.674867,-0.83453 1.206554,-1.60874 0.531688,-0.77421 1.156413,-1.53823 1.388267,-1.69783 0.740354,-0.50963 -0.370025,-1.70325 -1.8321,-1.96943 -0.833073,-0.15167 -1.022214,-0.26935 -0.484818,-0.30164 0.484651,-0.0291 0.993031,-0.23393 1.129745,-0.45513 0.136714,-0.2212 0.871327,-0.40218 1.632471,-0.40218 0.761153,0 1.383912,-0.18098 1.383912,-0.40219 0,-0.2212 0.597245,-0.40218 1.327207,-0.40218 0.72997,0 1.49915,-0.16566 1.709289,-0.36813 0.21014,-0.20247 0.83453,-0.42871 1.387534,-0.50274 1.101772,-0.14748 1.623928,-1.68792 0.838425,-2.47343 -0.239937,-0.23993 -0.436237,-0.94545 -0.436237,-1.56781 0,-0.62237 -0.212752,-1.47225 -0.472786,-1.88862 -0.378809,-0.60657 -0.344545,-0.88527 0.172371,-1.40219 0.87964,-0.87964 1.104782,-0.81291 1.104782,0.32742 0,1.98289 0.335753,2.24491 2.876603,2.24491 2.94865,0 3.550323,0.52155 6.078894,5.26932 l 1.79887,3.37765 2.16378,-0.11456 c 1.19008,-0.063 4.33557004,-0.20631 6.98999,-0.31844 3.84766,-0.16253 4.92814,-0.33837 5.32895,-0.86722 0.41381,-0.54603 0.50272,-0.009 0.50272,3.03864 0,3.26313 0.33155,4.82913 1.2072,5.70199 0.11095,0.11061 0.47263,0.74404 0.80372,1.40765 0.33111,0.6636 0.69278,1.29705 0.80373,1.40764 0.11096,0.11061 0.44498,0.63311 0.74229,1.16111 0.2973,0.52801 0.8855,1.56867 1.3071,2.31257 0.42161,0.74389 1.1478,2.03123 1.61377,2.86074 0.46598,0.8295 1.02918,1.73211 1.25155,2.0058 0.52823,0.65009 0.107,1.7144 -0.6785,1.7144 -0.33875,0 -0.61591,0.18099 -0.61591,0.40219 0,0.2212 -0.63343,0.40218 -1.40764,0.40218 -0.77421,0 -1.40764,-0.18098 -1.40764,-0.40218 0,-0.2212 -0.45246,-0.40219 -1.00546,-0.40219 -0.99802,0 -1.00547,0.0268 -1.00547,3.61966 v 3.61966 h -1.40764 c -1.35092,0 -1.40765,-0.059 -1.40765,-1.46385 z"
       style="fill:#3088d4;fill-opacity:1;stroke-width:0.40218455" />
    <path
       inkscape:connector-curvature="0"
       id="path61"
       d="m 30.877182,299.81389 c -0.4977,-0.2465 -0.90491,-0.58624 -0.90491,-0.75499 0,-0.16875 -0.27148,-0.30681 -0.60328,-0.30681 -0.33181,0 -0.60328,-0.18098 -0.60328,-0.40219 0,-0.2212 -0.19362,-0.40218 -0.43026,-0.40218 -0.23666,0 -1.21943,-0.54295 -2.18394,-1.20656 -0.96452,-0.6636 -1.86436,-1.20655 -1.99966,-1.20655 -0.13529,0 -0.63451,-0.36197 -1.10937,-0.80437 -0.47487,-0.44241 -1.10075,-0.80437 -1.39083,-0.80437 -0.2901,0 -0.52745,-0.1504 -0.52745,-0.33422 0,-0.18382 -0.4977,-0.59103 -1.106,-0.90491 -0.60831,-0.31389 -1.45685,-0.88742 -1.88567,-1.27452 -0.42881,-0.38711 -1.01701,-0.70382 -1.3071,-0.70382 -0.29009,0 -0.52744,-0.18099 -0.52744,-0.40219 0,-0.2212 -0.23735,-0.40219 -0.52744,-0.40219 -0.29009,0 -0.88751,-0.31671 -1.32758,-0.70382 -0.44008,-0.3871 -1.19813,-0.93005 -1.68457,-1.20655 -0.48645,-0.2765 -1.28244,-0.72896 -1.76888,-1.00546 -0.48644,-0.2765 -1.22566,-0.8019 -1.64271,-1.16755 -0.97988,-0.85912 -2.99433,-1.17511 -8.95320996,-1.40438 l -4.84432004,-0.18639 -1.28534,1.22834 c -0.70693,0.67559 -1.52237,1.22834 -1.81209,1.22834 -0.74278,0 -2.69114,-0.94501 -2.6949,-1.3071 -0.006,-0.63397 -2.304236,-0.26469 -3.127969,0.50273 -0.474864,0.4424 -1.03685,0.80437 -1.248869,0.80437 -0.212019,0 -0.445816,0.14227 -0.519552,0.31616 -0.35617,0.83999 -2.810041,2.09695 -4.093708,2.09695 -0.782302,0 -1.534225,0.18098 -1.670932,0.40218 -0.136714,0.2212 -1.293198,0.40218 -2.569977,0.40218 -2.126128,0 -2.369361,-0.093 -2.891461,-1.106 -0.313529,-0.6083 -0.660829,-1.1965 -0.771783,-1.3071 -0.110954,-0.1106 -0.421601,-0.59567 -0.690331,-1.07793 -0.422867,-0.75886 -0.274074,-1.29388 1.106007,-3.97685 0.877036,-1.70502 1.594608,-3.24084 1.594608,-3.41295 0,-0.1721 -0.542954,-0.55324 -1.206554,-0.84698 -0.663608,-0.29375 -1.206555,-0.67088 -1.206555,-0.83809 0,-0.1672 -0.361967,-0.304 -0.804367,-0.304 -0.442408,0 -0.805784,-0.13574 -0.807512,-0.30164 -0.0016,-0.1659 -0.408932,-0.49542 -0.904914,-0.73227 -3.67229,-1.75363 -8.374949,-4.37615 -8.84412,-4.93206 -0.311029,-0.36854 -1.436498,-2.66088 -2.501043,-5.09411 -1.064545,-2.43321 -2.606686,-5.87189 -3.426987,-7.6415 -0.8203,-1.76961 -1.744126,-3.80567 -2.052957,-4.52457 -0.308823,-0.71891 -0.788792,-1.30711 -1.0666,-1.30711 -0.2778,0 -0.505099,-0.18098 -0.505099,-0.40218 0,-0.2212 -0.542947,-0.40218 -1.206555,-0.40218 -0.663599,0 -1.206546,-0.16897 -1.206546,-0.37548 0,-0.2065 -0.479451,-0.43274 -1.065445,-0.50273 -1.203067,-0.1437 -2.292703,-1.51398 -1.448211,-1.82122 1.0614,-0.38614 0.139612,-1.90081 -1.335545,-2.19454 -0.641089,-0.12765 -0.497622,-0.34485 0.825628,-1.24993 2.982572,-2.04002 6.180436,-1.35433 9.769634,2.0948 1.166517,1.12099 2.253597,2.03818 2.415729,2.03818 0.388467,0 1.295005,-2.93513 1.295005,-4.19287 0,-0.54344 0.18098,-1.09992 0.40218,-1.23663 0.221208,-0.13671 0.402188,-0.76603 0.402188,-1.39849 0,-1.65686 0.384462,-2.42226 1.216691,-2.42226 1.718335,0 2.000785,-0.40671 2.000785,-2.88107 v -2.39281 l 1.299736,0.72656 c 0.714856,0.39961 1.530347,0.94093 1.812208,1.20294 0.281861,0.26202 0.828129,0.58362 1.213921,0.71468 0.385792,0.13105 1.96832,1.49872 3.516735,3.03925 l 2.815289,2.80096 2.286381,0.003 c 2.697502,0.004 4.28226,0.52289 4.599253,1.50563 0.67333,2.08748 1.903025,4.97289 2.196655,5.15437 0.184985,0.11432 0.660415,0.0344 1.056511,-0.17766 0.396103,-0.21204 1.484768,-0.66732 2.419248,-1.01175 1.609825,-0.59332 1.720732,-0.58574 2.111469,0.14437 0.226829,0.42382 0.412403,1.02616 0.412403,1.33852 0,0.31235 0.284738,1.13867 0.632738,1.83626 0.6273,1.25748 1.50303,1.64028 1.98147,0.86617 0.1367,-0.22121 0.95113,-0.40219 1.80982,-0.40219 0.8587,0 1.66131,-0.16187 1.78358,-0.3597 0.12227,-0.19784 0.99261,-0.47744 1.93411,-0.62134 6.60046,-1.00886 7.94566,-0.69184 7.94566,1.87254 v 1.55997 l 2.51366,-0.11974 2.51366,-0.11973 0.11657,-3.30387 0.11659,-3.30387 1.41538,0.67495 c 0.8658,0.41287 1.52327,0.52449 1.69325,0.28748 0.15282,-0.2131 0.83687,-0.69717 1.52011,-1.07571 1.43007,-0.79232 2.17632,-0.38177 2.17632,1.19731 0,1.31368 -0.66676,2.43817 -2.47697,4.17742 -0.84968,0.81637 -1.54487,1.76998 -1.54487,2.11912 0,0.34915 -0.23475,0.63481 -0.52166,0.63481 -0.28691,0 -1.22855,0.72393 -2.09255,1.60874 -1.5652,1.60292 -1.58213,1.60873 -4.683,1.60873 -1.71166,0 -3.22398,0.18099 -3.36068,0.40219 -0.13713,0.22188 -1.94016996,0.40218 -4.02184,0.40218 -2.08169,0 -3.88473,0.1803 -4.02186,0.40219 -0.13683,0.22141 -1.92747,0.40219 -3.98378,0.40219 -3.720072,0 -6.585113,0.77661 -6.051315,1.6403 0.12598,0.20384 3.023613,0.37062 6.439185,0.37062 h 6.21012 v 1.35642 c 0,1.4032 0.27747,1.71912 5.21601,5.93869 l 1.7128,1.46344 1.513,-0.80759 1.513,-0.8076 1.71877,1.66801 c 1.70434,1.654 1.72502,1.6613 2.463,0.86917 0.40933,-0.43937 0.74424,-0.90984 0.74424,-1.04549 0,-0.13564 0.22624,-0.48498 0.50274,-0.7763 0.95373,-1.00484 1.91037,-2.23801 1.91037,-2.46258 0,-0.49807 1.08691,-1.26255 2.21908,-1.5608 0.65971,-0.17379 2.5776,-0.39693 4.26195,-0.49586 2.69759,-0.15843 3.09181,-0.0926 3.30878,0.55287 0.13548,0.40301 1.52109,2.72355 3.07914,5.15677 1.55805,2.43322 2.95571,4.6955 3.10589,5.02731 0.15019,0.3318 0.42161,0.78426 0.60317,1.00546 0.80369,0.97921 3.53122,5.4941 3.53122,5.84525 0,0.21373 0.18098,0.38861 0.40218,0.38861 0.2212,0 0.40218,0.23735 0.40218,0.52744 0,0.29009 0.31673,0.8875 0.70383,1.32757 1.09194,1.24137 1.7692,2.56902 1.3105,2.56902 -0.22307,0 -0.40558,0.36197 -0.40558,0.80437 0,0.4424 -0.18099,0.80437 -0.40219,0.80437 -0.2212,0 -0.40218,0.36196 -0.40218,0.80437 0,0.4424 -0.18099,0.80436 -0.40219,0.80436 -0.2212,0 -0.40219,0.36197 -0.40219,0.80437 0,0.44241 -0.18098,0.80438 -0.40218,0.80438 -0.2212,0 -0.40218,0.36196 -0.40218,0.80436 0,0.4424 -0.18098,0.80437 -0.40218,0.80437 -0.22121,0 -0.40219,0.36197 -0.40219,0.80437 0,0.44241 -0.18099,0.80437 -0.40219,0.80437 -0.2212,0 -0.40218,0.36196 -0.40218,0.80437 0,0.4424 -0.18098,0.80437 -0.40218,0.80437 -0.2212,0 -0.40219,0.36196 -0.40219,0.80436 0,0.88676 -0.17663,0.91691 -1.50819,0.25744 z"
       style="fill:#3088d4;fill-opacity:1;stroke-width:0.40218455" />
    <path
       inkscape:connector-curvature="0"
       id="path63"
       d="m 9.402852,266.17532 c -2.66746,-2.49004 -2.37797,-2.80069 2.61791,-2.80932 l 3.56537,-0.006 -0.71822,1.10601 c -0.39502,0.60831 -1.09451,1.69196 -1.55444,2.40812 -0.45993,0.71617 -1.04331,1.30437 -1.29641,1.30711 -0.25311,0.002 -1.42949,-0.89986 -2.61421,-2.00577 z"
       style="fill:#3088d4;fill-opacity:1;stroke-width:0.40218455" />
    <path
       inkscape:connector-curvature="0"
       id="path65"
       d="m 13.884892,258.50491 c 0,-1.56335 0.81285,-2.38438 2.36064,-2.38438 0.66634,0 1.32339,-0.18099 1.4601,-0.40219 0.13672,-0.2212 0.67967,-0.40219 1.20656,-0.40219 0.52689,0 1.06984,-0.18098 1.20655,-0.40218 0.44188,-0.71497 1.66804,-0.42709 2.14133,0.50273 0.25333,0.4977 0.74558,1.29507 1.09389,1.77192 0.58916,0.80656 0.57028,0.92571 -0.27079,1.70928 -0.79646,0.74202 -1.39778,0.84228 -5.05119,0.84228 h -4.14709 z"
       style="fill:#3088d4;fill-opacity:1;stroke-width:0.40218455" />
    <path
       inkscape:connector-curvature="0"
       id="path67"
       d="m 1.880882,266.22851 c -1.04907996,-0.90987 -1.10603996,-1.59642 -0.16208,-1.95387 0.3871,-0.14658 0.94298,-0.50287 1.23528,-0.79174 0.7589,-0.75002 1.32114,-0.64968 1.56403,0.27913 0.11568,0.4424 0.37021,0.80437 0.56562,0.80437 0.52281,0 0.43239,1.37075 -0.12735,1.93048 -0.70882,0.70882 -2.0875,0.58852 -3.0755,-0.26837 z"
       style="fill:#3088d4;fill-opacity:1;stroke-width:0.40218455" />
    <path
       inkscape:connector-curvature="0"
       id="path69"
       d="m 24.446252,239.37522 c -0.26356,-0.64645 -1.44902,-2.6918 -4.63036,-7.98905 -0.39854,-0.6636 -0.83126,-1.52327 -0.96161,-1.91037 -0.13035,-0.3871 -0.39687,-0.70382 -0.59227,-0.70382 -0.19541,0 -0.35528,-0.28441 -0.35528,-0.63201 0,-0.3476 -0.26379,-0.89579 -0.58619,-1.21819 -0.75045,-0.75045 -0.47352,-1.44489 0.90044,-2.25805 0.60136,-0.35592 1.5283,-1.02502 2.05985,-1.48691 1.08533,-0.94309 1.48157,-1.03185 1.86158,-0.41699 0.14372,0.23254 -0.20958,0.8592 -0.7851,1.39257 l -1.0464,0.96978 1.51266,2.42565 c 0.83195,1.33411 2.39414,3.79674 3.4715,5.47251 l 1.95886,3.04685 -0.71388,1.58311 c -0.95143,2.10989 -1.6891,2.7176 -2.0938,1.72492 z"
       style="fill:#3088d4;fill-opacity:1;stroke-width:0.40218455" />
    <path
       inkscape:connector-curvature="0"
       id="path71"
       d="m 29.167892,230.8345 c 0,-0.19282 -0.89188,-1.71681 -1.98196,-3.38665 -1.64405,-2.51843 -1.87158,-3.07843 -1.33452,-3.28452 0.65695,-0.2521 2.46815,1.52304 2.49765,2.44793 0.008,0.24942 0.3048,0.69444 0.65964,0.98894 0.84089,0.69787 1.40488,2.21057 1.11035,2.97812 -0.24926,0.64953 -0.95116,0.83859 -0.95116,0.25618 z"
       style="fill:#3088d4;fill-opacity:1;stroke-width:0.40218455" />
    <path
       inkscape:connector-curvature="0"
       id="path73"
       d="m 54.203882,230.72611 c -0.2765,-0.27845 -0.50273,-0.70546 -0.50273,-0.94893 0,-0.24346 -0.22623,-0.92979 -0.50273,-1.52516 -0.36656,-0.7893 -0.8023,-1.08336 -1.60873,-1.08565 -0.95514,-0.002 -1.10601,-0.16449 -1.10601,-1.18595 0,-0.65055 -0.18099,-1.29467 -0.40219,-1.43138 -0.2212,-0.13672 -0.40219,-0.96182 -0.40219,-1.83357 0,-1.30082 0.13997,-1.585 0.78064,-1.585 0.42935,0 0.89248,-0.18098 1.0292,-0.40219 0.13671,-0.2212 1.37033,-0.40218 2.74138,-0.40218 h 2.49281 l -0.14394,1.80983 c -0.0791,0.9954 -0.28848,1.80983 -0.46513,1.80983 -0.17665,0 -0.42197,0.76918 -0.54515,1.70929 -0.62067,4.73715 -0.8502,5.5897 -1.36523,5.07106 z"
       style="fill:#3088d4;fill-opacity:1;stroke-width:0.40218455" />
    <path
       inkscape:connector-curvature="0"
       id="path75"
       d="m 31.497292,224.42137 c -0.30881,-0.37219 -1.0045,-1.35415 -1.54598,-2.18215 -1.04348,-1.59561 -2.15512,-1.91695 -3.57151,-1.0324 -0.60092,0.37528 -0.90346,0.36466 -1.40218,-0.0492 -0.34977,-0.29028 -0.63594,-0.6805 -0.63594,-0.86715 0,-0.34093 -2.84414,-4.97124 -3.61148,-5.87958 -0.2257,-0.26716 -0.41036,-0.64025 -0.41036,-0.82907 0,-0.18883 -0.31672,-0.70339 -0.70383,-1.14347 -1.60952,-1.82978 -1.71055,-2.37804 -0.59077,-3.20611 1.14807,-0.84899 3.39165,-2.64986 3.7077,-2.97609 0.1106,-0.11416 1.25809,-1.09519 2.54997,-2.18006 2.30949,-1.93943 2.34458,-2.00012 2.09253,-3.61966 -0.23885,-1.53471 -0.66674,-5.22444 -1.25681,-10.8377 -0.15727,-1.49605 -0.0865,-2.51436 0.19438,-2.79519 0.24298,-0.24297 0.44178,-0.76204 0.44178,-1.15347 0,-0.39144 0.36196,-1.35615 0.80437,-2.14381 0.4424,-0.78766 0.80436,-1.75238 0.80436,-2.14382 0,-0.39142 0.19639,-0.90808 0.43642,-1.1481 0.31375,-0.31376 0.25433,-0.7885 -0.21143,-1.68918 l -0.64783,-1.25276 h 1.39424 c 0.76683,0 1.50609,0.18098 1.64281,0.40218 0.1367,0.2212 1.50476,0.40219 3.04012,0.40219 1.59291,0 2.79155,0.17269 2.79155,0.40219 0,0.2212 0.54295,0.40218 1.20655,0.40218 0.93843,0 1.20656,-0.17875 1.20656,-0.80437 0,-0.44241 0.15835,-0.80437 0.35191,-0.80437 0.19355,0 0.45507,-0.49771 0.58116,-1.10601 0.27223,-1.31336 1.77409,-2.11146 3.97332,-2.11146 h 1.52856 v -2.79156 c 0,-1.53536 -0.18098,-2.90341 -0.40219,-3.04012 -0.2212,-0.13671 -0.40218,-1.30765 -0.40218,-2.6021 v -2.35353 l 2.51366,0.92233 c 5.65708,2.07577 6.68342,2.5933 10.05221,5.06878 l 3.51672,2.58418 -0.19139,4.62512 c -0.10526,2.54382 -0.3014,8.87822 -0.43587,14.07645 -0.23735,9.17528 -0.27184,9.48071 -1.18117,10.45681 -1.03932,1.11565 -1.28255,2.82325 -1.64697,11.5628 l -0.20544,4.92676 h -1.38466 -1.38466 v -4.02185 -4.02184 h -1.98718 c -1.09296,0 -2.09905,0.18098 -2.23576,0.40218 -0.13671,0.22121 -1.14279,0.40219 -2.23575,0.40219 -1.09295,0 -1.98718,0.18098 -1.98718,0.40219 0,0.2212 -0.89424,0.40217 -1.98719,0.40217 -1.09295,0 -2.09904,0.18099 -2.23575,0.40219 -0.13671,0.2212 -0.92574,0.40219 -1.75339,0.40219 -2.29358,0 -3.66922,0.79081 -3.67296,2.11147 -0.003,0.99528 -0.14406,1.10601 -1.41079,1.10601 -0.7742,0 -1.40765,0.18098 -1.40765,0.40218 0,0.2212 -0.27147,0.40218 -0.60327,0.40218 -0.69101,0 -0.86074,2.20652 -0.20109,2.6142 0.2212,0.13671 0.40218,0.88322 0.40218,1.65891 0,0.7757 0.18512,1.75625 0.41138,2.17902 0.29263,0.54679 0.26611,1.00127 -0.0919,1.57453 -0.70231,1.12458 -1.35499,1.2844 -2.01193,0.49264 z"
       style="fill:#3088d4;fill-opacity:1;stroke-width:0.40218455" />
    <path
       inkscape:connector-curvature="0"
       id="path77"
       d="m 14.387612,206.42863 c -2.04036,-2.10082 -2.55039,-2.99428 -1.70928,-2.99428 0.2212,0 0.40218,-0.42398 0.40218,-0.94217 0,-0.62323 -0.60734,-1.44974 -1.79408,-2.44153 -1.60599,-1.34216 -1.76909,-1.63343 -1.55556,-2.77804 0.13119,-0.70327 0.39558,-1.45061 0.58754,-1.66075 0.60649,-0.66397 0.37902,-2.08029 -0.45538,-2.8354 -1.12107,-1.01457 -1.00495,-2.04163 0.40033,-3.54093 0.66258,-0.7069 1.20553,-1.42267 1.20655,-1.59059 8e-4,-0.16791 0.54481,-0.87343 1.20842,-1.56783 0.6636,-0.6944 1.20656,-1.46723 1.20656,-1.71739 0,-0.25016 0.36195,-0.71573 0.80436,-1.0346 0.82334,-0.59342 1.12662,-2.4131 0.40218,-2.4131 -0.2212,0 -0.40218,-0.54295 -0.40218,-1.20656 0,-0.6636 -0.18099,-1.20655 -0.40219,-1.20655 -0.22119,0 -0.40217,-0.19391 -0.40217,-0.43091 0,-0.52019 1.00894,-1.58001 1.50417,-1.58001 0.19529,0 0.70592,-0.32164 1.13473,-0.71476 0.42881,-0.39311 1.4131,-1.15357 2.18731,-1.68991 0.7742,-0.53633 1.49813,-1.07436 1.60874,-1.19562 0.69142,-0.75804 2.07961,-1.19602 2.71474,-0.8565 0.38711,0.20692 1.02054,0.47425 1.40765,0.59406 0.46359,0.14347 0.70382,0.62585 0.70382,1.41327 0,0.65749 0.18099,1.30729 0.40219,1.44399 0.2212,0.13672 0.40218,0.59435 0.40218,1.01697 0,0.42262 0.35887,1.40735 0.7975,2.18828 0.43862,0.78093 0.65232,1.41988 0.47489,1.41988 -0.17744,0 -0.56903,0.90491 -0.87021,2.01092 -0.30118,1.106 -0.65634,2.01092 -0.78927,2.01092 -0.6388,0 -1.27889,3.73938 -1.04557,6.10824 0.13753,1.3963 0.34831,3.9866 0.46839,5.7562 0.12009,1.76962 0.38618,3.38941 0.5913,3.59956 0.97614,0.99998 0.17141,2.1387 -3.68637,5.21637 -0.53239,0.42472 -1.76263,1.46537 -2.73387,2.31255 -0.97126,0.84719 -1.96666,1.52682 -2.21202,1.5103 -0.24536,-0.0166 -1.39627,-1.00836 -2.55758,-2.20408 z"
       style="fill:#3088d4;fill-opacity:1;stroke-width:0.40218455" />
    <path
       inkscape:connector-curvature="0"
       id="path79"
       d="m -7.501108,222.39182 c -0.6716,-1.40767 -1.85653,-3.26275 -2.63316,-4.12239 -1.335977,-1.47877 -1.539587,-1.56299 -3.778381,-1.56299 -2.240682,0 -2.366312,-0.0522 -2.366312,-0.98173 0,-0.53995 0.180988,-1.09357 0.402188,-1.23029 0.221199,-0.1367 0.402187,-0.62045 0.402187,-1.07498 0,-0.85128 1.574765,-4.04894 2.111469,-4.28748 0.165898,-0.0737 0.30164,-1.90075 0.30164,-4.06005 0,-4.42005 -0.433569,-5.25722 -2.722681,-5.25722 -0.688436,0 -1.36355,-0.18099 -1.500264,-0.40219 -0.136706,-0.2212 -0.625139,-0.40219 -1.0854,-0.40219 -1.044638,0 -1.9014,-1.08679 -1.918186,-2.43321 -0.0072,-0.56406 -0.208635,-1.22141 -0.447998,-1.46078 -0.443618,-0.44361 0.03528,-1.65324 1.124936,-2.84167 0.268746,-0.29311 0.805474,-1.06929 1.192715,-1.72484 0.387249,-0.65555 0.846052,-1.19192 1.019555,-1.19192 0.17351,0 0.315472,-0.36196 0.315472,-0.80437 0,-0.4424 0.180988,-0.80437 0.402187,-0.80437 0.2212,0 0.40218,-0.36196 0.40218,-0.80436 0,-0.44241 0.180988,-0.80438 0.402188,-0.80438 0.221199,0 0.402187,-0.36196 0.402187,-0.80437 0,-0.44686 0.268125,-0.80436 0.603273,-0.80436 0.331804,0 0.603282,-0.18099 0.603282,-0.40219 0,-0.2212 0.723926,-0.40218 1.608734,-0.40218 0.884807,0 1.608742,-0.18099 1.608742,-0.40219 0,-1.12122 1.885477,-0.1057 4.480337,2.41311 1.59516,1.54841 3.1249,2.81529 3.3994,2.81529 0.27451,0 0.55943,0.14628 0.63317,0.32505 0.0737,0.17878 0.98109,0.90271 2.01635004,1.60874 1.38816,0.9467 2.33088996,1.28369 3.59110996,1.28369 2.054,0 4.346,0.74207 5.21773,1.68932 0.65696,0.71387 0.60422,2.94401 -0.0796,3.36665 -0.1957,0.12094 -0.35582,0.74005 -0.35582,1.37579 0,0.87811 0.42499,1.50414 1.76839,2.60495 2.07765,1.70248 2.16332,3.02882 0.19564,3.02882 -0.87978,0 -1.15966,0.1884 -1.15966,0.78063 0,0.42935 -0.18098,0.89249 -0.40218,1.0292 -0.2212,0.13672 -0.40219,1.85605 -0.40219,3.82076 0,1.9647 0.18099,3.68404 0.40219,3.82075 0.2212,0.13671 0.40218,0.41887 0.40218,0.62702 0,0.50563 -1.49477,0.48602 -1.80983,-0.0237 -0.1367,-0.2212 -0.64509,-0.40078 -1.12974,-0.39905 -1.00819,0.004 -1.88664,1.53758 -1.88664,3.29452 0,1.0361 0.12249,1.12637 1.5283,1.12637 0.84057,0 1.74548,0.21718 2.01092,0.48262 0.63141,0.63141 0.61927,3.3099 -0.0201,4.43405 -1.02019,1.7937 -1.19518,1.83995 -7.50183996,1.98278 l -6.12756004,0.13878 z"
       style="fill:#3088d4;fill-opacity:1;stroke-width:0.40218455" />
    <path
       inkscape:connector-curvature="0"
       id="path81"
       d="m -18.088789,211.47804 c -0.136706,-0.2212 -1.116447,-0.40219 -2.177194,-0.40219 -1.872137,0 -2.000044,-0.0795 -4.366411,-2.71474 -3.78471,-4.21471 -11.075446,-11.50725 -12.062544,-12.06554 -0.488887,-0.2765 -1.488583,-0.50273 -2.221555,-0.50273 -0.732964,0 -1.504596,-0.16565 -1.714735,-0.36812 -0.210148,-0.20247 -0.830995,-0.42871 -1.379675,-0.50274 -0.77258,-0.10424 -1.257023,-0.67892 -2.14766,-2.5477 -1.60781,-3.37361 -2.092772,-3.82076 -4.143778,-3.82076 -2.675828,0 -2.808146,0.1836 7.590672,-10.53222 2.098075,-2.16204 2.312562,-2.2899 2.312562,-1.37864 0,0.55243 0.18098,1.11627 0.402188,1.25297 0.2212,0.13672 0.402179,0.74243 0.402179,1.34604 0,0.60929 0.491969,1.68426 1.106008,2.41668 1.082692,1.2914 1.122968,1.30357 1.910375,0.57715 0.442407,-0.40814 1.437811,-1.18102 2.212015,-1.71752 0.774212,-0.53649 1.681061,-1.25551 2.015222,-1.59781 1.007212,-1.03171 2.329148,-1.62781 3.609909,-1.62781 0.666602,0 1.212009,0.18098 1.212009,0.40218 0,0.2212 0.284664,0.40219 0.632577,0.40219 0.34792,0 1.683322,1.12141 2.967562,2.49204 l 2.334985,2.49204 -0.679167,2.03254 c -0.793999,2.37618 -0.683061,3.34232 0.403725,3.51598 0.701168,0.11204 0.608242,0.37241 -0.87937,2.46388 -1.865281,2.62245 -1.962969,3.27143 -0.956616,6.35487 0.86963,2.66452 1.143926,3.02422 2.523649,3.30944 0.601187,0.12428 1.817002,0.37279 2.70181,0.55225 l 1.608734,0.32629 0.116887,3.31659 c 0.110636,3.13936 0.05048,3.41307 -1.125334,5.12208 -1.253161,1.82142 -1.753992,2.13957 -2.209029,1.40331 z"
       style="fill:#3088d4;fill-opacity:1;stroke-width:0.40218455" />
    <path
       inkscape:connector-curvature="0"
       id="path83"
       d="m -18.836381,186.07218 c 0.137877,-0.73667 0.407738,-1.51134 0.599682,-1.72149 0.813007,-0.89005 0.193521,-2.08675 -2.37984,-4.59724 -3.430124,-3.34634 -4.010799,-3.66764 -6.628251,-3.66764 -1.667308,0 -2.254346,0.17433 -2.708443,0.80436 -0.318864,0.4424 -0.784436,0.80437 -1.034597,0.80437 -0.250161,0 -0.985394,0.4977 -1.633857,1.10601 -2.322468,2.17866 -2.474263,2.2546 -3.152005,1.57686 -0.337975,-0.33797 -0.614493,-1.26086 -0.614493,-2.05087 0,-0.79 -0.18098,-1.43637 -0.40218,-1.43637 -0.221208,0 -0.402187,-0.9954 -0.402187,-2.21201 0,-1.21661 0.180979,-2.21202 0.402187,-2.21202 0.2212,0 0.40218,-0.80374 0.40218,-1.78609 0,-0.98235 0.180987,-1.89795 0.402187,-2.03466 0.2212,-0.13671 0.40218,-0.95114 0.40218,-1.80983 0,-0.8587 0.180987,-1.67313 0.402187,-1.80983 0.2212,-0.13672 0.402188,-0.58287 0.402188,-0.99147 0,-0.43074 0.844985,-1.34997 2.010921,-2.18761 3.067051,-2.20346 2.764231,-2.73493 -1.508195,-2.64704 -4.63757,0.0954 -4.524577,0.11563 -4.524577,-0.80993 0,-0.4424 -0.18098,-0.80436 -0.40218,-0.80436 -0.2212,0 -0.402187,-0.42778 -0.402187,-0.95063 0,-1.11307 -1.804852,-3.07122 -2.830777,-3.07122 -0.657835,0 -0.668608,-0.13807 -0.146246,-1.87375 0.310153,-1.03056 0.563913,-2.34084 0.563913,-2.91173 v -1.03798 l 1.005461,1.08435 c 0.553004,0.59638 1.005684,1.22798 1.005955,1.40353 2.7e-4,0.17556 0.444056,0.83495 0.986182,1.46532 0.923547,1.07387 1.120023,1.12939 3.116436,0.88066 1.171916,-0.146 3.968421,-0.35634 6.214469,-0.46742 l 4.083707,-0.20194 0.215865,2.13658 c 0.118726,1.17512 0.335467,2.80289 0.481656,3.61728 l 0.265792,1.4807 3.478323,0.1929 c 5.24731,0.29099 6.309498,0.5911 9.83817,2.77965 3.012957,1.8687 3.337867,1.98114 4.504977,1.55911 1.66855,-0.60335 4.02091,-0.5784 4.51606,0.0479 0.85396,1.08014 0.8324,2.75282 -0.0471,3.6525 -0.47033,0.48113 -1.66958,1.86559 -2.66499,3.07655 -0.9954,1.21098 -2.48852,2.92872 -3.31802,3.81722 -1.45579,1.55931 -1.50819,1.71685 -1.50819,4.53347 0,2.82561 -0.0311,2.91802 -0.98173,2.91802 -0.539945,0 -1.093578,0.18098 -1.230284,0.40218 -0.136714,0.2212 -0.826082,0.40794 -1.531933,0.41497 -1.63087,0.0162 -2.359551,0.58206 -3.604813,2.79906 -1.260725,2.24455 -1.986404,2.57108 -1.643619,0.73958 z"
       style="fill:#3088d4;fill-opacity:1;stroke-width:0.40218455" />
    <path
       inkscape:connector-curvature="0"
       id="path85"
       d="m 10.466322,167.31416 c -1.10601,-0.0686 -2.18286,-0.2948 -2.39301,-0.50273 -0.21014,-0.20793 -1.30508,-0.37805 -2.43321,-0.37805 -1.12813,0 -2.22308,-0.16808 -2.43322,-0.37352 -0.21014,-0.20543 -0.99727,-0.43165 -1.74916,-0.50272 -1.40049996,-0.13239 -1.63044996,-0.37849 -2.46924,-2.64288 -0.48004,-1.29587 -0.50728,-1.3071 -3.17026,-1.3071 -1.47733,0 -2.88695,0.20089 -3.13247,0.44642 -0.3271,0.3271 -0.91295,0.13569 -2.19191,-0.71612 -0.96002,-0.6394 -2.278771,-1.42848 -2.930554,-1.75352 -1.530953,-0.76348 -3.842249,-3.06251 -3.842249,-3.82186 0,-0.32443 0.334161,-0.58987 0.742583,-0.58987 0.408415,0 1.313329,-0.28473 2.010922,-0.63274 1.189458,-0.59338 1.268346,-0.76848 1.268346,-2.81529 v -2.18256 h 1.987182 c 1.09296,0 2.09904,0.18099 2.23576,0.40219 0.40153,0.6497 2.50116,0.47249 2.77225,-0.23399 0.13427,-0.3499 0.24413,-1.21644 0.24413,-1.92566 0,-0.98521 0.45077,-1.76862 1.91037,-3.32007 1.86447,-1.9818 1.92899,-2.01284 2.68457004,-1.29182 0.42581,0.40632 1.014,0.73877 1.3071,0.73877 0.29309996,0 0.53290996,0.18098 0.53290996,0.40218 0,0.69054 1.00164,0.44013 1.60874,-0.40218 0.59343,-0.82334 2.4131,-1.12662 2.4131,-0.40218 0,0.2212 0.51032,0.40218 1.13403,0.40218 0.70929,0 1.46246,0.37773 2.01092,1.00852 0.7516,0.86442 0.8769,1.49177 0.8769,4.39052 0,2.20934 0.16187,3.43594 0.46682,3.5376 0.2938,0.0979 0.43907,1.00473 0.39195,2.44662 -0.0439,1.34578 0.0953,2.29102 0.33756,2.29102 0.22683,0 0.41241,0.51514 0.41241,1.14476 0,1.85427 1.11249,3.68145 2.24147,3.68145 0.76665,0 0.976,0.21057 0.976,0.98173 0,0.53994 -0.18097,1.09357 -0.40217,1.23028 -0.22121,0.13672 -0.40219,0.56526 -0.40219,0.95233 0,1.35241 -0.89757,1.86966 -3.01638,1.73829 z"
       style="fill:#3088d4;fill-opacity:1;stroke-width:0.40218455" />
    <path
       inkscape:connector-curvature="0"
       id="path87"
       d="m -23.51828,156.4592 c 0,-0.61936 -0.170127,-1.29805 -0.378053,-1.50819 -0.207933,-0.21014 -0.434158,-1.28699 -0.502734,-2.393 l -0.124674,-2.01093 h -4.424031 c -2.433215,0 -5.331931,0.14692 -6.441593,0.32647 l -2.017571,0.32646 -1.694606,-2.45576 c -1.647497,-2.38747 -1.687653,-2.52236 -1.444253,-4.85104 0.137693,-1.3174 0.382933,-2.39528 0.544969,-2.39528 0.162044,0 0.403207,-0.54295 0.535932,-1.20655 0.169927,-0.84964 0.475199,-1.20655 1.031993,-1.20655 0.434883,0 0.902549,-0.18098 1.039255,-0.40219 0.136714,-0.2212 0.599849,-0.40218 1.029198,-0.40218 0.429349,0 0.78063,-0.18099 0.78063,-0.40219 0,-0.2212 0.361967,-0.40218 0.804375,-0.40218 0.4424,0 0.804367,-0.18099 0.804367,-0.40219 0,-0.2212 0.742026,-0.40218 1.648954,-0.40218 1.339041,0 1.905964,0.257 3.016383,1.36742 0.752091,0.75209 1.367651,1.52127 1.367921,1.70929 7.25e-4,0.51684 1.844817,2.55387 2.311958,2.55387 0.224966,0 0.509471,-0.31672 0.632234,-0.70382 0.298407,-0.94095 1.60449,-3.08317 1.98208,-3.25099 0.165898,-0.0737 0.301633,-0.48095 0.301633,-0.90491 0,-0.42398 0.180987,-0.77086 0.402187,-0.77086 0.2212,0 0.402188,-0.36197 0.402188,-0.80437 0,-0.72702 0.268117,-0.80437 2.788183,-0.80437 2.337979,0 2.825521,0.11761 3.019368,0.72836 0.127143,0.4006 0.84763,1.32586 1.60109,2.05614 1.335194,1.29412 2.243787,1.37841 2.243787,0.20815 0,-0.31875 0.18098,-0.57954 0.40218,-0.57954 0.221208,0 0.402187,-0.36197 0.402187,-0.80437 0,-0.44687 0.268125,-0.80437 0.603274,-0.80437 0.331801,0 0.603281,-0.18098 0.603281,-0.40219 0,-0.2212 0.27148,-0.40218 0.60327,-0.40218 0.33516,0 0.60328,0.35749 0.60328,0.80437 0,0.4424 0.18098,0.80437 0.40218,0.80437 0.22121,0 0.40219,0.36196 0.40219,0.80437 0,0.58468 0.26813,0.80437 0.98173,0.80437 0.53995,0 1.09357,-0.18099 1.23029,-0.40219 0.1367,-0.2212 0.87735,-0.40218 1.64588,-0.40218 1.05366,0 1.73461,0.33729 2.76875,1.37143 0.75430004,0.7543 1.92465004,1.69823 2.60079004,2.09764 0.67614996,0.39941 1.22935996,0.95866 1.22935996,1.24276 0,0.75317 -0.71361,0.63246 -1.70138996,-0.28781 -1.38793,-1.29304 -2.36695004,-0.98604 -4.84670004,1.51986 -1.9282,1.94855 -2.29997,2.5545 -2.29997,3.74886 v 1.42463 l -2.71475,-0.33748 c -4.180619,-0.51971 -4.524574,-0.34388 -4.524574,2.31306 v 2.21864 l -1.818372,0.77945 c -2.055505,0.88109 -2.508814,1.62048 -1.862781,3.03837 l 0.446437,0.97982 h -3.20886 -3.208852 z"
       style="fill:#3088d4;fill-opacity:1;stroke-width:0.40218455" />
    <path
       inkscape:connector-curvature="0"
       id="path89"
       d="m -26.233022,139.59287 c -0.276502,-0.0951 -0.502958,-0.38404 -0.50322,-0.64211 -7.97e-4,-0.61271 -1.575099,-2.34369 -2.71315,-2.98286 -1.387335,-0.77919 -4.691264,-0.62189 -6.335512,0.30164 -0.787661,0.4424 -1.698085,0.80436 -2.023161,0.80436 -0.325075,0 -0.591042,0.18098 -0.591042,0.40219 0,0.2212 -0.271477,0.40218 -0.603273,0.40218 -0.383897,0 -0.603281,-0.38609 -0.603281,-1.06167 0,-1.36074 -1.023688,-2.12685 -2.863536,-2.14302 -1.425358,-0.0125 -1.460171,-0.0508 -1.660461,-1.82778 -0.122158,-1.0838 0.03384,-2.50152 0.387194,-3.51911 0.840239,-2.41966 0.481601,-4.81685 -1.293461,-8.64557 -1.772809,-3.82387 -2.708595,-4.52082 -6.070047,-4.52082 -1.169576,0 -2.238349,-0.18098 -2.375055,-0.40218 -0.136714,-0.2212 -1.313098,-0.40218 -2.614203,-0.40218 -1.301097,0 -2.477489,-0.18098 -2.614195,-0.40219 -0.306761,-0.49634 -6.504293,-0.53855 -6.808482,-0.0463 -0.24899,0.40287 -2.641849,0.83666 -2.644716,0.47944 -7.96e-4,-0.12759 -0.543974,-0.81036 -1.206555,-1.51726 -0.66258,-0.70691 -1.204691,-1.38717 -1.204691,-1.51168 0,-0.20933 -1.507224,-2.01863 -2.736194,-3.28458 -0.434246,-0.4473 0.16949,-1.22877 3.519117,-4.55506 2.223809,-2.20831 4.043287,-4.29289 4.043287,-4.632399 0,-0.339511 0.180988,-0.617287 0.402188,-0.617287 0.2212,0 0.402187,-0.361968 0.402187,-0.804368 0,-0.442407 0.18098,-0.804375 0.40218,-0.804375 0.2212,0 0.402187,-0.361959 0.402187,-0.804367 0,-0.695841 0.268125,-0.804367 1.987185,-0.804367 1.092956,0 2.099038,-0.180987 2.235752,-0.402187 0.136707,-0.2212 0.679661,-0.40218 1.206555,-0.40218 0.526894,0 1.069841,-0.180987 1.206555,-0.402187 0.136706,-0.2212 0.65414,-0.402188 1.149851,-0.402188 0.495711,0 1.094007,-0.192717 1.329548,-0.428266 0.281129,-0.28112 2.001502,-0.348255 5.007198,-0.195392 2.518418,0.128075 7.022205,0.330729 10.008424,0.450331 2.986227,0.119602 5.601425,0.388515 5.811573,0.59758 0.210139,0.209064 0.798331,0.380122 1.307093,0.380122 0.554127,0 0.925029,0.241888 0.925029,0.603274 0,0.331803 -0.18098,0.603281 -0.402188,0.603281 -0.2212,0 -0.40218,0.351281 -0.40218,0.78063 0,0.429348 -0.180987,0.892484 -0.402187,1.029198 -0.2212,0.136706 -0.40218,0.599849 -0.40218,1.029198 0,0.429349 -0.180987,0.780629 -0.402187,0.780629 -0.2212,0 -0.402188,0.35129 -0.402188,0.78064 0,0.42935 -0.180979,0.89248 -0.402179,1.0292 -0.221208,0.1367 -0.402188,0.62386 -0.402188,1.08256 0,0.86733 1.022533,1.94091 2.915836,3.06142 0.608306,0.36001 1.106008,0.79653 1.106008,0.97004 0,0.45947 1.517193,0.38678 1.809835,-0.0867 0.136707,-0.2212 0.69034,-0.40219 1.230284,-0.40219 0.756288,0 0.981732,0.21242 0.981732,0.92503 0,0.50876 0.163429,1.09695 0.363185,1.3071 0.199756,0.21014 0.462713,1.1965 0.584354,2.1919 0.273571,2.23881 0.918347,5.89733 1.275847,7.23932 0.147313,0.553 1.262502,1.80878 2.478182,2.79059 2.572366,2.07753 3.530981,3.28176 5.462266,6.86184 0.905583,1.67872 1.297658,2.83008 1.095656,3.21747 -0.173024,0.33181 -0.511023,1.10099 -0.751111,1.70929 -0.413312,1.0472 -0.57452,1.10601 -3.031958,1.10601 -2.376934,0 -2.660141,0.0931 -3.364024,1.10601 -0.422724,0.6083 -1.022175,1.6942 -1.332121,2.41311 -0.309938,0.7189 -0.687059,1.30709 -0.83805,1.30709 -0.150984,0 -0.33303,0.2437 -0.404553,0.54156 -0.07151,0.29786 -0.356257,0.46376 -0.632759,0.36867 z"
       style="fill:#3088d4;fill-opacity:1;stroke-width:0.40218455" />
    <path
       inkscape:connector-curvature="0"
       id="path91"
       d="m 6.074392,142.35425 c -0.11905,-0.19264 -0.71793,-0.45417 -1.33084,-0.58119 -0.61291,-0.12702 -2.37662,-1.40994 -3.91936996,-2.85092 C -1.973498,136.309 -1.987598,136.30187 -4.588548,136.18531 c -2.40881,-0.10795 -2.62559,-0.19357 -2.84163,-1.12233 -0.19507,-0.8387 -0.50237,-1.02537 -1.85278,-1.1255 -1.312847,-0.0974 -1.823082,0.0841 -2.698725,0.95976 -0.593885,0.59389 -1.080638,1.28134 -1.081657,1.52768 -7.96e-4,0.24634 -0.543974,-0.13048 -1.206555,-0.8374 -1.166366,-1.2444 -1.537339,-2.13328 -0.89031,-2.13328 0.172906,0 0.552606,-0.80683 0.843775,-1.79295 0.487502,-1.65107 0.462626,-1.88671 -0.314381,-2.97792 -0.464075,-0.65173 -0.843775,-1.38326 -0.843775,-1.62562 0,-0.24235 -0.138291,-0.44064 -0.30731,-0.44064 -0.16902,0 -0.6353,-0.75709 -1.036182,-1.68241 -0.649712,-1.49969 -5.608281,-6.73494 -6.398562,-6.75559 -0.165898,-0.004 -0.30164,-0.46034 -0.30164,-1.01334 0,-0.55301 -0.18098,-1.00547 -0.40218,-1.00547 -0.221208,0 -0.402187,-0.89423 -0.402187,-1.98718 0,-1.09296 -0.18098,-2.09904 -0.402188,-2.23575 -0.2212,-0.13671 -0.40218,-1.1428 -0.40218,-2.23576 0,-1.09294 -0.180987,-1.98718 -0.402187,-1.98718 -0.2212,0 -0.402188,-0.54295 -0.402188,-1.20655 v -1.20656 h -2.627604 c -2.466731,0 -2.713786,-0.0862 -4.035253,-1.40764 -0.774203,-0.77421 -1.220625,-1.40765 -0.992051,-1.40765 0.228574,0 0.415589,-0.36196 0.415589,-0.80436 0,-0.44241 0.180988,-0.80438 0.402187,-0.80438 0.2212,0 0.40218,-0.36196 0.40218,-0.80437 0,-0.442397 0.180988,-0.804364 0.402188,-0.804364 0.221199,0 0.402187,-0.351289 0.402187,-0.780638 0,-0.429341 0.18098,-0.892484 0.40218,-1.02919 0.2212,-0.136714 0.402187,-0.584768 0.402187,-0.995683 0,-1.087342 0.85552,-1.199857 1.829257,-0.240581 0.465652,0.458739 1.449621,1.286533 2.186582,1.839537 0.73697,0.553004 1.569828,1.231693 1.850797,1.508195 0.317288,0.312232 1.655715,0.502724 3.53224,0.502724 1.66175,0 3.133229,0.18099 3.269935,0.40219 0.136714,0.2212 0.736173,0.40218 1.332145,0.40218 0.682782,0 1.504787,0.44628 2.222367,1.20655 1.108588,1.17456 1.239242,1.20656 4.925459,1.20656 h 3.78666 v 2.59047 c 0,1.42475 -0.18099,2.70231 -0.40219,2.83902 -0.2212,0.13672 -0.40218,0.86064 -0.40218,1.60874 0,0.7481 -0.18098,1.47203 -0.40218,1.60874 -0.68271,0.42193 -0.45585,2.84315 0.3333,3.55733 0.40453,0.36608 0.87429,0.6656 1.04393,0.6656 0.16963,0 0.78882,0.34078 1.37597,0.75729 2.41808,1.7153 4.19096004,2.51403 4.62246004,2.08254 0.23469,-0.23469 0.92278996,-0.42672 1.52908996,-0.42672 0.60632,0 1.21424,-0.18098 1.35095,-0.40218 0.13671,-0.2212 0.78083,-0.40218 1.43138,-0.40218 0.65055,0 1.18282,-0.18099 1.18282,-0.40219 0,-0.2212 0.27148,-0.40218 0.60327,-0.40218 0.94504,0 0.70728,1.37326 -0.40524,2.34057 -0.55469,0.4823 -1.14288,0.87774 -1.30709,0.87876 -0.16422,8e-4 -0.84153,0.50862 -1.50514,1.12799 -0.6636,0.61938 -1.52327,1.2463 -1.91038,1.39317 -1.25468996,0.47603 -0.81546996,1.78679 0.92685,2.76603 l 1.63067,0.91649 -1.22849,1.07259 c -0.79952,0.69805 -1.22848,1.45031 -1.22848,2.15435 0,1.16218 0.8107,2.23088 1.69232,2.23088 0.29877,0 0.8041,0.36196 1.12297,0.80436 0.31887,0.4424 0.81885,0.80437 1.11106,0.80437 0.29222,0 0.91984,0.36197 1.3947,0.80437 0.47487,0.4424 1.10074,0.80437 1.39083,0.80437 0.29009,0 0.52744,0.18098 0.52744,0.40218 0,0.22121 0.23735,0.40219 0.52744,0.40219 0.2901,0 0.91597,0.36197 1.39083,0.80437 0.47487,0.4424 1.03113,0.80437 1.23614,0.80437 0.20501,0 0.65322,0.42807 0.99603,0.95126 0.64131,0.97877 0.28386,1.86403 -0.75266,1.86403 -0.25475,0 -1.03133,0.54295 -1.72573,1.20655 -0.90358,0.86351 -1.65706,1.20656 -2.65011,1.20656 -0.76317,0 -1.48498,-0.15761 -1.60403,-0.35024 z"
       style="fill:#3088d4;fill-opacity:1;stroke-width:0.40218455" />
    <path
       inkscape:connector-curvature="0"
       id="path93"
       d="m 40.651762,138.31541 c -0.15687,-0.25381 -1.57582,-0.43714 -3.38348,-0.43714 -1.71231,0 -3.28523,-0.17104 -3.49537,-0.3801 -0.21015,-0.20905 -1.44717,-0.43529 -2.74895,-0.50273 l -2.36688,-0.12263 -1.05169,-1.97186 c -0.75486,-1.41532 -0.9098,-2.02072 -0.54897,-2.14499 0.2765,-0.0952 0.50274,-0.52 0.50274,-0.94397 0,-0.42397 0.18098,-0.77086 0.40218,-0.77086 0.90228,0 0.29667,-0.8956 -1.43338,-2.11976 -2.28405,-1.61614 -4.0331,-1.91091 -12.83752,-2.16355 -3.75677,-0.1078 -6.92397,-0.31929 -7.03823,-0.47 -0.30325,-0.39997 -2.50578,-1.69473 -3.32468,-1.95443 -0.38709,-0.12277 -0.69682,-0.33783 -0.68826,-0.47794 0.009,-0.1401 1.28334,-1.15916 2.83286,-2.26458 l 2.8173,-2.00985 -0.11811,-2.00823 c -0.12858,-2.18615 -0.80174,-2.69698 -2.48353,-1.88463 -0.46863,0.22636 -1.30452,0.50309 -1.85752,0.61497 -0.553,0.11187 -1.72358,0.38681 -2.60128,0.61097 -1.39338996,0.35587 -1.82702996,0.28094 -3.41857,-0.59072 -1.00251,-0.54907 -2.23316,-1.31127 -2.73478,-1.69379 l -0.91203,-0.69549 0.66884,-2.7103 c 0.56056,-2.27156 0.94138,-2.95402 2.3525,-4.21584 3.19583004,-2.85772 3.30612004,-2.91319 5.7921,-2.91319 2.2999,0 2.37987,-0.0375 3.41398,-1.60011 0.58239,-0.88007 1.0589,-1.78499 1.0589,-2.01093 0,-0.22594 0.18098,-0.41081 0.40218,-0.41081 0.2212,0 0.40219,-0.361964 0.40219,-0.804364 0,-0.4424 0.18098,-0.804367 0.40218,-0.804367 0.66189,0 0.43892,-1.33783 -0.40218,-2.41311 -0.43257,-0.553003 -0.79051,-1.231693 -0.79542,-1.508195 -0.005,-0.276502 -0.18993,-0.502726 -0.41113,-0.502726 -0.2212,0 -0.40219,-0.361967 -0.40219,-0.804367 0,-0.442408 -0.15987,-0.804375 -0.35528,-0.804375 -0.1954,0 -0.45571,-0.316715 -0.57848,-0.70382 -0.25408,-0.801198 -1.54916,-3.015467 -1.94063,-3.318023 -0.1431,-0.110604 -0.32409,-0.597286 -0.40218,-1.08153 -0.15353,-0.951975 2.20301,-3.744689 3.15983,-3.744689 0.29141,0 0.8441,-0.159862 1.22821,-0.355254 0.38409,-0.1954 1.24131,-0.578477 1.90491,-0.851292 0.66361,-0.272823 1.52082,-0.6559 1.90492,-0.851292 0.3841,-0.195401 0.87987,-0.355263 1.1017,-0.355263 0.22183,0 2.15229,1.712403 4.28992,3.805334 4.30597,4.215953 3.73638,3.981527 10.80515,4.447099 2.90823,0.191546 4.3762,0.06601 7.44041,-0.636391 2.09956,-0.481267 4.46354,-1.004131 5.25331,-1.161931 1.64334,-0.328356 5.16098,-2.762487 5.18442,-3.587518 0.0131,-0.461733 0.12154,-0.464138 0.66307,-0.01473 0.40499,0.336112 0.48028,0.59297 0.20109,0.686032 -0.24546,0.08182 -0.44628,0.767124 -0.44628,1.522894 0,0.75577 -0.18099,1.374133 -0.40219,1.374133 -0.2212,0 -0.40219,0.542947 -0.40219,1.206554 0,0.6636 -0.18098,1.206555 -0.40218,1.206555 -0.75185,0 -0.44246,3.022569 0.40218,3.929187 0.44241,0.474865 0.80438,1.14243 0.80438,1.483487 0,0.341049 0.18098,0.620091 0.40218,0.620091 0.2212,0 0.40218,0.284401 0.40218,0.632003 0,0.347602 0.27652,0.908521 0.6145,1.246496 0.63771,0.637721 0.9476,0.518453 2.52958,-0.973585 0.29318,-0.276502 0.69287,-0.502727 0.88822,-0.502727 0.19535,0 0.77062,-0.411154 1.27837,-0.913665 0.50776,-0.502519 1.46982,-1.299664 2.13792,-1.771439 1.09466,-0.772993 1.29341,-0.798697 2.01092,-0.260106 0.43791,0.328714 1.48767,0.899634 2.33281,1.268704 1.41023,0.615855 1.51481,0.77027 1.27161,1.877592 -0.14574,0.663608 -0.35378,2.311208 -0.4623,3.661338 -0.19537,2.43043 -0.16287,2.5236 3.2768,9.39397 3.14772,6.2872 3.87049,8.26213 2.53492,6.92657 -0.26176,-0.26176 -0.97199,-0.47593 -1.57829,-0.47593 -0.60632,0 -1.21424,-0.18098 -1.35095,-0.40218 -0.13671,-0.22121 -0.83288,-0.40218 -1.54705,-0.40218 -1.02596,0 -1.71417,0.42203 -3.27917,2.01092 -1.77552,1.80263 -2.16227,2.01092 -3.73382,2.01092 -1.98201,0 -2.90222,0.67862 -2.90222,2.14026 0,1.39077 -0.95398,1.599 -2.03821,0.44489 -1.09528,-1.16587 -1.98364,-1.26497 -1.98364,-0.22128 0,0.41531 -0.27147,0.98042 -0.60327,1.25579 -0.41681,0.34592 -0.60328,0.36114 -0.60328,0.0492 0,-0.27906 -0.84459,-0.45143 -2.21202,-0.45143 -1.94389,0 -2.21201,0.0975 -2.21201,0.80438 0,0.4424 -0.18098,0.80437 -0.40218,0.80437 -0.22121,0 -0.40219,0.9954 -0.40219,2.21201 0,1.2166 0.18098,2.21202 0.40219,2.21202 0.2212,0 0.40218,0.36196 0.40218,0.80436 0,0.4424 0.18099,0.80437 0.40219,0.80437 0.2212,0 0.40218,0.27393 0.40218,0.60874 0,0.59063 0.16812,1.01762 1.14376,2.90492 0.25574,0.4947 0.46498,1.22837 0.46498,1.63039 0,0.95149 -2.62854,3.5272 -2.99478,2.93459 z"
       style="fill:#3088d4;fill-opacity:1;stroke-width:0.40218455" />
    <path
       inkscape:connector-curvature="0"
       id="path95"
       d="m 16.096892,147.08372 c -6.35363,-2.41073 -6.49458,-2.53658 -4.77132,-4.25984 0.72927,-0.72927 1.60346,-1.32595 1.94263,-1.32595 0.33917,0 0.61669,-0.15987 0.61669,-0.35527 0,-0.1954 0.36195,-0.44994 0.80436,-0.56563 0.4424,-0.11569 0.80437,-0.48447 0.80437,-0.81953 0,-0.66346 -3.44125,-4.29234 -4.07042,-4.29234 -0.21298,0 -0.77577,-0.36196 -1.25063,-0.80437 -0.47487,-0.4424 -1.10074,-0.80436 -1.39083,-0.80436 -0.29009,0 -0.52744,-0.18099 -0.52744,-0.40219 0,-0.2212 -0.23735,-0.40218 -0.52744,-0.40218 -0.2901,0 -0.91597,-0.36197 -1.39083,-0.80437 -0.47487,-0.4424 -1.0067,-0.80527 -1.18184,-0.80637 -0.17515,-8e-4 -0.83096,-0.41212 -1.45734,-0.91338 l -1.13888,-0.91138 0.84811,-0.76753 c 0.73894,-0.66873 1.65351,-0.78862 7.10455,-0.93139 3.82402,-0.10016 6.67343,2.8e-4 7.329,0.25833 0.58991,0.23221 2.06796,0.50353 3.28457,0.60295 2.41177,0.19706 3.54819,0.54036 4.32349,1.30607 0.59945,0.59203 0.67248,2.1627 0.10055,2.1627 -0.79783,0 -0.20297,2.81583 0.76467,3.61966 0.13314,0.1106 0.49859,0.69879 0.81212,1.3071 0.52209,1.01297 0.76533,1.10601 2.89146,1.10601 1.27677,0 2.43327,0.18098 2.56997,0.40218 0.13672,0.22121 1.69868,0.40219 3.47104,0.40219 2.25656,0 3.39468,0.17222 3.79701,0.57455 0.66671,0.66671 0.75244,1.68114 0.17236,2.03965 -0.2212,0.1367 -0.40217,0.59985 -0.40217,1.02919 0,0.42935 -0.18099,0.78064 -0.40219,0.78064 -0.2212,0 -0.40219,0.44901 -0.40219,0.9978 0,1.15596 -1.33696,1.68114 -3.12436,1.22729 -0.60421,-0.15342 -1.8225,-0.37341 -2.70731,-0.48885 -0.88481,-0.11544 -1.78068,-0.37234 -1.99082,-0.57088 -0.21014,-0.19855 -1.27037,-0.361 -2.35605,-0.361 -1.69978,0 -2.39163,0.27934 -4.98057,2.01092 -1.65361,1.10601 -3.30814,2.00405 -3.67671,1.99565 -0.36857,-0.008 -2.11799,-0.56463 -3.88761,-1.23607 z"
       style="fill:#3088d4;fill-opacity:1;stroke-width:0.40218455" />
    <path
       inkscape:connector-curvature="0"
       id="path97"
       d="m 23.738402,170.85741 c -0.13671,-0.22121 -0.50164,-0.40219 -0.81096,-0.40219 -0.30933,0 -1.61077,-0.97678 -2.89211,-2.17062 -1.28133,-1.19385 -2.85058,-2.60706 -3.48721,-3.14047 -1.0572,-0.8858 -1.10948,-1.04776 -0.60327,-1.86903 0.50211,-0.81463 0.45968,-0.97232 -0.45123,-1.67681 -0.553,-0.42769 -1.25698,-0.78164 -1.5644,-0.78656 -0.84654,-0.0135 -1.62596,-1.26954 -1.64029,-2.64325 -0.007,-0.67467 -0.23902,-1.47048 -0.51552,-1.76847 -0.41308,-0.44521 -0.35929,-0.49009 0.30164,-0.25173 1.33306,0.48075 1.55509,0.45794 1.69601,-0.1742 0.0743,-0.33318 -0.58853,-1.41907 -1.47289,-2.41311 -1.55722,-1.75034 -1.60729,-1.89612 -1.5876,-4.62262 0.0112,-1.54841 0.11162,-2.58907 0.2232,-2.31256 0.11156,0.2765 0.55219,0.50273 0.97916,0.50273 0.42697,0 1.09058,0.15986 1.47468,0.35525 0.79087,0.40233 2.71581,1.21622 3.91584,1.65567 0.44241,0.16201 1.28061,0.51886 1.86269,0.793 0.98296,0.46294 1.31837,0.32358 4.71024,-1.95712 3.45099,-2.32044 5.32605,-2.97359 5.89479,-2.05335 0.13671,0.2212 0.95113,0.40217 1.80983,0.40217 0.8587,0 1.67312,0.18099 1.80983,0.40219 0.13671,0.2212 1.0523,0.40219 2.03466,0.40219 h 1.7861 v 2.21202 c 0,1.2166 -0.18099,2.212 -0.40219,2.212 -0.2212,0 -0.40621,0.49771 -0.41112,1.10601 -0.005,0.60831 -0.36287,1.55847 -0.79544,2.11147 -0.43256,0.553 -0.7905,1.15384 -0.79542,1.33519 -0.005,0.18134 -0.55189,1.11886 -1.2155,2.08338 -0.6636,0.96451 -1.20655,1.86944 -1.20655,2.01092 0,0.14149 -0.54295,1.04641 -1.20655,2.01093 -0.66361,0.96452 -1.20655,1.94728 -1.20655,2.18393 0,0.23665 -0.15253,0.43026 -0.33896,0.43026 -0.18642,0 -0.77439,0.85967 -1.30659,1.91038 -0.5322,1.05071 -1.28458,2.26123 -1.67197,2.69004 -0.38738,0.42881 -0.70433,1.01701 -0.70433,1.3071 0,0.61475 -1.84492,0.71921 -2.21202,0.12526 z"
       style="fill:#3088d4;fill-opacity:1;stroke-width:0.40218455" />
    <path
       inkscape:connector-curvature="0"
       id="path99"
       d="m 6.237162,190.55209 c -0.32839,-0.20763 -1.53333,-0.38029 -2.67768,-0.38367 -1.56431,-0.005 -2.36271,-0.23499 -3.21746996,-0.92832 -0.62528,-0.50719 -1.62735004,-1.23056 -2.22684004,-1.6075 -0.59948,-0.37695 -2.27357,-1.79256 -3.72021,-3.1458 l -2.63023,-2.46046 v -2.5922 c 0,-2.35344 0.13251,-2.76598 1.43852,-4.47847 0.79119,-1.03744 2.1094,-2.61018 2.92937,-3.49499 0.81997,-0.88481 1.89445,-2.18309 2.38773,-2.88509 1.10135004,-1.56734 2.85426,-2.04998 4.21269,-1.1599 0.64249,0.42097 1.39093,0.54757 2.23694,0.37837 0.79357,-0.15872 1.50542,-0.06 1.89407,0.26249 0.34247,0.28422 1.4175,0.48671 2.38895,0.44996 0.97145,-0.0367 1.87877,0.11521 2.01627,0.33767 0.13748,0.22247 0.78224,0.40449 1.43279,0.40449 0.9147,0 1.18283,-0.18234 1.18283,-0.80437 0,-0.44241 0.18098,-0.80437 0.40217,-0.80437 0.2212,0 0.40219,-0.36197 0.40219,-0.80437 0,-0.4424 0.11036,-0.80437 0.24525,-0.80437 0.13488,0 1.23537,0.90491 2.44552,2.01092 1.21014,1.10601 2.36667,2.01092 2.57004,2.01092 0.20338,0 0.36978,0.19391 0.36978,0.43092 0,0.55681 -1.0232,1.58 -1.58001,1.58 -0.23701,0 -0.43092,0.14197 -0.43092,0.31548 0,0.17351 -0.4977,0.61026 -1.10601,0.97056 -0.6083,0.36029 -1.64895,1.12303 -2.31255,1.69496 -0.66361,0.57193 -1.43279,1.04009 -1.70929,1.04036 -0.66163,6.5e-4 -0.63167,1.80723 0.0631,3.80337 0.6356,1.82621 0.46921,2.48052 -1.06852,4.20214 -0.60831,0.68104 -1.10685,1.37557 -1.10787,1.54338 -8e-4,0.16782 -0.54397,0.8835 -1.20655,1.59041 -0.66258,0.70691 -1.2047,1.44454 -1.2047,1.63917 0,0.19465 -0.41001,0.73908 -0.91113,1.20986 -0.64722,0.60804 -1.08407,0.74662 -1.50819,0.47845 z"
       style="fill:#3088d4;fill-opacity:1;stroke-width:0.40218455" />
    <path
       inkscape:connector-curvature="0"
       id="path101"
       d="m 34.899022,176.9731 c -1.60371,-0.065 -2.91583,-0.29122 -2.91583,-0.50273 0,-0.21152 -0.93021,-0.38456 -2.06713,-0.38456 -1.49704,0 -2.21449,-0.19411 -2.60141,-0.70383 -0.61413,-0.80901 -0.73381,-2.97471 -0.19558,-3.53923 0.20036,-0.21014 0.72255,-1.01551 1.16042,-1.78972 0.43787,-0.7742 2.71722,-4.55396 5.06521,-8.39946 2.34799,-3.84551 4.26907,-7.40924 4.26907,-7.91941 0,-0.51018 0.16186,-1.02763 0.3597,-1.1499 0.19784,-0.12226 0.46236,-0.90212 0.58784,-1.73301 0.54366,-3.59994 0.77046,-4.52711 1.10739,-4.52711 0.197,0 0.35817,-0.35128 0.35817,-0.78063 0,-0.42934 0.18099,-0.89248 0.40219,-1.02919 0.2212,-0.13672 0.40219,-0.69034 0.40219,-1.2303 0,-0.53994 0.18098,-0.98172 0.40218,-0.98172 0.2212,0 0.40219,-0.27393 0.40219,-0.60873 0,-1.4532 3.22364,-5.20624 3.57171,-4.15826 0.0994,0.29923 0.69377,1.02388 1.32088,1.61033 0.62709,0.58645 1.14017,1.22714 1.14017,1.42375 0,0.1966 0.72394,1.1574 1.60874,2.1351 0.88481,0.97769 1.60874,1.94463 1.60874,2.14874 0,0.20411 0.3253,0.66381 0.7229,1.02156 0.3976,0.35775 1.15819,1.28389 1.69021,2.0581 0.53201,0.7742 1.26582,1.67911 1.63068,2.01092 0.57511,0.52301 1.98898,2.89134 1.98898,3.33169 0,0.0848 -0.99541,0.67494 -2.21201,1.31144 -2.69424,1.40958 -2.7934,2.10067 -0.60329,4.20493 1.06127,1.01966 1.60875,1.89857 1.60875,2.58266 0,0.57035 -0.1684,1.037 -0.37422,1.037 -0.20581,0 -0.43205,0.38873 -0.50273,0.86384 -0.18713,1.2578 -1.33357,1.86928 -2.33368,1.24469 -0.44017,-0.27488 -1.07424,-0.49979 -1.40904,-0.49979 -0.3348,0 -0.60873,-0.18099 -0.60873,-0.40219 0,-0.2212 -0.54296,-0.40218 -1.20656,-0.40218 -0.6636,0 -1.20655,-0.18099 -1.20655,-0.40219 0,-0.2212 -0.35129,-0.40218 -0.78064,-0.40218 -0.42935,0 -0.89248,-0.18098 -1.02919,-0.40218 -0.13671,-0.2212 -0.78084,-0.40219 -1.43138,-0.40219 h -1.18282 v 3.99811 c 0,2.23157 0.1777,4.10793 0.40219,4.24668 0.2212,0.1367 0.40218,0.87132 0.40218,1.63247 0,1.35993 -0.0296,1.38392 -1.70929,1.3844 -1.78722,5.2e-4 -3.90804,1.32635 -3.93409,2.45941 -0.0318,1.38541 -0.93472,1.76539 -3.90851,1.64487 z"
       style="fill:#3088d4;fill-opacity:1;stroke-width:0.40218455" />
    <path
       inkscape:connector-curvature="0"
       id="path103"
       d="m 69.604392,213.1142 c -0.14603,-0.23628 -0.61925,-0.42961 -1.0516,-0.42961 -0.43235,0 -1.10035,-0.15987 -1.48446,-0.35526 -0.3841,-0.19539 -1.21342,-0.59723 -1.84294,-0.89297 l -1.14456,-0.5377 0.25966,-3.22942 c 0.14281,-1.77619 0.29591,-4.22484 0.3402,-5.44144 l 0.0805,-2.21202 -1.54356,-0.12693 -1.54357,-0.12694 0.23163,-8.11785 c 0.1274,-4.46481 0.34119,-10.78339 0.47508,-14.04127 0.19242,-4.68152 0.13019,-6.0312 -0.2968,-6.4375 -0.67244,-0.63986 -2.6339,-2.23557 -4.18877,-3.40771 -2.58847,-1.95131 -2.80062,-2.17319 -2.2837,-2.38845 0.2765,-0.11514 0.50273,-0.46819 0.50273,-0.78456 0,-0.31637 0.15987,-0.88948 0.35526,-1.27358 1.47892,-2.90725 1.4897,-2.74649 -0.29924,-4.46529 -0.91561,-0.87973 -1.66337,-1.74943 -1.66166,-1.93268 0.002,-0.2628 2.35652,-1.84487 3.65817,-2.45851 0.13349,-0.0629 1.28699,1.11347 2.56333,2.6142 1.27634,1.50074 2.59315,2.88644 2.92623,3.07935 0.40505,0.23457 1.38227,-0.0205 2.95067,-0.7701 2.34042,-1.11862 2.34914,-1.11951 4.4182,-0.45128 2.71276,0.87613 3.13427,0.84664 3.36494,-0.23536 0.39491,-1.85235 0.99861,-5.45765 1.63309,-9.75297 1.11233,-7.53021 1.3295,-8.24478 2.50574,-8.24478 1.02059,0 1.69479,-0.59091 3.67102,-3.21748 0.58252,-0.77421 1.55741,-1.88747 2.16642,-2.47393 1.36104,-1.3106 1.36365,-1.43742 0.0579,-2.80033 -1.29376,-1.3504 -0.97886,-1.96507 1.00674,-1.96507 1.36034,0 1.86086,0.3386 4.80248,3.24877 1.80612,1.78683 3.27598,3.37043 3.26635,3.51912 -0.01,0.14869 -0.20051,1.08477 -0.42417,2.08018 -0.22367,0.9954 -0.58946,2.62425 -0.81287,3.61966 -0.91695,4.08546 -0.89204,4.74184 0.27016,7.11729 0.68267,1.39533 2.91401,4.2524 5.77418,7.39342 4.532818,4.97793 5.667008,6.81778 5.667008,9.19292 0,0.43548 0.19933,1.22926 0.44296,1.76395 0.35245,0.77356 0.31088,1.12663 -0.20353,1.72821 -0.35556,0.41581 -1.86702,2.55169 -3.35879,4.74638 -2.758298,4.05801 -4.267938,5.37891 -6.207688,5.43159 -0.59525,0.0162 -1.19413,0.21038 -1.33084,0.43159 -0.13671,0.2212 -0.67966,0.40218 -1.20655,0.40218 -0.52689,0 -1.06984,0.18098 -1.20656,0.40218 -0.1367,0.2212 -0.78082,0.40219 -1.43137,0.40219 -0.65055,0 -1.18282,0.16951 -1.18282,0.3767 0,0.20718 -0.56995,0.43341 -1.26655,0.50273 -0.69659,0.0693 -1.3924,0.3975 -1.54622,0.7293 -0.15383,0.33181 -0.4888,1.00803 -0.74439,1.50273 -0.56979,1.10288 -0.61708,4.53004 -0.0625,4.53004 0.23972,0 0.40218,1.53379 0.40218,3.79702 0,2.09751 0.18001,3.90827 0.40218,4.04558 0.2212,0.13671 0.40219,1.23329 0.40219,2.43684 0,1.20356 -0.18099,2.18828 -0.40219,2.18828 -0.2212,0 -0.40218,0.63344 -0.40218,1.40765 0,0.7742 -0.18098,1.40764 -0.40218,1.40764 -0.2212,0 -0.40219,0.45492 -0.40219,1.01092 0,1.69546 -1.07142,3.23319 -2.91584,4.18489 -0.6083,0.31388 -1.106,0.7211 -1.106,0.90492 0,0.18382 -0.1983,0.33422 -0.44065,0.33422 -0.24235,0 -0.92697,0.3463 -1.52136,0.76955 -0.76443,0.54432 -1.95965,0.81458 -4.08393,0.92347 -1.65177,0.0847 -3.30163,0.29364 -3.66636,0.46442 -0.37703,0.17655 -0.77769,0.12516 -0.92865,-0.11909 z"
       style="fill:#3088d4;fill-opacity:1;stroke-width:0.40218455" />
    <path
       inkscape:connector-curvature="0"
       id="path105"
       d="m 61.710282,155.65681 c -1.4188,-1.50308 -2.8536,-3.08669 -3.18844,-3.51912 -0.33485,-0.43243 -1.23976,-1.60066 -2.01092,-2.59607 -0.77117,-0.9954 -1.50133,-1.90032 -1.62259,-2.01092 -0.12126,-0.1106 -0.65562,-0.83453 -1.18748,-1.60873 -0.53184,-0.77421 -1.25564,-1.67913 -1.60844,-2.01093 -0.35278,-0.3318 -1.07658,-1.23671 -1.60844,-2.01093 -0.53185,-0.7742 -1.07493,-1.49813 -1.20685,-1.60873 -0.13192,-0.1106 -0.675,-0.83453 -1.20685,-1.60874 -0.53185,-0.77421 -1.24707,-1.68106 -1.58936,-2.01522 -0.84755,-0.82742 -1.62782,-2.2686 -1.62782,-3.00663 0,-0.3348 -0.18098,-0.60873 -0.40218,-0.60873 -0.2212,0 -0.40218,-0.36197 -0.40218,-0.80437 0,-0.4424 -0.18099,-0.80437 -0.40219,-0.80437 -0.2212,0 -0.40219,-0.27393 -0.40219,-0.60874 0,-0.3348 -0.18098,-0.96824 -0.40218,-1.40764 l -0.80437,-1.59782 c -0.58358,-1.15923 -0.48232,-2.09003 0.34427,-3.16476 0.98764,-1.28413 2.06137,-0.98299 3.02593,0.84866 1.05079,1.99539 1.8582,1.96956 1.8582,-0.0595 0,-1.94526 0.79493,-2.34285 2.03821,-1.01944 1.08331,1.15313 1.98364,1.26772 1.98364,0.25248 0,-0.39816 0.16565,-0.89587 0.36813,-1.10601 0.20247,-0.21014 0.42869,-0.83453 0.50272,-1.38753 0.12366,-0.9237 0.2821,-0.99648 1.94832,-0.89494 1.72177,0.10493 1.92495,-0.002 4.00811,-2.11146 2.09822,-2.12463 3.29178,-2.69165 3.8306,-1.81982 0.13672,0.2212 0.74464,0.40219 1.35095,0.40219 0.60631,0 1.27432,0.16235 1.48446,0.36079 0.21014,0.19843 1.15125,0.48582 2.09135,0.63863 1.49179,0.24248 1.70923,0.18377 1.70882,-0.46134 -2.5e-4,-0.40654 -1.71959,-4.17404 -3.82075,-8.37221 -3.16569,-6.32514 -3.8181,-7.9446 -3.8075,-9.45133 0.007,-1.000074 0.25229,-2.133753 0.545,-2.519306 0.50605,-0.66653 0.57295,-0.66653 1.36099,0 2.20166,1.862208 2.542,2.108646 2.91204,2.108646 0.21866,0 0.39758,0.18098 0.39758,0.40218 0,0.88761 0.71683,0.31611 1.42204,-1.133723 0.88931,-1.828302 2.10896,-2.485937 4.61047,-2.485937 1.01767,0 2.04448,-0.194166 2.28179,-0.431483 0.23731,-0.237309 1.02316,-0.373052 1.74633,-0.301633 1.4912,0.147257 2.33574,1.529775 1.48496,2.43089 -0.26703,0.282833 -0.74232,1.011943 -1.0562,1.620246 -0.31389,0.60831 -0.7211,1.10601 -0.90492,1.10601 -0.18382,0 -0.33422,0.45246 -0.33422,1.00546 0,0.55301 0.18098,1.00546 0.40218,1.00546 0.2212,0 0.40219,0.23735 0.40219,0.52745 0,0.29009 0.36197,0.91596 0.80436,1.39083 0.4424,0.47486 0.80437,1.02388 0.80437,1.22005 0,0.5753 1.41267,1.68789 2.14314,1.68789 0.36969,0 0.67216,-0.16554 0.67216,-0.36787 0,-0.20232 1.13114,-0.46378 2.51365,-0.58101 1.38251,-0.11723 3.2981,-0.33412 4.25687,-0.48199 1.65923,-0.25588 1.73674,-0.22355 1.60874,0.671 -0.0953,0.66629 -1.11222,1.5867 -3.49389,3.16241 -2.43129,1.60854 -3.62574,2.69779 -4.32348,3.94266 -0.53025,0.94605 -0.96408,1.95307 -0.96408,2.23782 0,0.28476 1.26688,3.02828 2.81529,6.09671 1.54842,3.06844 2.8153,5.72633 2.8153,5.90642 0,0.1801 -0.76918,0.3332 -1.70929,0.34024 -1.58919,0.0119 -3.11693,0.68749 -3.11693,1.37838 0,0.16336 0.56972,0.82922 1.26604,1.47968 1.17892,1.10127 1.2282,1.25336 0.7162,2.21006 -1.0902,2.03706 -4.67272,5.37589 -5.76825,5.37589 -0.77208,0 -1.0402,0.20732 -1.0402,0.80436 0,0.4424 -0.18099,0.80437 -0.40219,0.80437 -0.22344,0 -0.40218,1.07249 -0.40218,2.41311 0,1.34062 -0.17875,2.41311 -0.40219,2.41311 -0.22343,0 -0.40218,1.07249 -0.40218,2.4131 0,1.34062 -0.17875,2.41311 -0.40218,2.41311 -0.22344,0 -0.40219,1.07249 -0.40219,2.41311 0,1.34061 -0.17875,2.41311 -0.40219,2.41311 -0.2212,0 -0.40218,0.45245 -0.40218,1.00546 0,0.72715 -0.21608,1.00546 -0.78064,1.00546 -0.42934,0 -0.89248,-0.18099 -1.02919,-0.40219 -0.41332,-0.66877 -2.951,-0.45254 -4.72009,0.40219 -0.91568,0.4424 -1.78215,0.80437 -1.92552,0.80437 -0.14336,0 -1.42149,-1.22979 -2.84029,-2.73288 z"
       style="fill:#3088d4;fill-opacity:1;stroke-width:0.40218455" />
  </g>
  <path
     d="M65.68743 96.45938c0 9.01375-7.3075 16.32125-16.3225 16.32125-9.01375 0-16.32-7.3075-16.32-16.32125 0-9.01375 7.30625-16.3225 16.32-16.3225 9.015 0 16.3225 7.30875 16.3225 16.3225M124.52893 96.45938c0 9.01375-7.30875 16.32125-16.3225 16.32125-9.01375 0-16.32125-7.3075-16.32125-16.32125 0-9.01375 7.3075-16.3225 16.32125-16.3225 9.01375 0 16.3225 7.30875 16.3225 16.3225M183.36933 96.45938c0 9.01375-7.3075 16.32125-16.32125 16.32125-9.01375 0-16.32125-7.3075-16.32125-16.32125 0-9.01375 7.3075-16.3225 16.32125-16.3225 9.01375 0 16.32125 7.30875 16.32125 16.3225"
     fill="#fff"
     id="path4300" />
</svg>
